<svg xmlns="http://www.w3.org/2000/svg" xmlns:xlink="http://www.w3.org/1999/xlink" version="1.1" width="386" height="636" viewBox="0 0 386 636" xml:space="preserve">
<desc>Created with Fabric.js 3.5.0</desc>
<defs>
</defs>
<rect x="0" y="0" width="100%" height="100%" fill="#ffffff"/>
<g transform="matrix(0.9048 0 0 0.9048 192.7224 170.1024)" id="504807">
<g style="" vector-effect="non-scaling-stroke">
		<g transform="matrix(1 0 0 1 120.6625 -102.9897)" id="Clock Frame">
<path style="stroke: none; stroke-width: 1; stroke-dasharray: none; stroke-linecap: butt; stroke-dashoffset: 0; stroke-linejoin: miter; stroke-miterlimit: 4; is-custom-font: none; font-file-url: none; fill: rgb(242,242,242); fill-rule: nonzero; opacity: 1;" transform=" translate(-333.6625, -85.0103)" d="M 333.663 117.659 C 351.682 117.659 366.29 103.042 366.29 85.0104 C 366.29 66.9789 351.682 52.3615 333.663 52.3615 C 315.643 52.3615 301.035 66.9789 301.035 85.0104 C 301.035 103.042 315.643 117.659 333.663 117.659 Z" stroke-linecap="round"/>
</g>
		<g transform="matrix(1 0 0 1 120.663 -128.8623)" id="Time">
<path style="stroke: none; stroke-width: 1; stroke-dasharray: none; stroke-linecap: butt; stroke-dashoffset: 0; stroke-linejoin: miter; stroke-miterlimit: 4; is-custom-font: none; font-file-url: none; fill: rgb(0,0,0); fill-opacity: 0.1; fill-rule: nonzero; opacity: 1;" transform=" translate(-333.663, -59.1377)" d="M 333.663 60.9857 C 334.683 60.9857 335.51 60.1583 335.51 59.1377 C 335.51 58.117 334.683 57.2896 333.663 57.2896 C 332.643 57.2896 331.816 58.117 331.816 59.1377 C 331.816 60.1583 332.643 60.9857 333.663 60.9857 Z" stroke-linecap="round"/>
</g>
		<g transform="matrix(1 0 0 1 94.807 -102.9896)" id="Time_2">
<path style="stroke: none; stroke-width: 1; stroke-dasharray: none; stroke-linecap: butt; stroke-dashoffset: 0; stroke-linejoin: miter; stroke-miterlimit: 4; is-custom-font: none; font-file-url: none; fill: rgb(0,0,0); fill-opacity: 0.1; fill-rule: nonzero; opacity: 1;" transform=" translate(-307.807, -85.0104)" d="M 307.807 86.8584 C 308.827 86.8584 309.654 86.031 309.654 85.0104 C 309.654 83.9897 308.827 83.1623 307.807 83.1623 C 306.787 83.1623 305.96 83.9897 305.96 85.0104 C 305.96 86.031 306.787 86.8584 307.807 86.8584 Z" stroke-linecap="round"/>
</g>
		<g transform="matrix(1 0 0 1 146.5185 -102.9896)" id="Time_3">
<path style="stroke: none; stroke-width: 1; stroke-dasharray: none; stroke-linecap: butt; stroke-dashoffset: 0; stroke-linejoin: miter; stroke-miterlimit: 4; is-custom-font: none; font-file-url: none; fill: rgb(0,0,0); fill-opacity: 0.1; fill-rule: nonzero; opacity: 1;" transform=" translate(-359.5185, -85.0104)" d="M 359.519 86.8584 C 360.539 86.8584 361.365 86.031 361.365 85.0104 C 361.365 83.9897 360.539 83.1623 359.519 83.1623 C 358.499 83.1623 357.672 83.9897 357.672 85.0104 C 357.672 86.031 358.499 86.8584 359.519 86.8584 Z" stroke-linecap="round"/>
</g>
		<g transform="matrix(1 0 0 1 120.663 -77.117)" id="Time_4">
<path style="stroke: none; stroke-width: 1; stroke-dasharray: none; stroke-linecap: butt; stroke-dashoffset: 0; stroke-linejoin: miter; stroke-miterlimit: 4; is-custom-font: none; font-file-url: none; fill: rgb(0,0,0); fill-opacity: 0.1; fill-rule: nonzero; opacity: 1;" transform=" translate(-333.663, -110.883)" d="M 333.663 112.731 C 334.683 112.731 335.51 111.904 335.51 110.883 C 335.51 109.862 334.683 109.035 333.663 109.035 C 332.643 109.035 331.816 109.862 331.816 110.883 C 331.816 111.904 332.643 112.731 333.663 112.731 Z" stroke-linecap="round"/>
</g>
		<g transform="matrix(1 0 0 1 120.663 -114.386)" id="Hand">
<path style="stroke: none; stroke-width: 1; stroke-dasharray: none; stroke-linecap: butt; stroke-dashoffset: 0; stroke-linejoin: miter; stroke-miterlimit: 4; is-custom-font: none; font-file-url: none; fill: rgb(175,185,197); fill-rule: evenodd; opacity: 1;" transform=" translate(-333.663, -73.614)" d="M 333.663 62.8337 L 334.894 84.3943 H 332.432 L 333.663 62.8337 Z" stroke-linecap="round"/>
</g>
		<g transform="matrix(1 0 0 1 125.899 -97.7498)" id="Hand_2">
<path style="stroke: none; stroke-width: 1; stroke-dasharray: none; stroke-linecap: butt; stroke-dashoffset: 0; stroke-linejoin: miter; stroke-miterlimit: 4; is-custom-font: none; font-file-url: none; fill: rgb(175,185,197); fill-rule: evenodd; opacity: 1;" transform=" translate(-338.899, -90.2502)" d="M 344.558 95.9129 L 333.24 86.33 L 334.981 84.5876 L 344.558 95.9129 Z" stroke-linecap="round"/>
</g>
		<g transform="matrix(1 0 0 1 120.6625 -102.9896)" id="Time_5">
<path style="stroke: none; stroke-width: 1; stroke-dasharray: none; stroke-linecap: butt; stroke-dashoffset: 0; stroke-linejoin: miter; stroke-miterlimit: 4; is-custom-font: none; font-file-url: none; fill: rgb(197,207,214); fill-rule: nonzero; opacity: 1;" transform=" translate(-333.6625, -85.0104)" d="M 333.663 87.4744 C 335.023 87.4744 336.125 86.3712 336.125 85.0103 C 336.125 83.6495 335.023 82.5463 333.663 82.5463 C 332.303 82.5463 331.2 83.6495 331.2 85.0103 C 331.2 86.3712 332.303 87.4744 333.663 87.4744 Z" stroke-linecap="round"/>
</g>
		<g transform="matrix(1 0 0 1 -59.4045 47.3185)" id="Background Shape">
<path style="stroke: none; stroke-width: 1; stroke-dasharray: none; stroke-linecap: butt; stroke-dashoffset: 0; stroke-linejoin: miter; stroke-miterlimit: 4; is-custom-font: none; font-file-url: none; fill: rgb(242,242,242); fill-rule: evenodd; opacity: 0.1196;" transform=" translate(-153.5955, -235.3186)" d="M 299.061 256.5 C 294.817 209.037 67.08 117.428 24.8014 162.384 C -17.4771 207.34 23.1684 291.712 111.769 313.317 C 200.369 334.922 303.306 303.963 299.061 256.5 Z" stroke-linecap="round"/>
</g>
		<g transform="matrix(1 0 0 1 78.8013 85.2034)" id="Background Shape_2">
<path style="stroke: none; stroke-width: 1; stroke-dasharray: none; stroke-linecap: butt; stroke-dashoffset: 0; stroke-linejoin: miter; stroke-miterlimit: 4; is-custom-font: none; font-file-url: none; fill: rgb(221,227,233); fill-rule: evenodd; opacity: 0.1196;" transform=" translate(-291.8013, -273.2034)" d="M 158.302 287.34 C 162.104 247.018 366.101 169.192 403.972 207.384 C 441.844 245.577 432.258 325.909 352.893 344.264 C 273.529 362.618 154.5 327.662 158.302 287.34 Z" stroke-linecap="round"/>
</g>
		<g transform="matrix(1 0 0 1 -176.9866 -72.698)" id="Hanging Lamp Light">
<path style="stroke: none; stroke-width: 1; stroke-dasharray: none; stroke-linecap: butt; stroke-dashoffset: 0; stroke-linejoin: miter; stroke-miterlimit: 4; is-custom-font: none; font-file-url: none; fill: rgb(242,242,242); fill-rule: nonzero; opacity: 1;" transform=" translate(-36.0134, -115.302)" d="M 36.0134 129.162 C 50.4632 129.162 62.177 122.957 62.177 115.302 C 62.177 107.647 50.4632 101.442 36.0134 101.442 C 21.5637 101.442 9.84982 107.647 9.84982 115.302 C 9.84982 122.957 21.5637 129.162 36.0134 129.162 Z" stroke-linecap="round"/>
</g>
		<g transform="matrix(1 0 0 1 -176.9866 -78.5503)" id="Hanging Lamp_2">
<path style="stroke: none; stroke-width: 1; stroke-dasharray: none; stroke-linecap: butt; stroke-dashoffset: 0; stroke-linejoin: miter; stroke-miterlimit: 4; is-custom-font: none; font-file-url: none; fill: rgb(221,227,233); fill-rule: evenodd; opacity: 1;" transform=" translate(-36.0134, -109.4497)" d="M 66.4863 124.85 C 66.4863 107.839 52.8431 94.0495 36.0134 94.0495 C 19.1837 94.0495 5.54053 107.839 5.54053 124.85" stroke-linecap="round"/>
</g>
		<g transform="matrix(1 0 0 1 -176.9866 -138.7187)" id="Wire">
<path style="stroke: none; stroke-width: 1; stroke-dasharray: none; stroke-linecap: butt; stroke-dashoffset: 0; stroke-linejoin: miter; stroke-miterlimit: 4; is-custom-font: none; font-file-url: none; fill: rgb(221,227,233); fill-rule: nonzero; opacity: 1;" transform=" translate(-36.0134, -49.2814)" d="M 37.5524 0.0000305176 H 34.4744 V 98.5627 H 37.5524 V 0.0000305176 Z" stroke-linecap="round"/>
</g>
		<g transform="matrix(1 0 0 1 -129.2766 -101.2388)" id="Hanging Lamp Light_2">
<path style="stroke: none; stroke-width: 1; stroke-dasharray: none; stroke-linecap: butt; stroke-dashoffset: 0; stroke-linejoin: miter; stroke-miterlimit: 4; is-custom-font: none; font-file-url: none; fill: rgb(242,242,242); fill-rule: nonzero; opacity: 0.343;" transform=" translate(-83.7234, -86.7612)" d="M 83.7235 97.9467 C 94.5243 97.9467 103.28 92.9388 103.28 86.7612 C 103.28 80.5835 94.5243 75.5756 83.7235 75.5756 C 72.9226 75.5756 64.1668 80.5835 64.1668 86.7612 C 64.1668 92.9388 72.9226 97.9467 83.7235 97.9467 Z" stroke-linecap="round"/>
</g>
		<g transform="matrix(1 0 0 1 -129.2766 -105.9616)" id="Hanging Lamp_4">
<path style="stroke: none; stroke-width: 1; stroke-dasharray: none; stroke-linecap: butt; stroke-dashoffset: 0; stroke-linejoin: miter; stroke-miterlimit: 4; is-custom-font: none; font-file-url: none; fill: rgb(221,227,233); fill-rule: evenodd; opacity: 0.343;" transform=" translate(-83.7234, -82.0384)" d="M 106.501 94.4668 C 106.501 80.7387 96.3033 69.6099 83.7235 69.6099 C 71.1437 69.6099 60.9458 80.7387 60.9458 94.4668" stroke-linecap="round"/>
</g>
		<g transform="matrix(1 0 0 1 -128.9687 -146.1109)" id="Wire_2">
<path style="stroke: none; stroke-width: 1; stroke-dasharray: none; stroke-linecap: butt; stroke-dashoffset: 0; stroke-linejoin: miter; stroke-miterlimit: 4; is-custom-font: none; font-file-url: none; fill: rgb(221,227,233); fill-rule: nonzero; opacity: 0.49;" transform=" translate(-84.0313, -41.8892)" d="M 85.5703 0.0000305176 H 82.4923 V 83.7783 H 85.5703 V 0.0000305176 Z" stroke-linecap="round"/>
</g>
		<g transform="matrix(1 0 0 1 162.5245 63.7388)" id="Body">
<path style="stroke: rgb(203,203,203); stroke-width: 8; stroke-dasharray: none; stroke-linecap: butt; stroke-dashoffset: 0; stroke-linejoin: miter; stroke-miterlimit: 4; is-custom-font: none; font-file-url: none; fill: none; fill-rule: nonzero; opacity: 1;" transform=" translate(-375.5245, -251.7388)" d="M 349.669 144.293 L 361.099 132.848 C 363.022 130.923 366.14 130.922 368.064 132.846 C 368.065 132.847 368.065 132.847 368.066 132.848 L 398.497 163.314 C 400.343 165.162 401.38 167.669 401.38 170.282 V 372.074" stroke-linecap="round"/>
</g>
		<g transform="matrix(1 0 0 1 188.0725 185.614)" id="Lamp Base">
<path style="stroke: none; stroke-width: 1; stroke-dasharray: none; stroke-linecap: butt; stroke-dashoffset: 0; stroke-linejoin: miter; stroke-miterlimit: 4; is-custom-font: none; font-file-url: none; fill: rgb(175,185,197); fill-rule: nonzero; opacity: 1;" transform=" translate(-401.0725, -373.614)" d="M 417.386 371.458 H 384.759 C 383.739 371.458 382.912 372.286 382.912 373.306 V 373.922 C 382.912 374.943 383.739 375.77 384.759 375.77 H 417.386 C 418.406 375.77 419.233 374.943 419.233 373.922 V 373.306 C 419.233 372.286 418.406 371.458 417.386 371.458 Z" stroke-linecap="round"/>
</g>
		<g transform="matrix(1 0 0 1 126.0594 -32.9266)" id="Lamp_2">
<path style="stroke: none; stroke-width: 1; stroke-dasharray: none; stroke-linecap: butt; stroke-dashoffset: 0; stroke-linejoin: miter; stroke-miterlimit: 4; is-custom-font: none; font-file-url: none; fill: rgb(197,207,214); fill-rule: evenodd; opacity: 1;" transform=" translate(-339.0594, -155.0734)" d="M 356.544 137.578 C 364.477 145.517 364.477 158.388 356.544 166.327 L 344.355 178.523 L 315.625 149.774 L 327.814 137.578 C 335.747 129.639 348.61 129.639 356.544 137.578 Z" stroke-linecap="round"/>
</g>
		<g transform="matrix(1 0 0 1 117.4762 -24.1823)" id="Lamp_3">
<path style="stroke: none; stroke-width: 1; stroke-dasharray: none; stroke-linecap: butt; stroke-dashoffset: 0; stroke-linejoin: miter; stroke-miterlimit: 4; is-custom-font: none; font-file-url: none; fill: rgb(242,242,242); fill-rule: nonzero; opacity: 1;" transform=" translate(-330.4762, -163.8177)" d="M 327.647 166.649 C 335.581 174.588 343.279 179.756 344.841 178.192 C 346.404 176.629 341.24 168.925 333.306 160.986 C 325.372 153.048 317.674 147.88 316.111 149.443 C 314.549 151.007 319.713 158.71 327.647 166.649 Z" stroke-linecap="round"/>
</g>
		<g transform="matrix(1 0 0 1 -177.2944 84.8957)" id="leaf">
<path style="stroke: none; stroke-width: 1; stroke-dasharray: none; stroke-linecap: butt; stroke-dashoffset: 0; stroke-linejoin: miter; stroke-miterlimit: 4; is-custom-font: none; font-file-url: none; fill: rgb(221,227,233); fill-rule: evenodd; opacity: 1;" transform=" translate(-35.7056, -272.8957)" d="M 29.0927 229.265 C 30.8561 229.049 32.7383 229.126 34.3783 229.822 C 37.8655 231.303 38.8568 235.426 38.8089 238.777 C 38.7574 242.383 37.992 246.322 40.7322 249.228 C 41.9918 250.564 43.5586 251.586 44.7954 252.947 C 46.117 254.401 47.154 256.064 47.9217 257.851 C 49.3315 261.132 50.0235 264.99 48.7343 268.432 C 47.5992 271.463 44.7435 274.198 45.3605 277.644 C 46.0042 281.238 49.626 283.986 51.8904 286.664 C 54.453 289.694 56.8125 293.567 57.2001 297.54 C 57.5718 301.348 55.9152 305.2 53.373 308.078 C 48.2935 313.83 40.6583 316.65 32.9597 316.633 C 29.6911 316.625 25.9903 316.477 23.1696 314.72 C 22.2978 314.177 21.8379 313.567 21.3196 312.72 C 20.855 311.96 20.2411 311.466 19.5306 310.928 C 17.9697 309.747 16.8424 308.156 16.123 306.374 C 13.3294 299.455 15.5622 290.894 19.4726 284.75 C 20.3992 283.294 21.1578 281.893 20.7077 280.158 C 20.2379 278.346 19.0834 276.712 18.0623 275.155 C 17.0532 273.617 15.9012 272.149 15.1126 270.485 C 14.2865 268.742 14.0539 266.917 14.1999 265.009 C 14.4742 261.426 16.02 258.119 18.2084 255.238 C 20.3163 252.462 22.7913 249.806 22.7969 246.169 C 22.803 242.315 20.2277 238.886 21.3248 234.967 C 21.7791 233.344 22.6915 231.679 24.162 230.706 C 25.5721 229.773 27.4341 229.468 29.0927 229.265 Z" stroke-linecap="round"/>
</g>
		<g transform="matrix(1 0 0 1 -179.1412 86.4355)" id="middle thing">
<path style="stroke: none; stroke-width: 1; stroke-dasharray: none; stroke-linecap: butt; stroke-dashoffset: 0; stroke-linejoin: miter; stroke-miterlimit: 4; is-custom-font: none; font-file-url: none; fill: rgb(197,207,214); fill-rule: evenodd; opacity: 1;" transform=" translate(-33.8587, -274.4355)" d="M 27.9403 235.427 C 27.9734 234.91 28.5871 234.599 29.0702 234.734 C 29.7061 234.912 29.6939 235.507 29.6771 236.036 C 29.6256 237.664 29.8611 239.247 30.2523 240.827 C 31.0652 244.111 32.5676 247.138 33.7579 250.293 C 34.9472 253.445 35.5054 256.7 34.8078 260.036 C 34.1501 263.181 33.1168 266.245 32.4437 269.394 C 31.8505 272.169 31.2192 275.096 32.1227 277.865 C 32.992 280.53 34.9141 282.7 36.2981 285.108 C 39.1632 290.094 40.4343 295.624 40.6043 301.316 C 40.6831 303.959 40.6121 306.626 39.9994 309.218 C 39.6468 310.71 39.1728 312.727 37.8947 313.758 C 37.3053 314.233 36.2972 314.397 35.8012 313.694 C 35.3354 313.034 35.744 312.012 35.8919 311.308 C 36.5322 308.263 36.661 305.151 36.5077 302.059 C 36.3593 299.064 36.0057 296.074 35.0636 293.213 C 34.1893 290.558 32.861 288.174 31.2977 285.852 C 29.7047 283.485 28.0486 281.114 27.3904 278.31 C 26.7216 275.462 27.2649 272.564 27.9914 269.771 C 28.7597 266.816 29.766 263.946 30.8064 261.071 C 31.8202 258.27 32.1796 255.62 31.6199 252.688 C 30.5142 246.896 27.5548 241.459 27.9403 235.427 Z" stroke-linecap="round"/>
</g>
		<g transform="matrix(1 0 0 1 -161.2885 102.1443)" id="leaf_2">
<path style="stroke: none; stroke-width: 1; stroke-dasharray: none; stroke-linecap: butt; stroke-dashoffset: 0; stroke-linejoin: miter; stroke-miterlimit: 4; is-custom-font: none; font-file-url: none; fill: rgb(221,227,233); fill-rule: evenodd; opacity: 1;" transform=" translate(-51.7115, -290.1443)" d="M 75.6542 236.293 C 77.8365 236.956 80.0039 238.026 81.5595 239.704 C 84.8672 243.271 83.8523 248.662 82.0263 252.6 C 80.0609 256.838 77.0824 261.098 78.7614 265.961 C 79.5331 268.197 80.8308 270.222 81.5629 272.474 C 82.345 274.882 82.6826 277.389 82.6396 279.901 C 82.56 284.515 81.3334 289.439 78.0033 292.838 C 75.0712 295.831 70.277 297.579 69.1805 301.976 C 68.0367 306.562 70.8331 311.697 72.0747 316.042 C 73.4799 320.96 74.2017 326.768 72.5574 331.669 C 70.9819 336.366 67.0045 340.059 62.5022 342.139 C 53.5062 346.298 43.0614 345.658 34.0409 341.63 C 30.2111 339.919 25.9485 337.818 23.5685 334.271 C 22.8329 333.175 22.6154 332.214 22.4551 330.943 C 22.3115 329.802 21.8525 328.898 21.3032 327.893 C 20.0961 325.683 19.6146 323.214 19.7118 320.733 C 20.0902 311.096 27.2308 302.134 35.0631 296.903 C 36.9188 295.664 38.5486 294.402 38.9372 292.115 C 39.343 289.729 38.8519 287.195 38.4766 284.823 C 38.1059 282.477 37.5302 280.142 37.484 277.763 C 37.4358 275.272 38.1271 272.993 39.3058 270.813 C 41.5202 266.718 45.0798 263.612 49.1688 261.344 C 53.1073 259.158 57.4132 257.306 59.3407 253.008 C 61.384 248.452 60.1746 243.056 63.5315 238.993 C 64.9215 237.31 66.8712 235.816 69.1098 235.431 C 71.2567 235.062 73.6018 235.67 75.6542 236.293 Z" stroke-linecap="round"/>
</g>
		<g transform="matrix(1 0 0 1 -156.6713 104.6083)" id="middle thing_2">
<path style="stroke: none; stroke-width: 1; stroke-dasharray: none; stroke-linecap: butt; stroke-dashoffset: 0; stroke-linejoin: miter; stroke-miterlimit: 4; is-custom-font: none; font-file-url: none; fill: rgb(197,207,214); fill-rule: evenodd; opacity: 1;" transform=" translate(-56.3287, -292.6083)" d="M 71.1965 243.826 C 71.5061 243.231 72.3862 243.185 72.8804 243.598 C 73.5309 244.142 73.2054 244.84 72.9085 245.458 C 71.9962 247.36 71.4434 249.357 71.0739 251.433 C 70.3054 255.749 70.4783 260.121 70.2187 264.482 C 69.9594 268.839 68.9086 272.986 66.3469 276.57 C 63.9318 279.95 61.1201 283.036 58.6849 286.413 C 56.5385 289.388 54.2684 292.524 53.8758 296.276 C 53.4976 299.888 54.6092 303.466 54.9671 307.044 C 55.7081 314.45 54.2997 321.666 51.5197 328.496 C 50.2286 331.667 48.7497 334.788 46.6765 337.536 C 45.483 339.119 43.8731 341.259 41.8392 341.809 C 40.9013 342.063 39.6366 341.729 39.4249 340.635 C 39.2257 339.609 40.2383 338.613 40.7793 337.858 C 43.1219 334.587 44.9014 330.969 46.3405 327.227 C 47.7346 323.602 48.8861 319.876 49.2817 315.994 C 49.6487 312.392 49.3434 308.872 48.7308 305.302 C 48.1067 301.664 47.4115 297.987 48.1094 294.321 C 48.8179 290.598 50.9699 287.451 53.2815 284.524 C 55.7263 281.428 58.4051 278.557 61.1262 275.698 C 63.7778 272.912 65.5851 269.962 66.4651 266.197 C 68.2038 258.758 67.5887 250.767 71.1965 243.826 Z" stroke-linecap="round"/>
</g>
		<g transform="matrix(1 0 0 1 -187.452 114.7721)" id="leaf_3">
<path style="stroke: none; stroke-width: 1; stroke-dasharray: none; stroke-linecap: butt; stroke-dashoffset: 0; stroke-linejoin: miter; stroke-miterlimit: 4; is-custom-font: none; font-file-url: none; fill: rgb(197,207,214); fill-rule: evenodd; opacity: 1;" transform=" translate(-25.548, -302.7721)" d="M 8.19135 263.655 C 11.82 263.655 15.0101 265.58 17.2083 268.311 C 19.7815 271.508 20.3012 275.413 21.3461 279.223 C 21.8661 281.12 22.7603 283.002 24.3274 284.29 C 25.7528 285.462 27.5623 285.697 29.2684 286.269 C 32.6782 287.413 35.4315 290.169 36.5188 293.532 C 37.8454 297.634 36.4403 301.77 36.6822 305.927 C 36.9043 309.745 40.666 312.127 43.6925 313.957 C 46.6768 315.761 49.3652 317.451 50.2641 320.966 C 51.2172 324.695 51.537 328.857 50.2168 332.54 C 48.0188 338.673 41.5863 341.374 35.3707 341.792 C 29.7299 342.172 22.6373 341.576 18.4011 337.479 C 15.8662 335.027 14.9482 331.598 15.0621 328.186 C 15.1329 326.065 15.5529 323.963 16.0959 321.913 C 16.4807 320.46 17.0006 319.013 17.1487 317.512 C 17.5425 313.517 13.8529 312.75 10.7123 311.653 C 6.72146 310.259 3.92754 307.626 1.98473 303.959 C 0.175451 300.543 -0.583685 296.71 0.500926 292.95 C 1.05487 291.03 2.0596 289.288 3.42221 287.806 C 4.02203 287.154 4.86744 286.61 5.40883 285.925 C 5.91416 285.285 5.80415 284.456 5.63 283.707 C 4.82476 280.245 2.31591 277.379 1.41869 273.923 C 0.608657 270.804 1.08751 266.923 3.93712 264.911 C 5.16827 264.041 6.68654 263.665 8.19135 263.655 Z" stroke-linecap="round"/>
</g>
		<g transform="matrix(1 0 0 1 -185.9129 118.7766)" id="middle thing_3">
<path style="stroke: none; stroke-width: 1; stroke-dasharray: none; stroke-linecap: butt; stroke-dashoffset: 0; stroke-linejoin: miter; stroke-miterlimit: 4; is-custom-font: none; font-file-url: none; fill: rgb(175,185,197); fill-rule: evenodd; opacity: 1;" transform=" translate(-27.087, -306.7766)" d="M 13.1358 272.675 C 16.9817 276.774 18.0271 282.336 18.3339 287.727 C 18.5057 290.75 18.3269 293.938 19.2144 296.87 C 19.9738 299.38 21.7542 301.298 23.5893 303.112 C 27.2833 306.761 31.403 310.472 32.4834 315.754 C 33.1174 318.854 32.6895 322.056 33.5655 325.122 C 34.362 327.908 35.7644 330.646 37.4703 332.999 C 38.8437 334.894 40.6331 336.345 42.1345 338.112 C 42.5925 338.651 43.2487 339.445 43.0596 340.206 C 42.8384 341.097 41.7036 341.38 40.8985 341.239 C 39.0212 340.913 37.4411 339.119 36.2137 337.815 C 34.4188 335.909 32.8937 333.858 31.6541 331.557 C 30.2779 329.002 29.1698 326.291 28.6964 323.425 C 28.205 320.451 28.4496 317.352 27.3277 314.498 C 25.4398 309.696 20.8607 306.863 17.55 303.12 C 13.4251 298.456 14.0403 292.652 14.4628 286.916 C 14.6949 283.763 14.9256 280.203 13.3337 277.324 C 12.726 276.226 11.3711 275.201 11.1098 273.952 C 10.8705 272.808 12.1767 271.652 13.1358 272.675 Z" stroke-linecap="round"/>
</g>
		<g transform="matrix(1 0 0 1 -171.7538 169.906)" id="Base">
<path style="stroke: none; stroke-width: 1; stroke-dasharray: none; stroke-linecap: butt; stroke-dashoffset: 0; stroke-linejoin: miter; stroke-miterlimit: 4; is-custom-font: none; font-file-url: none; fill: rgb(137,197,204); fill-rule: evenodd; opacity: 1;" transform=" translate(-41.2462, -357.906)" d="M 17.2372 340.042 C 17.2374 363.486 21.0609 375.77 41.2462 375.77 C 61.4315 375.77 65.255 363.486 65.2551 340.042 H 17.2372 Z" stroke-linecap="round"/>
</g>
		<g transform="matrix(1 0 0 1 -100.9585 120.9325)" id="Lamp Base_2">
<path style="stroke: none; stroke-width: 1; stroke-dasharray: none; stroke-linecap: butt; stroke-dashoffset: 0; stroke-linejoin: miter; stroke-miterlimit: 4; is-custom-font: none; font-file-url: none; fill: rgb(175,185,197); fill-rule: nonzero; opacity: 1;" transform=" translate(-112.0415, -308.9325)" d="M 122.507 306.16 H 101.576 C 100.896 306.16 100.345 306.712 100.345 307.392 V 310.473 C 100.345 311.153 100.896 311.705 101.576 311.705 H 122.507 C 123.187 311.705 123.738 311.153 123.738 310.473 V 307.392 C 123.738 306.712 123.187 306.16 122.507 306.16 Z" stroke-linecap="round"/>
</g>
		<g transform="matrix(1 0 0 1 -100.9584 96.2915)" id="Lamp Body">
<path style="stroke: none; stroke-width: 1; stroke-dasharray: none; stroke-linecap: butt; stroke-dashoffset: 0; stroke-linejoin: miter; stroke-miterlimit: 4; is-custom-font: none; font-file-url: none; fill: rgb(221,227,233); fill-rule: evenodd; opacity: 1;" transform=" translate(-112.0416, -284.2915)" d="M 106.501 288.296 C 109.144 279.724 110.625 270.689 110.944 261.191 H 112.657 H 113.755 C 114.074 270.689 115.555 279.724 118.198 288.296 H 122.199 C 127.469 288.296 131.741 292.571 131.741 297.844 C 131.741 303.118 127.469 307.392 122.199 307.392 H 101.884 C 96.6143 307.392 92.3422 303.118 92.3422 297.844 C 92.3422 292.571 96.6143 288.296 101.884 288.296 H 106.501 Z" stroke-linecap="round"/>
</g>
		<g transform="matrix(1 0 0 1 -101.5739 55.0185)" id="Shade">
<path style="stroke: none; stroke-width: 1; stroke-dasharray: none; stroke-linecap: butt; stroke-dashoffset: 0; stroke-linejoin: miter; stroke-miterlimit: 4; is-custom-font: none; font-file-url: none; fill: rgb(197,207,214); fill-rule: evenodd; opacity: 1;" transform=" translate(-111.4261, -243.0185)" d="M 90.2627 218.488 C 97.3172 217.799 104.372 217.454 111.426 217.454 C 118.481 217.454 125.535 217.799 132.59 218.488 L 135.435 267.433 C 127.432 268.2 119.429 268.583 111.426 268.583 C 103.423 268.583 95.4202 268.2 87.4172 267.433 L 90.2627 218.488 Z" stroke-linecap="round"/>
</g>
		<g transform="matrix(1 0 0 1 -101.2659 155.7375)" id="Vector">
<path style="stroke: none; stroke-width: 1; stroke-dasharray: none; stroke-linecap: butt; stroke-dashoffset: 0; stroke-linejoin: miter; stroke-miterlimit: 4; is-custom-font: none; font-file-url: none; fill: rgb(242,242,242); fill-rule: evenodd; opacity: 1;" transform=" translate(-111.734, -343.7375)" d="M 86.186 311.705 H 137.282 H 150.21 V 375.77 H 137.282 V 325.257 H 86.186 V 375.77 H 73.2581 V 311.705 H 86.186 Z" stroke-linecap="round"/>
</g>
		<g transform="matrix(1 0 0 1 129.5893 72.5752)" id="Thi Succs!">
<path style="stroke: none; stroke-width: 1; stroke-dasharray: none; stroke-linecap: butt; stroke-dashoffset: 0; stroke-linejoin: miter; stroke-miterlimit: 4; is-custom-font: none; font-file-url: none; fill: rgb(193,222,226); fill-rule: evenodd; opacity: 1;" transform=" translate(-342.5893, -260.5752)" d="M 330.819 202.182 C 336.257 215.112 345.5 224.095 350.396 237.539 C 353.299 245.512 354.51 254.181 354.583 263.059 C 354.623 267.881 354.539 272.707 354.516 277.529 C 354.494 282.232 354.367 286.905 353.968 291.577 C 353.567 296.275 353.118 300.916 352.92 305.643 C 352.766 309.325 352.696 313.609 351.448 316.968 C 350.456 319.639 347.935 320.031 347.266 316.791 C 346.894 314.99 346.941 312.979 346.982 311.128 C 347.034 308.753 347.172 306.381 347.243 304.007 C 347.526 294.479 347.159 284.948 347.351 275.416 C 347.538 266.103 348.734 256.8 347.411 247.549 C 346.318 239.909 343.541 233.349 340.349 227.06 C 337.279 221.009 333.937 215.105 331.862 208.223 C 331.266 206.246 330.806 204.198 330.585 202.072 C 330.681 202.027 330.759 202.064 330.819 202.182 Z" stroke-linecap="round"/>
</g>
		<g transform="matrix(1 0 0 1 126.5111 85.5116)" id="Thi Succs!_2">
<path style="stroke: none; stroke-width: 1; stroke-dasharray: none; stroke-linecap: butt; stroke-dashoffset: 0; stroke-linejoin: miter; stroke-miterlimit: 4; is-custom-font: none; font-file-url: none; fill: rgb(137,197,204); fill-rule: evenodd; opacity: 1;" transform=" translate(-339.5111, -273.5116)" d="M 329.337 227.69 C 330.414 228.468 331.016 229.607 331.743 230.73 C 332.648 232.126 333.712 233.386 334.617 234.783 C 336.504 237.696 338.162 240.788 339.881 243.819 C 343.147 249.572 345.626 255.703 346.854 262.359 C 348.126 269.256 348.47 276.375 349.003 283.375 C 349.57 290.795 350.14 298.268 350.215 305.716 C 350.248 309.053 350.429 312.595 350.028 315.909 C 349.779 317.971 348.849 319.729 346.752 319.713 C 342.297 319.677 340.205 314.74 339.331 310.69 C 338.045 304.728 337.789 298.394 337.992 292.296 C 338.238 284.944 339.513 277.701 340.065 270.377 C 340.65 262.623 340.32 255.007 337.656 247.706 C 336.31 244.017 334.748 240.416 333.345 236.751 C 332.748 235.19 332.259 233.588 331.452 232.135 C 330.555 230.518 329.441 229.051 328.738 227.31 C 328.938 227.437 329.137 227.564 329.337 227.69 Z" stroke-linecap="round"/>
</g>
		<g transform="matrix(1 0 0 1 162.5244 68.8793)" id="Thi Succs!_3">
<path style="stroke: none; stroke-width: 1; stroke-dasharray: none; stroke-linecap: butt; stroke-dashoffset: 0; stroke-linejoin: miter; stroke-miterlimit: 4; is-custom-font: none; font-file-url: none; fill: rgb(193,222,226); fill-rule: evenodd; opacity: 1;" transform=" translate(-375.5244, -256.8793)" d="M 380.655 212.229 C 380.792 212.123 380.928 212.016 381.065 211.91 C 380.672 213.569 379.961 214.916 379.418 216.432 C 378.929 217.795 378.682 219.338 378.353 220.828 C 377.581 224.327 376.688 227.748 375.959 231.277 C 374.515 238.261 374.788 245.785 375.735 253.533 C 376.629 260.852 378.044 268.16 378.718 275.478 C 379.277 281.546 379.517 287.804 378.984 293.594 C 378.622 297.527 377.434 302.222 374.2 301.825 C 372.677 301.638 371.883 299.804 371.562 297.733 C 371.048 294.408 370.941 290.911 370.74 287.605 C 370.293 280.224 370.204 272.865 370.116 265.56 C 370.032 258.668 369.802 251.639 370.262 244.921 C 370.706 238.437 372.095 232.596 374.08 227.205 C 375.125 224.366 376.121 221.459 377.296 218.753 C 377.86 217.455 378.548 216.307 379.111 215.01 C 379.565 213.967 379.925 212.896 380.655 212.229 Z" stroke-linecap="round"/>
</g>
		<g transform="matrix(1 0 0 1 124.6642 95.9839)" id="Thi Succs!_4">
<path style="stroke: none; stroke-width: 1; stroke-dasharray: none; stroke-linecap: butt; stroke-dashoffset: 0; stroke-linejoin: miter; stroke-miterlimit: 4; is-custom-font: none; font-file-url: none; fill: rgb(193,222,226); fill-rule: evenodd; opacity: 1;" transform=" translate(-337.6642, -283.9839)" d="M 330.713 249.057 C 331.302 248.067 332.599 251.331 332.796 251.741 C 332.713 251.537 332.629 251.333 332.544 251.13 C 333.714 253.075 334.783 255.101 335.449 257.331 C 336.107 259.54 336.672 261.793 337.289 264.017 C 338.448 268.19 339.943 272.244 340.993 276.455 C 342.016 280.558 342.274 284.591 342.026 288.835 C 341.769 293.246 341.611 297.725 341.911 302.133 C 342.055 304.239 342.738 306.2 343.207 308.227 C 343.676 310.256 344.046 312.312 344.6 314.316 C 344.728 314.055 344.744 314.927 344.744 314.994 C 344.74 315.494 344.67 315.914 344.509 316.389 C 344.096 317.61 343.322 318.647 342.145 318.983 C 340.017 319.592 338.041 317.655 337.355 315.61 C 336.37 312.675 335.828 309.432 335.359 306.348 C 334.929 303.52 334.827 300.674 334.955 297.807 C 335.207 292.153 336.229 286.572 336.506 280.92 C 336.807 274.766 335.588 268.983 334.568 262.993 C 334.077 260.107 333.607 257.247 332.651 254.497 C 332.264 253.384 331.759 252.401 331.23 251.373 C 330.928 250.788 330.319 249.744 330.713 249.057 Z" stroke-linecap="round"/>
</g>
		<g transform="matrix(1 0 0 1 135.1296 80.5834)" id="Thi Succs!_5">
<path style="stroke: none; stroke-width: 1; stroke-dasharray: none; stroke-linecap: butt; stroke-dashoffset: 0; stroke-linejoin: miter; stroke-miterlimit: 4; is-custom-font: none; font-file-url: none; fill: rgb(105,161,172); fill-rule: evenodd; opacity: 1;" transform=" translate(-348.1296, -268.5834)" d="M 347.977 239.444 C 347.733 246.494 347.312 253.491 346.373 260.467 C 345.414 267.586 344.313 274.68 343.391 281.805 C 342.493 288.741 341.552 295.792 341.677 302.824 C 341.769 308.005 340.911 316.768 346.66 319.324 C 352.483 321.913 353.732 310.857 354.115 307.207 C 354.847 300.205 354.61 293.13 354.255 286.09 C 353.89 278.864 353.28 271.676 352.525 264.477 C 351.686 256.481 351.028 248.448 350.499 240.429 C 350.238 236.463 350.174 232.503 350.246 228.535 C 350.314 224.791 350.172 221.009 348.842 217.454 C 348.772 217.505 348.703 217.555 348.633 217.606" stroke-linecap="round"/>
</g>
		<g transform="matrix(1 0 0 1 162.8324 96.9082)" id="Thi Succs!_6">
<path style="stroke: none; stroke-width: 1; stroke-dasharray: none; stroke-linecap: butt; stroke-dashoffset: 0; stroke-linejoin: miter; stroke-miterlimit: 4; is-custom-font: none; font-file-url: none; fill: rgb(137,197,204); fill-rule: evenodd; opacity: 1;" transform=" translate(-375.8323, -284.9083)" d="M 378.038 261.78 C 376.991 263.306 375.935 264.818 374.946 266.435 C 373.177 269.328 371.576 272.545 371.095 276.682 C 370.088 285.339 370.896 294.69 371.091 303.612 C 371.131 305.435 370.9 307.203 371.619 308.939 C 372.27 310.512 373.487 311.711 374.648 311.705 C 377.132 311.69 376.753 305.603 376.757 302.924 C 376.764 298.228 376.238 293.484 376.283 288.792 C 376.329 284.144 376.611 279.483 377.284 275.069 C 377.966 270.601 378.965 266.31 380.283 262.306 C 380.465 261.75 381.778 257.457 380.538 258.197" stroke-linecap="round"/>
</g>
		<g transform="matrix(1 0 0 1 152.9826 79.9676)" id="Thi Succs!_7">
<path style="stroke: none; stroke-width: 1; stroke-dasharray: none; stroke-linecap: butt; stroke-dashoffset: 0; stroke-linejoin: miter; stroke-miterlimit: 4; is-custom-font: none; font-file-url: none; fill: rgb(105,161,172); fill-rule: evenodd; opacity: 1;" transform=" translate(-365.9825, -267.9676)" d="M 367.067 215.606 C 365.434 215.606 365.444 223.753 365.395 224.8 C 365.217 228.576 365.259 232.354 365.147 236.131 C 364.901 244.375 364.599 252.69 363.362 260.838 C 362.696 265.224 361.924 269.591 361.093 273.944 C 360.26 278.31 359.141 282.67 358.593 287.091 C 358.067 291.341 358.364 295.674 358.436 299.945 C 358.508 304.242 358.638 308.547 359.201 312.806 C 359.34 313.857 359.502 314.905 359.676 315.95 C 359.822 316.82 359.737 317.9 359.982 318.728 C 360.376 320.053 362.063 320.487 363.199 320.28 C 366.272 319.718 368.235 315.857 369.285 313.035 C 370.626 309.432 371.337 305.524 372.039 301.728 C 372.835 297.426 373.301 293.059 373.52 288.68 C 373.964 279.78 373.394 270.87 372.757 261.998 C 372.402 257.064 371.993 252.152 371.367 247.249 C 370.743 242.366 369.942 237.506 369.421 232.609 C 369.043 229.05 368.67 225.487 368.424 221.915 C 368.366 221.063 368.316 215.606 367.067 215.606 Z" stroke-linecap="round"/>
</g>
		<g transform="matrix(1 0 0 1 143.7484 72.8834)" id="Thi Succs!_8">
<path style="stroke: none; stroke-width: 1; stroke-dasharray: none; stroke-linecap: butt; stroke-dashoffset: 0; stroke-linejoin: miter; stroke-miterlimit: 4; is-custom-font: none; font-file-url: none; fill: rgb(137,197,204); fill-rule: evenodd; opacity: 1;" transform=" translate(-356.7485, -260.8834)" d="M 365.023 274.829 C 364.756 266.275 361.32 228.702 360.538 218.358 C 360.343 215.769 358.461 204.989 358.216 202.054 C 357.554 202.883 357.611 215.797 357.618 218.764 C 357.626 221.699 357.262 224.585 357.075 227.505 C 356.884 230.483 352.483 268.954 351.912 271.816 C 350.776 277.51 350.016 283.353 349.429 289.175 C 348.858 294.85 347.97 300.837 348.734 306.541 C 348.91 307.855 349.188 309.147 349.641 310.353 C 350.13 311.657 350.465 312.862 350.858 314.226 C 351.49 316.423 352.633 318.351 354.389 319.258 C 357.99 321.118 359.924 316.908 360.904 313.243 C 362.469 307.389 363.474 301.44 363.945 295.293 C 364.466 288.492 365.236 281.677 365.023 274.829 Z" stroke-linecap="round"/>
</g>
		<g transform="matrix(1 0 0 1 141.9015 140.029)" id="Vase">
<path style="stroke: none; stroke-width: 1; stroke-dasharray: none; stroke-linecap: butt; stroke-dashoffset: 0; stroke-linejoin: miter; stroke-miterlimit: 4; is-custom-font: none; font-file-url: none; fill: rgb(255,255,255); fill-rule: nonzero; opacity: 1;" transform=" translate(-354.9015, -328.029)" d="M 381.681 300 H 328.122 C 327.442 300 326.891 300.552 326.891 301.232 V 354.826 C 326.891 355.506 327.442 356.058 328.122 356.058 H 381.681 C 382.361 356.058 382.912 355.506 382.912 354.826 V 301.232 C 382.912 300.552 382.361 300 381.681 300 Z" stroke-linecap="round"/>
</g>
		<g transform="matrix(1 0 0 1 110.813 152.9655)" id="Leg">
<path style="stroke: none; stroke-width: 1; stroke-dasharray: none; stroke-linecap: butt; stroke-dashoffset: 0; stroke-linejoin: miter; stroke-miterlimit: 4; is-custom-font: none; font-file-url: none; fill: rgb(197,207,214); fill-rule: nonzero; opacity: 1;" transform=" translate(-323.813, -340.9655)" d="M 325.66 306.161 H 321.966 C 321.286 306.161 320.735 306.712 320.735 307.393 V 374.538 C 320.735 375.219 321.286 375.77 321.966 375.77 H 325.66 C 326.34 375.77 326.891 375.219 326.891 374.538 V 307.393 C 326.891 306.712 326.34 306.161 325.66 306.161 Z" stroke-linecap="round"/>
</g>
		<g transform="matrix(1 0 0 1 141.594 152.9655)" id="Leg_2">
<path style="stroke: none; stroke-width: 1; stroke-dasharray: none; stroke-linecap: butt; stroke-dashoffset: 0; stroke-linejoin: miter; stroke-miterlimit: 4; is-custom-font: none; font-file-url: none; fill: rgb(197,207,214); fill-rule: nonzero; opacity: 1;" transform=" translate(-354.594, -340.9655)" d="M 356.44 306.161 H 352.747 C 352.067 306.161 351.516 306.712 351.516 307.393 V 374.538 C 351.516 375.219 352.067 375.77 352.747 375.77 H 356.44 C 357.12 375.77 357.672 375.219 357.672 374.538 V 307.393 C 357.672 306.712 357.12 306.161 356.44 306.161 Z" stroke-linecap="round"/>
</g>
		<g transform="matrix(1 0 0 1 172.99 152.9655)" id="Leg_3">
<path style="stroke: none; stroke-width: 1; stroke-dasharray: none; stroke-linecap: butt; stroke-dashoffset: 0; stroke-linejoin: miter; stroke-miterlimit: 4; is-custom-font: none; font-file-url: none; fill: rgb(197,207,214); fill-rule: nonzero; opacity: 1;" transform=" translate(-385.99, -340.9655)" d="M 387.837 306.161 H 384.143 C 383.463 306.161 382.912 306.712 382.912 307.393 V 374.538 C 382.912 375.219 383.463 375.77 384.143 375.77 H 387.837 C 388.517 375.77 389.068 375.219 389.068 374.538 V 307.393 C 389.068 306.712 388.517 306.161 387.837 306.161 Z" stroke-linecap="round"/>
</g>
</g>
</g>
<g transform="matrix(0.8136 0 0 0.8136 261.3248 255.2591)" id="937754">
<g style="" vector-effect="non-scaling-stroke">
		<g transform="matrix(1 0 0 1 -3.9423 -61.0313)" id="Vector">
<path style="stroke: none; stroke-width: 1; stroke-dasharray: none; stroke-linecap: butt; stroke-dashoffset: 0; stroke-linejoin: miter; stroke-miterlimit: 4; is-custom-font: none; font-file-url: none; fill: rgb(178,139,103); fill-rule: evenodd; opacity: 1;" transform=" translate(-103.0578, -51.4688)" d="M 110.231 50.3382 C 112.826 47.2958 114.583 43.5672 114.289 39.3893 C 113.443 27.3516 96.6668 29.9997 93.4034 36.0753 C 90.14 42.151 90.5278 57.5623 94.7455 58.6482 C 96.4274 59.0812 100.011 58.0204 103.657 55.8249 L 101.368 72 H 114.884 L 110.231 50.3382 Z" stroke-linecap="round"/>
</g>
		<g transform="matrix(1 0 0 1 -7.0396 -69.1875)" id="Front">
<path style="stroke: none; stroke-width: 1; stroke-dasharray: none; stroke-linecap: butt; stroke-dashoffset: 0; stroke-linejoin: miter; stroke-miterlimit: 4; is-custom-font: none; font-file-url: none; fill: rgb(44,44,44); fill-rule: evenodd; opacity: 1;" transform=" translate(-99.9604, -43.3125)" d="M 96.4492 32.069 C 96.7588 31.8844 97.4065 31.4951 97.7346 31.354 C 97.8123 31.3201 98.356 30.9326 98.3706 30.9375 C 98.7822 31.0763 99.9742 31.5884 100.077 32.0309 C 100.092 32.0645 100.108 32.0959 100.123 32.1234 C 100.292 32.4301 100.447 32.7444 100.595 33.0626 C 100.919 33.7609 101.199 34.4908 101.467 35.2149 C 101.988 36.6252 102.44 38.0684 102.856 39.5149 C 103.28 40.9873 103.64 42.477 104.042 43.9555 C 104.621 46.0831 105.363 48.1584 105.938 50.2851 C 106.305 51.643 106.509 53.0169 106.413 54.4145 C 106.412 54.4313 106.412 54.4479 106.41 54.4649 C 106.409 54.4719 106.409 54.4788 106.408 54.4858 C 106.392 54.7007 106.368 54.916 106.337 55.132 C 106.31 55.3168 106.282 55.5021 106.253 55.6875 C 105.728 54.641 105.327 53.4879 104.901 52.3935 C 104.859 52.2864 104.82 52.1784 104.781 52.0702 C 104.644 51.8482 104.504 51.6279 104.362 51.4083 C 103.47 50.024 102.574 48.6448 101.718 47.2354 C 100.179 44.7006 98.6537 42.1122 96.8287 39.7845 C 96.2899 39.0971 95.7385 38.4203 95.2064 37.7273 C 94.9036 37.3329 94.6087 36.932 94.3233 36.5239 C 94.1193 36.2321 93.2324 35.2149 93.5536 34.6038 C 93.7179 34.2912 95.6461 32.5478 96.4492 32.069 Z" stroke-linecap="round"/>
</g>
		<g transform="matrix(1 0 0 1 4.0954 -61.6666)" id="Turban">
<path style="stroke: none; stroke-width: 1; stroke-dasharray: none; stroke-linecap: butt; stroke-dashoffset: 0; stroke-linejoin: miter; stroke-miterlimit: 4; is-custom-font: none; font-file-url: none; fill: rgb(137,145,220); fill-rule: evenodd; opacity: 1;" transform=" translate(-111.0954, -50.8333)" d="M 97.6369 31.405 C 97.3358 31.5061 97.4823 30.8803 97.7739 30.6601 C 99.1248 29.64 104.29 29.2698 108.784 30.2017 C 111.795 30.826 115.297 32.3798 117.702 34.3774 C 119.87 36.1783 121.361 39.0651 122.128 41.8543 C 122.934 44.783 123.056 47.8363 122.607 50.8395 C 122.509 51.4992 122.297 52.1278 122.179 52.7735 C 122.046 53.5007 121.977 54.2007 121.74 54.9082 C 121.595 55.3413 121.348 55.7659 121.225 56.2014 C 121.083 56.6984 121.169 57.1582 121.272 57.6638 C 121.441 58.4877 121.649 59.31 121.945 60.0969 C 122.39 61.2786 122.929 62.3853 123.268 63.6116 C 123.718 65.2432 125.601 70.5528 124.225 72 H 98.0275 C 98.6872 70.2027 100.667 68.0874 101.068 66.1634 C 101.304 65.03 101.417 62.5548 101.441 62.4649 C 102.032 58.4001 103.184 56.4589 103.906 55.7545 C 104.628 55.05 105.59 54.8334 105.639 54.2224 C 105.844 51.6951 104.838 49.2735 104.1 46.9148 C 103.221 44.1037 102.577 41.2228 101.67 38.4211 C 101.269 37.1805 99.2001 30.8803 97.6369 31.405 Z" stroke-linecap="round"/>
</g>
		<g transform="matrix(1 0 0 1 5.8835 -62.7169)" id="Shade">
<path style="stroke: none; stroke-width: 1; stroke-dasharray: none; stroke-linecap: butt; stroke-dashoffset: 0; stroke-linejoin: miter; stroke-miterlimit: 4; is-custom-font: none; font-file-url: none; fill: rgb(0,0,0); fill-opacity: 0.2; fill-rule: evenodd; opacity: 1;" transform=" translate(-112.8835, -49.7831)" d="M 106.822 34.3125 C 107.81 37.4433 108.022 39.1146 107.81 43.3924 H 108.294 C 109.2 39.3554 108.394 35.555 107.431 34.3125 H 106.822 Z M 120.075 42.3924 C 118.234 46.8542 117.395 49.489 112.254 53.0995 L 112.651 53.3772 C 117.755 50.4882 119.241 47.0422 120.463 42.5783 L 120.075 42.3924 Z M 112.511 37.8519 C 111.675 44.185 111.431 47.8024 107.075 54.7299 L 107.539 54.8714 C 112.022 48.8397 112.732 43.9167 112.944 37.8867 L 112.511 37.8519 Z M 117.323 56.6642 L 116.926 56.1827 C 111.516 57.8754 112.119 61.3701 105.304 64.9092 L 105.874 65.2538 C 111.841 62.7942 113.235 57.5186 117.323 56.6642 Z" stroke-linecap="round"/>
</g>
		<g transform="matrix(1 0 0 1 15.4866 64.687)" id="Seat Stuff">
<path style="stroke: none; stroke-width: 1; stroke-dasharray: none; stroke-linecap: butt; stroke-dashoffset: 0; stroke-linejoin: miter; stroke-miterlimit: 4; is-custom-font: none; font-file-url: none; fill: rgb(197,207,214); fill-rule: evenodd; opacity: 1;" transform=" translate(-122.4866, -177.187)" d="M 139.312 142.312 H 95.8059 L 90.1052 212.062 H 154.868 L 139.312 142.312 Z" stroke-linecap="round"/>
</g>
		<g transform="matrix(1 0 0 1 29.3955 64.687)" id="Seat Stuff_2">
<path style="stroke: none; stroke-width: 1; stroke-dasharray: none; stroke-linecap: butt; stroke-dashoffset: 0; stroke-linejoin: miter; stroke-miterlimit: 4; is-custom-font: none; font-file-url: none; fill: rgb(0,0,0); fill-opacity: 0.1; fill-rule: evenodd; opacity: 1;" transform=" translate(-136.3955, -177.187)" d="M 139.312 142.312 H 125.932 L 117.923 212.062 H 154.868 L 139.312 142.312 Z" stroke-linecap="round"/>
</g>
		<g transform="matrix(1 0 0 1 -47.89 55.9011)" id="Skin">
<path style="stroke: none; stroke-width: 1; stroke-dasharray: none; stroke-linecap: butt; stroke-dashoffset: 0; stroke-linejoin: miter; stroke-miterlimit: 4; is-custom-font: none; font-file-url: none; fill: rgb(178,139,103); fill-rule: evenodd; opacity: 1;" transform=" translate(-59.11, -168.4011)" d="M 46.2052 130.363 C 41.5666 127.581 33.7841 131.155 33.7895 135.134 C 33.8054 147.039 44.6828 203.147 45.2507 206.694 C 45.8186 210.241 51.9025 211.178 52.2568 206.706 C 52.8205 199.59 53.8678 174.956 52.8199 163.554 C 52.3874 158.847 51.9216 154.365 51.463 150.366 C 57.1707 160.662 65.998 175.402 77.9449 194.588 L 84.4305 191.628 C 79.3376 174.868 75.1614 163.035 71.9021 156.131 C 66.3213 144.309 61.0884 134.185 58.886 130.619 C 55.4217 125.01 49.3915 126.967 46.2052 130.363 Z" stroke-linecap="round"/>
</g>
		<g transform="matrix(1 0 0 1 -43.4723 44.446)" id="LegLower">
<path style="stroke: none; stroke-width: 1; stroke-dasharray: none; stroke-linecap: butt; stroke-dashoffset: 0; stroke-linejoin: miter; stroke-miterlimit: 4; is-custom-font: none; font-file-url: none; fill: rgb(31,40,207); fill-rule: evenodd; opacity: 1;" transform=" translate(-63.5277, -156.946)" d="M 83.9669 182.32 L 61.7066 129.649 C 56.3739 121.081 41.4224 131.393 43.2409 136.362 C 47.3697 147.645 68.3675 184.171 69.5975 187.532 L 83.9669 182.32 Z" stroke-linecap="round"/>
</g>
		<g transform="matrix(1 0 0 1 -31.9839 87.0564)" id="shoe">
<path style="stroke: none; stroke-width: 1; stroke-dasharray: none; stroke-linecap: butt; stroke-dashoffset: 0; stroke-linejoin: miter; stroke-miterlimit: 4; is-custom-font: none; font-file-url: none; fill: rgb(228,228,228); fill-rule: evenodd; opacity: 1;" transform=" translate(-75.0161, -199.5565)" d="M 85.2012 188.308 C 86.5881 189.448 87.4904 190.38 87.9081 191.103 C 88.4161 191.981 89.0109 193.348 89.6926 195.203 C 88.6724 195.791 79.5041 201.078 62.1876 211.062 C 60.1078 209.113 59.7835 207.601 61.2146 206.524 C 62.6457 205.448 63.8267 204.541 64.7576 203.801 L 74.2492 190.735 C 74.4319 190.484 74.784 190.428 75.0358 190.61 C 75.0401 190.613 75.0444 190.617 75.0486 190.62 L 77.0219 192.138 C 78.8317 191.981 80.1823 191.645 81.0736 191.131 C 81.7977 190.714 82.6288 189.845 83.5669 188.524 L 83.5669 188.524 C 83.9269 188.018 84.63 187.899 85.1373 188.259 C 85.1592 188.274 85.1805 188.291 85.2012 188.308 Z" stroke-linecap="round"/>
</g>
		<g transform="matrix(1 0 0 1 -68.7053 93.75)" id="shoe_2">
<path style="stroke: none; stroke-width: 1; stroke-dasharray: none; stroke-linecap: butt; stroke-dashoffset: 0; stroke-linejoin: miter; stroke-miterlimit: 4; is-custom-font: none; font-file-url: none; fill: rgb(228,228,228); fill-rule: evenodd; opacity: 1;" transform=" translate(-38.2947, -206.2499)" d="M 53.6812 203.851 C 54.3113 205.531 54.6263 206.788 54.6263 207.622 C 54.6263 208.636 54.4571 210.116 54.1187 212.063 C 52.9406 212.063 42.3529 212.063 22.3556 212.063 C 21.5302 209.337 22.0067 207.865 23.785 207.648 C 25.5634 207.431 27.0407 207.235 28.217 207.059 L 42.9802 200.486 C 43.2643 200.359 43.5972 200.487 43.7238 200.77 C 43.726 200.775 43.7281 200.78 43.7301 200.785 L 44.6791 203.084 C 46.3254 203.852 47.6632 204.235 48.6925 204.235 C 49.5287 204.235 50.6836 203.898 52.1571 203.223 L 52.1571 203.223 C 52.7226 202.964 53.3911 203.212 53.6504 203.777 C 53.6615 203.801 53.6718 203.826 53.6812 203.851 Z" stroke-linecap="round"/>
</g>
		<g transform="matrix(1 0 0 1 -26.6853 42.987)" id="Leg and Butt">
<path style="stroke: none; stroke-width: 1; stroke-dasharray: none; stroke-linecap: butt; stroke-dashoffset: 0; stroke-linejoin: miter; stroke-miterlimit: 4; is-custom-font: none; font-file-url: none; fill: rgb(13,110,253); fill-rule: evenodd; opacity: 1;" transform=" translate(-80.3147, -155.487)" d="M 32.2293 139.181 C 32.2293 154.125 39.3345 188.983 39.339 192.274 L 54.6263 192.286 C 52.3887 161.182 51.5953 145.462 52.246 145.127 C 53.2221 144.625 92.2588 149.02 103.967 149.02 C 120.849 149.02 127.833 138.386 128.4 118.688 H 94.9561 C 88.1466 119.415 52.6277 126.571 39.4367 129.031 C 33.7894 130.084 32.2293 135.064 32.2293 139.181 Z" stroke-linecap="round"/>
</g>
		<g transform="matrix(1 0 0 1 -4.3014 15.0769)" id="Skin_2">
<path style="stroke: none; stroke-width: 1; stroke-dasharray: none; stroke-linecap: butt; stroke-dashoffset: 0; stroke-linejoin: miter; stroke-miterlimit: 4; is-custom-font: none; font-file-url: none; fill: rgb(178,139,103); fill-rule: evenodd; opacity: 1;" transform=" translate(-102.6986, -127.5769)" d="M 66.738 111.634 L 50.785 127.179 C 46.1432 129.156 42.3399 131.34 39.3752 133.73 C 38.7084 134.533 37.9826 136.072 41.1195 135.383 C 44.2565 134.695 47.5871 134.111 48.1766 135.13 C 48.7662 136.149 47.029 137.711 48.1186 139.044 C 48.845 139.933 51.288 137.105 55.4475 130.561 L 72.0366 120.791 L 66.738 111.634 Z M 144.749 97.5655 L 132.417 97.6117 C 141.809 128.006 146.795 143.92 147.374 145.353 C 148.677 148.579 145.919 153.491 144.74 156.131 C 148.581 157.848 148.172 151.491 153.017 153.742 C 157.439 155.797 160.803 159.521 165.912 156.372 C 166.541 155.985 167.229 154.527 165.566 153.388 C 161.422 150.55 155.451 145.583 154.644 143.948 C 153.544 141.719 150.245 126.258 144.749 97.5655 Z" stroke-linecap="round"/>
</g>
		<g transform="matrix(1 0 0 1 -27.108 -17.1841)" id="Clothes Back">
<path style="stroke: none; stroke-width: 1; stroke-dasharray: none; stroke-linecap: butt; stroke-dashoffset: 0; stroke-linejoin: miter; stroke-miterlimit: 4; is-custom-font: none; font-file-url: none; fill: rgb(219,39,33); fill-rule: evenodd; opacity: 1;" transform=" translate(-79.892, -95.3159)" d="M 107.172 62.6243 L 102.302 61.79 C 94.6308 88.8754 55.2161 107.338 52.7965 117.463 C 51.9092 121.176 54.5847 123.053 53.2026 124.184 L 59.5323 128.813 C 60.6041 127.563 62.8915 129.848 67.6683 128.25 C 72.445 126.652 107.172 94.6957 107.172 62.6243 Z" stroke-linecap="round"/>
</g>
		<g transform="matrix(1 0 0 1 12.5916 -12.2871)" id="Clothes Front">
<path style="stroke: none; stroke-width: 1; stroke-dasharray: none; stroke-linecap: butt; stroke-dashoffset: 0; stroke-linejoin: miter; stroke-miterlimit: 4; is-custom-font: none; font-file-url: none; fill: rgb(239,78,66); fill-rule: evenodd; opacity: 1;" transform=" translate(-119.5916, -100.213)" d="M 98.9802 66.2252 C 99.5416 102.084 78.7881 111.231 83.4108 125.617 C 87.2282 137.496 123.767 150.266 130.089 138.621 C 132.649 133.908 133.81 128.207 133.942 122.009 C 135.558 126.771 136.836 130.87 137.776 134.307 C 139.398 140.235 145.685 141.178 145.685 143.462 L 153.969 141.178 C 153.407 138.075 157.313 136.564 156.265 129.632 C 151.574 98.5722 138.969 76.058 118.449 62.0892 L 118.237 59.057 C 118.15 57.8174 117.074 56.8828 115.833 56.9695 L 100.665 58.0289 C 99.4235 58.1156 98.4877 59.1907 98.5745 60.4304 L 98.9802 66.2252 Z" stroke-linecap="round"/>
</g>
</g>
</g>
<g transform="matrix(0.8115 0 0 0.8115 125.7955 230.6502)" id="778622">
<g style="" vector-effect="non-scaling-stroke">
		<g transform="matrix(1 0 0 1 14.9033 -79.8489)" id="Vector">
<path style="stroke: none; stroke-width: 1; stroke-dasharray: none; stroke-linecap: butt; stroke-dashoffset: 0; stroke-linejoin: miter; stroke-miterlimit: 4; is-custom-font: none; font-file-url: none; fill: rgb(212,161,129); fill-rule: evenodd; opacity: 1;" transform=" translate(-121.9033, -55.1512)" d="M 116.604 52.2865 C 114.814 48.5224 114.054 44.2927 115.48 40.1623 C 119.587 28.2612 135.763 35.4466 137.405 42.4468 C 139.048 49.4471 134.488 64.8705 129.948 64.829 C 128.137 64.8124 124.816 62.7788 121.738 59.5848 L 119.668 76.4985 L 106.059 72.8592 L 116.604 52.2865 Z" stroke-linecap="round"/>
</g>
		<g transform="matrix(1 0 0 1 6.9075 -91.7281)" id="hair">
<path style="stroke: none; stroke-width: 1; stroke-dasharray: none; stroke-linecap: butt; stroke-dashoffset: 0; stroke-linejoin: miter; stroke-miterlimit: 4; is-custom-font: none; font-file-url: none; fill: rgb(25,24,71); fill-rule: evenodd; opacity: 1;" transform=" translate(-113.9075, -43.2719)" d="M 121.537 52.6936 C 118.98 55.4801 115.991 57.294 113.658 56.6701 C 109.228 55.485 107.666 48.7233 109.375 42.3593 C 109.435 42.1357 109.499 41.9148 109.567 41.6967 C 104.017 43.6568 98.7052 49.0253 92.5041 47.3666 C 84.0675 45.1099 85.2812 27.2093 97.0683 30.3622 C 105.084 32.5064 108.714 34.729 111.649 37.365 C 112.826 35.6562 114.274 34.3421 115.821 33.5678 C 116.212 33.31 116.76 33.1098 117.435 32.9689 C 117.852 32.8673 118.272 32.8061 118.691 32.7877 C 120.943 32.5833 124.053 32.8465 127.4 33.6177 C 128.025 33.7617 128.635 33.918 129.226 34.0847 C 130.074 30.9651 133.288 29.1153 136.415 29.9517 C 139.548 30.7896 141.406 34.0066 140.566 37.137 C 139.753 40.1644 136.714 42.0022 133.682 41.362 C 131.83 41.4318 129.528 41.2312 127.048 40.7427 C 127.046 41.6951 126.903 42.7396 126.597 43.881 C 126.326 44.8889 125.928 45.928 125.432 46.9585 C 125.072 46.1893 124.475 45.5906 123.757 45.3988 C 121.751 44.862 119.911 46.1379 119.441 47.8893 C 118.845 50.1121 119.697 52.0636 121.537 52.6936 Z" stroke-linecap="round"/>
</g>
		<g transform="matrix(1 0 0 1 2.5865 54.5325)" id="Leg">
<path style="stroke: none; stroke-width: 1; stroke-dasharray: none; stroke-linecap: butt; stroke-dashoffset: 0; stroke-linejoin: miter; stroke-miterlimit: 4; is-custom-font: none; font-file-url: none; fill: rgb(186,139,114); fill-rule: evenodd; opacity: 1;" transform=" translate(-109.5865, -189.5325)" d="M 88.6921 124.71 L 110.206 198.758 L 120.325 254.355 H 130.481 L 120.343 124.71 H 88.6921 Z" stroke-linecap="round"/>
</g>
		<g transform="matrix(1 0 0 1 -16.6055 55.119)" id="Leg_2">
<path style="stroke: none; stroke-width: 1; stroke-dasharray: none; stroke-linecap: butt; stroke-dashoffset: 0; stroke-linejoin: miter; stroke-miterlimit: 4; is-custom-font: none; font-file-url: none; fill: rgb(212,161,129); fill-rule: evenodd; opacity: 1;" transform=" translate(-90.3945, -190.119)" d="M 79.0236 124.71 C 80.5247 163.178 79.9327 184.159 79.5967 187.654 C 79.2607 191.149 77.3534 214.556 64.356 255.528 H 74.9196 C 92.1325 216.222 98.1414 192.815 100.116 187.654 C 102.09 182.493 107.92 161.511 116.433 124.71 H 79.0236 Z" stroke-linecap="round"/>
</g>
		<g transform="matrix(1 0 0 1 3.2554 50.7195)" id="Pant">
<path style="stroke: none; stroke-width: 1; stroke-dasharray: none; stroke-linecap: butt; stroke-dashoffset: 0; stroke-linejoin: miter; stroke-miterlimit: 4; is-custom-font: none; font-file-url: none; fill: rgb(105,161,172); fill-rule: evenodd; opacity: 1;" transform=" translate(-110.2554, -185.7195)" d="M 88.2302 124.71 C 93.8263 150.19 103.505 190.863 117.267 246.729 H 132.122 C 133.219 189.388 128.551 151.648 120.469 124.71 H 88.2302 Z" stroke-linecap="round"/>
</g>
		<g transform="matrix(1 0 0 1 -15.2433 51.019)" id="Pant_2">
<path style="stroke: none; stroke-width: 1; stroke-dasharray: none; stroke-linecap: butt; stroke-dashoffset: 0; stroke-linejoin: miter; stroke-miterlimit: 4; is-custom-font: none; font-file-url: none; fill: rgb(137,197,204); fill-rule: evenodd; opacity: 1;" transform=" translate(-91.7567, -186.019)" d="M 78.9486 124.71 C 80.4188 163.178 76.6087 201.076 64.8064 247.328 H 80.6558 C 97.9004 208.608 110.26 170.897 118.707 124.71 H 78.9486 Z" stroke-linecap="round"/>
</g>
		<g transform="matrix(1 0 0 1 -26.5299 123.7545)" id="Shoe">
<path style="stroke: none; stroke-width: 1; stroke-dasharray: none; stroke-linecap: butt; stroke-dashoffset: 0; stroke-linejoin: miter; stroke-miterlimit: 4; is-custom-font: none; font-file-url: none; fill: rgb(25,24,71); fill-rule: evenodd; opacity: 1;" transform=" translate(-80.4701, -258.7545)" d="M 62.8503 263.154 L 63.4332 253.768 C 66.8458 254.765 71.1201 254.374 76.2562 252.595 C 81.7788 256.502 88.7309 259.17 97.1127 260.599 V 260.599 C 97.7522 260.708 98.1821 261.314 98.073 261.953 C 98.0659 261.994 98.0566 262.035 98.0452 262.076 L 97.2393 264.914 H 76.2562 H 64.0161 L 62.8503 263.154 Z" stroke-linecap="round"/>
</g>
		<g transform="matrix(1 0 0 1 28.6779 123.7545)" id="Shoe_2">
<path style="stroke: none; stroke-width: 1; stroke-dasharray: none; stroke-linecap: butt; stroke-dashoffset: 0; stroke-linejoin: miter; stroke-miterlimit: 4; is-custom-font: none; font-file-url: none; fill: rgb(25,24,71); fill-rule: evenodd; opacity: 1;" transform=" translate(-135.6779, -258.7545)" d="M 118.058 263.154 L 118.641 253.768 C 122.053 254.765 126.328 254.374 131.464 252.595 C 136.986 256.502 143.938 259.17 152.32 260.599 L 152.32 260.599 C 152.96 260.708 153.39 261.314 153.281 261.953 C 153.273 261.994 153.264 262.035 153.253 262.076 L 152.447 264.914 H 131.464 H 119.224 L 118.058 263.154 Z" stroke-linecap="round"/>
</g>
		<g transform="matrix(1 0 0 1 52.0452 -38.9159)" id="Skin">
<path style="stroke: none; stroke-width: 1; stroke-dasharray: none; stroke-linecap: butt; stroke-dashoffset: 0; stroke-linejoin: miter; stroke-miterlimit: 4; is-custom-font: none; font-file-url: none; fill: rgb(212,161,129); fill-rule: evenodd; opacity: 1;" transform=" translate(-159.0452, -96.084)" d="M 130.718 91.7363 L 152.733 84.2839 C 156.77 80.9107 160.603 78.4134 164.23 76.7922 C 165.293 76.5535 167.068 76.6082 164.942 79.1945 C 162.816 81.7808 160.695 84.5967 161.364 85.6265 C 162.033 86.6562 164.308 85.7824 165.032 87.4253 C 165.515 88.5206 161.728 89.45 153.67 90.2136 L 136.727 100.991 L 130.718 91.7363 Z M 160.52 106.538 L 170.192 103.25 C 172.26 98.7634 174.158 96.6571 175.883 96.9304 C 177.314 96.5485 173.962 102.087 176.559 102.013 C 179.155 101.938 186.074 98.4697 186.965 99.5779 C 188.283 101.217 186.152 105.165 184.146 106.962 C 180.396 110.32 177.626 111.207 171.053 111.85 C 167.617 112.186 163.752 113.392 159.46 115.467 L 160.52 106.538 Z" stroke-linecap="round"/>
</g>
		<g transform="matrix(1 0 0 1 27.7957 -41.8548)" id="Sleeve">
<path style="stroke: none; stroke-width: 1; stroke-dasharray: none; stroke-linecap: butt; stroke-dashoffset: 0; stroke-linejoin: miter; stroke-miterlimit: 4; is-custom-font: none; font-file-url: none; fill: rgb(32,38,162); fill-rule: evenodd; opacity: 1;" transform=" translate(-134.7956, -93.1452)" d="M 121.372 87.5639 C 128.416 88.7272 138.054 88.8935 149.179 84.3085 L 151.562 93.7556 C 143.452 99.3846 132.756 103.3 124.314 101.568 C 117.662 100.204 115.672 91.5207 121.372 87.5639 Z" stroke-linecap="round"/>
</g>
		<g transform="matrix(1 0 0 1 15.6374 -29.1063)" id="Clothes">
<path style="stroke: none; stroke-width: 1; stroke-dasharray: none; stroke-linecap: butt; stroke-dashoffset: 0; stroke-linejoin: miter; stroke-miterlimit: 4; is-custom-font: none; font-file-url: none; fill: rgb(13,110,253); fill-rule: evenodd; opacity: 1;" transform=" translate(-122.6373, -105.8936)" d="M 128.361 103.266 C 135.497 106.439 148.401 106.449 167.074 103.294 C 169.841 113.069 170.721 119.846 169.714 123.624 C 153.252 128.838 139.715 130.072 129.031 128.43 C 128.255 134.8 126.425 140.668 122.874 145.7 C 115.573 156.043 86.3348 140.128 75.5203 140.345 C 72.7274 117.956 86.907 111.552 89.3179 97.9647 C 91.9581 83.0853 107.964 62.284 109.724 62.5936 L 125.77 65.4175 C 124.647 76.9384 126.89 90.248 128.361 103.266 Z" stroke-linecap="round"/>
</g>
</g>
</g>
</svg>