<svg xmlns="http://www.w3.org/2000/svg" xmlns:xlink="http://www.w3.org/1999/xlink" version="1.1" width="386" height="636" viewBox="0 0 386 636" xml:space="preserve">
<desc>Created with Fabric.js 3.5.0</desc>
<defs>
</defs>
<rect x="0" y="0" width="100%" height="100%" fill="#ffffff"/>
<g transform="matrix(0.3388 0 0 0.3388 193 170.8719)" id="520955">
<g style="" vector-effect="non-scaling-stroke">
		<g transform="matrix(1 0 0 1 41.395 -251.99)" id="vector">
<polygon style="stroke: none; stroke-width: 1; stroke-dasharray: none; stroke-linecap: butt; stroke-dashoffset: 0; stroke-linejoin: miter; stroke-miterlimit: 4; is-custom-font: none; font-file-url: none; fill: rgb(0,0,0); fill-rule: nonzero; opacity: 1;" points="12.465,67.395 17.935,53.235 9.585,52.435 7.155,31.135 2.415,10.075 -0.325,-10.115 -5.015,-30.395 -5.615,-33.385 -5.405,-60.635 -8.055,-68.945 -12.975,-74.725 -17.935,-72.635 -13.435,-61.365 -11.805,-44.965 -14.205,-32.465 -14.335,-30.675 -11.465,-9.685 -7.065,12.975 -3.035,34.365 2.265,56.715 4.565,74.725 13.035,71.435 12.465,67.395 "/>
</g>
		<g transform="matrix(1 0 0 1 36.37 -231.045)" id="vector">
<path style="stroke: none; stroke-width: 1; stroke-dasharray: none; stroke-linecap: butt; stroke-dashoffset: 0; stroke-linejoin: miter; stroke-miterlimit: 4; is-custom-font: none; font-file-url: none; fill: rgb(248,248,248); fill-rule: nonzero; opacity: 1;" transform=" translate(-435.1, -176.25)" d="M 445.24 229.3 h 0 l -10.83 -56.46 l -9.22 -49.72 l 0 -0.07 c -0.08 0.19 -0.15 0.39 -0.23 0.57 c 1.13 5.84 19.48 101 19.88 105.83 Z" stroke-linecap="round"/>
</g>
		<g transform="matrix(1 0 0 1 29.2718 -295.94)" id="vector">
<path style="stroke: none; stroke-width: 1; stroke-dasharray: none; stroke-linecap: butt; stroke-dashoffset: 0; stroke-linejoin: miter; stroke-miterlimit: 4; is-custom-font: none; font-file-url: none; fill: rgb(248,248,248); fill-rule: nonzero; opacity: 1;" transform=" translate(-428.0018, -111.355)" d="M 428 111.34 v -0.07 a 1 1 0 0 1 0 0.17 Z" stroke-linecap="round"/>
</g>
		<g transform="matrix(1 0 0 1 13.6236 -37.2752)" id="vector">
<path style="stroke: none; stroke-width: 1; stroke-dasharray: none; stroke-linecap: butt; stroke-dashoffset: 0; stroke-linejoin: miter; stroke-miterlimit: 4; is-custom-font: none; font-file-url: none; fill: rgb(248,248,248); fill-rule: nonzero; opacity: 1;" transform=" translate(-412.3536, -370.0198)" d="M 703.84 272.59 c -19.68 -33.74 -36.26 -63.2 -52.17 -89 c -63.11 -7.15 -99.54 -35.7 -131.16 -35.7 c -3.68 0 -9.4 1.5 -11.57 1.5 h 0 l -4.8 9 l 0.14 12.39 l 7.43 1.4 l 10 5.33 l 7.09 6.61 l 8.68 12.92 l -0.59 0.39 c 4.27 1.65 7.63 4.19 9.52 7.88 c 2.47 4.8 2.26 10.44 0.29 16.29 h 0 c 15.29 57.24 5.37 142.37 -0.34 147.1 c -8.64 7.16 -100.75 -17 -108.4 -27.66 c -3.18 -4.4 -2.53 -34.51 3.18 -68.27 l 0.73 -0.35 c -12.55 1.5 -23.82 0 -30.89 -7.05 c -16.12 -16.12 -8.22 -129.11 -7.34 -141 a 46.85 46.85 0 0 1 -3.7 -19.06 C 400 89.69 406.33 77 414.17 77 c 3.49 0 6.69 2.53 9.16 6.71 l -1 -2.4 l 3.68 0 l 3.87 2.58 l 5 9.07 l 1.24 6.93 l -0.38 24.67 l 14.62 84.1 l 8.88 -0.87 l 4.51 -10 l 9.77 -13.72 l 7.65 -8.33 v -5.28 h 0 c -14.84 -2.54 -26.4 -22.84 -26.4 -47.5 c 0 -1.86 0.06 -3.7 0.19 -5.5 l 0.84 -10.58 l 1.56 -3.49 c 0.07 -0.27 0.14 -0.54 0.22 -0.8 c -1.15 -0.63 -5 -4.17 -5 -16.37 c 0 -24 26.56 -36.9 48.83 -41.9 c -29.62 -12.8 -62.77 -22.73 -99.28 -30.8 C 327.68 -2.62 239.75 -11.07 186.53 28 S 114.82 153.14 84.44 248.61 c -30.6 95.46 -73.08 200.29 -51.15 296 c 21.69 95.47 108 181.8 202.58 193.9 s 197.33 -50 306.5 -91.35 S 767.1 585.48 792 522.45 S 751.34 353.67 703.84 272.59 Z M 290.3 607.48 H 232.74 l 39.06 -13.81 V 585.6 h 18.5 Z" stroke-linecap="round"/>
</g>
		<g transform="matrix(1 0 0 1 27.76 -315.995)" id="vector">
<path style="stroke: none; stroke-width: 1; stroke-dasharray: none; stroke-linecap: butt; stroke-dashoffset: 0; stroke-linejoin: miter; stroke-miterlimit: 4; is-custom-font: none; font-file-url: none; fill: rgb(248,248,248); fill-rule: nonzero; opacity: 1;" transform=" translate(-426.49, -91.3)" d="M 426.49 91.3 v 0 Z" stroke-linecap="round"/>
</g>
		<g transform="matrix(1 0 0 1 61.13 -310.2)" id="vector">
<path style="stroke: none; stroke-width: 1; stroke-dasharray: none; stroke-linecap: butt; stroke-dashoffset: 0; stroke-linejoin: miter; stroke-miterlimit: 4; is-custom-font: none; font-file-url: none; fill: rgb(248,248,248); fill-rule: nonzero; opacity: 1;" transform=" translate(-459.86, -97.095)" d="M 462.08 92.88 a 11.39 11.39 0 0 1 0.08 -1.5 c -1.83 3.06 -4.21 10 -4.6 11.28 l 0.07 0.15 Z" stroke-linecap="round"/>
</g>
		<g transform="matrix(1 0 0 1 130.595 -134.245)" id="vector">
<path style="stroke: none; stroke-width: 1; stroke-dasharray: none; stroke-linecap: butt; stroke-dashoffset: 0; stroke-linejoin: miter; stroke-miterlimit: 4; is-custom-font: none; font-file-url: none; fill: rgb(0,0,0); fill-rule: nonzero; opacity: 1;" transform=" translate(-529.325, -273.05)" d="M 503.78 263.8 c 5.32 2.29 50.69 29.49 50.26 58.74 c 0.83 -25.17 0.83 -46.24 0.83 -46.24 L 552 254.14 l -4.71 -30.58 l -9.63 14.8 L 525.1 251.75 L 510.32 262.4 Z" stroke-linecap="round"/>
</g>
		<g transform="matrix(1 0 0 1 -313.19 304.89)" id="vector">
<path style="stroke: none; stroke-width: 1; stroke-dasharray: none; stroke-linecap: butt; stroke-dashoffset: 0; stroke-linejoin: miter; stroke-miterlimit: 4; is-custom-font: none; font-file-url: none; fill: rgb(211,211,211); fill-rule: nonzero; opacity: 1;" transform=" translate(-85.54, -712.185)" d="M 171.08 774.78 h -31.3 v 37.07 H 93.89 V 774.78 H 0 v -14 L 108.48 612.52 h 31.3 V 735.28 h 31.3 Z m -77.19 -39.5 V 689.09 L 61.08 735.28 Z" stroke-linecap="round"/>
</g>
		<g transform="matrix(1 0 0 1 -126.95 304.89)" id="vector">
<path style="stroke: none; stroke-width: 1; stroke-dasharray: none; stroke-linecap: butt; stroke-dashoffset: 0; stroke-linejoin: miter; stroke-miterlimit: 4; is-custom-font: none; font-file-url: none; fill: rgb(211,211,211); fill-rule: nonzero; opacity: 1;" transform=" translate(-271.78, -712.185)" d="M 197.21 712.49 c 0 -57.43 16.71 -102.71 75 -102.71 c 58 0 74.14 45.28 74.14 102.71 c 0 57.13 -16.1 102.1 -74.14 102.1 C 213.92 814.59 197.21 769.62 197.21 712.49 Z m 103.31 0 c 0 -34.64 -6.69 -61.38 -28.26 -61.38 c -21.88 0 -29.47 26.74 -29.47 61.38 c 0 34.33 7.59 60.47 29.47 60.47 C 293.83 773 300.52 746.82 300.52 712.49 Z" stroke-linecap="round"/>
</g>
		<g transform="matrix(1 0 0 1 50.82 304.89)" id="vector">
<path style="stroke: none; stroke-width: 1; stroke-dasharray: none; stroke-linecap: butt; stroke-dashoffset: 0; stroke-linejoin: miter; stroke-miterlimit: 4; is-custom-font: none; font-file-url: none; fill: rgb(211,211,211); fill-rule: nonzero; opacity: 1;" transform=" translate(-449.55, -712.185)" d="M 535.1 774.78 H 503.8 v 37.07 H 457.92 V 774.78 H 364 v -14 L 472.5 612.52 h 31.3 V 735.28 h 31.3 Z m -77.18 -39.5 V 689.09 L 425.1 735.28 Z" stroke-linecap="round"/>
</g>
		<g transform="matrix(1 0 0 1 100.86 177.36)" id="vector">
<path style="stroke: none; stroke-width: 1; stroke-dasharray: none; stroke-linecap: butt; stroke-dashoffset: 0; stroke-linejoin: miter; stroke-miterlimit: 4; is-custom-font: none; font-file-url: none; fill: rgb(58,134,246); fill-rule: nonzero; opacity: 1;" transform=" translate(-499.59, -584.655)" d="M 536.15 404.21 c 0.86 8.18 18.93 360.89 18.93 360.89 H 536.15 L 444.1 433 Z" stroke-linecap="round"/>
</g>
		<g transform="matrix(1 0 0 1 8.234 52.686)" id="vector">
<path style="stroke: none; stroke-width: 1; stroke-dasharray: none; stroke-linecap: butt; stroke-dashoffset: 0; stroke-linejoin: miter; stroke-miterlimit: 4; is-custom-font: none; font-file-url: none; fill: rgb(58,134,246); fill-rule: nonzero; opacity: 1;" transform=" translate(-406.964, -459.9811)" d="M 546.4 368.72 c 2.39 48.19 -18.14 87.66 -53.79 87.66 c -48.94 0 -113.73 -31.2 -131.56 -48.81 c -4.45 13.16 -67.57 178.92 -67.57 178.92 H 267.34 s 16.75 -193 48.15 -242.5 c 10.33 -13.76 79.92 -13.25 122.51 -2.93 C 471.81 362.45 534.73 372 546.4 368.72 Z" stroke-linecap="round"/>
</g>
		<g transform="matrix(1 0 0 1 42.045 -262.291)" id="vector">
<path style="stroke: rgb(0,0,0); stroke-width: 2.5; stroke-dasharray: none; stroke-linecap: round; stroke-dashoffset: 0; stroke-linejoin: round; stroke-miterlimit: 4; is-custom-font: none; font-file-url: none; fill: none; fill-rule: nonzero; opacity: 1;" transform=" translate(-440.775, -145.0041)" d="M 422.33 82.2 a 6.11 6.11 0 0 1 3.68 -0.86 c 3.83 0.27 10.09 10.39 10.09 18.58 s -2.31 11.27 -1.61 17.22 s 15.85 86.63 15.85 91.55 a 67.52 67.52 0 0 0 8.88 -0.57" stroke-linecap="round"/>
</g>
		<g transform="matrix(1 0 0 1 122.125 -223.155)" id="vector">
<path style="stroke: rgb(0,0,0); stroke-width: 2.5; stroke-dasharray: none; stroke-linecap: round; stroke-dashoffset: 0; stroke-linejoin: miter; stroke-miterlimit: 10; is-custom-font: none; font-file-url: none; fill: none; fill-rule: nonzero; opacity: 1;" transform=" translate(-520.855, -184.14)" d="M 503.78 170.42 c 15.32 1.72 26.35 12.16 34.15 27.44" stroke-linecap="round"/>
</g>
		<g transform="matrix(1 0 0 1 67.96 -205.64)" id="vector">
<path style="stroke: rgb(0,0,0); stroke-width: 2.5; stroke-dasharray: none; stroke-linecap: round; stroke-dashoffset: 0; stroke-linejoin: miter; stroke-miterlimit: 10; is-custom-font: none; font-file-url: none; fill: none; fill-rule: nonzero; opacity: 1;" transform=" translate(-466.69, -201.655)" d="M 452.23 226.58 c 7 -21.6 16.54 -40.38 28.92 -49.85" stroke-linecap="round"/>
</g>
		<g transform="matrix(1 0 0 1 96.7559 -111.4728)" id="vector">
<path style="stroke: rgb(0,0,0); stroke-width: 2.5; stroke-dasharray: none; stroke-linecap: round; stroke-dashoffset: 0; stroke-linejoin: miter; stroke-miterlimit: 10; is-custom-font: none; font-file-url: none; fill: none; fill-rule: nonzero; opacity: 1;" transform=" translate(-495.4858, -295.8222)" d="M 546.74 221.62 c 15.29 57.24 5.37 142.37 -0.34 147.1 c -8.64 7.16 -100.75 -17 -108.4 -27.66 c -3.18 -4.4 -2.53 -34.51 3.18 -68.27" stroke-linecap="round"/>
</g>
		<g transform="matrix(1 0 0 1 47.1916 -232.3125)" id="vector">
<path style="stroke: rgb(0,0,0); stroke-width: 2.5; stroke-dasharray: none; stroke-linecap: round; stroke-dashoffset: 0; stroke-linejoin: round; stroke-miterlimit: 4; is-custom-font: none; font-file-url: none; fill: none; fill-rule: nonzero; opacity: 1;" transform=" translate(-445.9216, -174.9825)" d="M 472.8 218.76 c -4.07 1.38 -27.94 10.69 -27.94 10.69 c -0.4 -4.8 -18.75 -100 -19.88 -105.83 a 47.62 47.62 0 0 0 3.37 -18.3 C 428.35 89.69 422 77 414.17 77 S 400 89.69 400 105.32 a 46.85 46.85 0 0 0 3.7 19.06 c -0.88 11.9 -8.78 124.89 7.34 141 c 16.44 16.44 55.53 2.68 80.81 -8.57" stroke-linecap="round"/>
</g>
		<g transform="matrix(0.9665 0.2566 -0.2566 0.9665 47.4645 -294.2518)" id="vector">
<rect style="stroke: none; stroke-width: 1; stroke-dasharray: none; stroke-linecap: butt; stroke-dashoffset: 0; stroke-linejoin: miter; stroke-miterlimit: 4; is-custom-font: none; font-file-url: none; fill: rgb(58,134,246); fill-rule: nonzero; opacity: 1;" x="-7.75" y="-5.415" rx="0" ry="0" width="15.5" height="10.83"/>
</g>
		<g transform="matrix(1 0 0 1 111.2066 -177.6623)" id="vector">
<path style="stroke: rgb(0,0,0); stroke-width: 2.5; stroke-dasharray: none; stroke-linecap: round; stroke-dashoffset: 0; stroke-linejoin: miter; stroke-miterlimit: 10; is-custom-font: none; font-file-url: none; fill: none; fill-rule: nonzero; opacity: 1;" transform=" translate(-509.9366, -229.6327)" d="M 527.77 195.32 c 8.55 1 15.57 4 18.68 10 c 11.29 21.92 -33.42 61.41 -45.79 58.47 s -32.32 -47.08 -28.59 -55 c 1.06 -2.27 6.73 -5.28 14.52 -7.91" stroke-linecap="round"/>
</g>
		<g transform="matrix(1 0 0 1 82.42 -233.665)" id="vector">
<path style="stroke: rgb(0,0,0); stroke-width: 2.5; stroke-dasharray: none; stroke-linecap: round; stroke-dashoffset: 0; stroke-linejoin: round; stroke-miterlimit: 4; is-custom-font: none; font-file-url: none; fill: none; fill-rule: nonzero; opacity: 1;" transform=" translate(-481.15, -173.63)" d="M 481.15 176.73 v -6.2" stroke-linecap="round"/>
</g>
		<g transform="matrix(1 0 0 1 99.645 -231.905)" id="vector">
<path style="stroke: rgb(0,0,0); stroke-width: 2.5; stroke-dasharray: none; stroke-linecap: round; stroke-dashoffset: 0; stroke-linejoin: round; stroke-miterlimit: 4; is-custom-font: none; font-file-url: none; fill: none; fill-rule: nonzero; opacity: 1;" transform=" translate(-498.375, -175.39)" d="M 503.78 158.94 v 29.78 c 0 1.8 -5.33 2.95 -10.81 3.12" stroke-linecap="round"/>
</g>
		<g transform="matrix(1 0 0 1 107.63 -253.14)" id="vector">
<path style="stroke: rgb(0,0,0); stroke-width: 2.5; stroke-dasharray: none; stroke-linecap: round; stroke-dashoffset: 0; stroke-linejoin: round; stroke-miterlimit: 4; is-custom-font: none; font-file-url: none; fill: none; fill-rule: nonzero; opacity: 1;" transform=" translate(-506.36, -154.155)" d="M 508.94 149.37 a 48.54 48.54 0 0 1 -5.16 9.57" stroke-linecap="round"/>
</g>
		<g transform="matrix(1 0 0 1 73.7496 -270.535)" id="vector">
<path style="stroke: rgb(0,0,0); stroke-width: 2.5; stroke-dasharray: none; stroke-linecap: round; stroke-dashoffset: 0; stroke-linejoin: round; stroke-miterlimit: 4; is-custom-font: none; font-file-url: none; fill: none; fill-rule: nonzero; opacity: 1;" transform=" translate(-472.4796, -136.76)" d="M 490.25 169.83 a 18.84 18.84 0 0 1 -6 1 c -16.32 0 -29.54 -21.39 -29.54 -47.77 a 72.77 72.77 0 0 1 2.81 -20.37" stroke-linecap="round"/>
</g>
		<g transform="matrix(1 0 0 1 222.47 -295.955)" id="vector">
<path style="stroke: rgb(0,0,0); stroke-width: 2.5; stroke-dasharray: none; stroke-linecap: round; stroke-dashoffset: 0; stroke-linejoin: round; stroke-miterlimit: 4; is-custom-font: none; font-file-url: none; fill: none; fill-rule: nonzero; opacity: 1;" transform=" translate(-621.2, -111.34)" d="M 504.46 141.17 c 0.58 5.45 2.64 8.2 4.48 8.2 c 2.17 0 7.89 -1.5 11.57 -1.5 c 36.14 0 78.58 37.31 160 37.31 c 42.53 0 109.27 -10.73 109.27 -73.19 c 0 -33.73 -12.14 -74.49 -76.31 -74.49 c -40.75 0 -69.3 20 -102.78 20 c -43 0 -59.58 -15.57 -89.29 -15.57 c -21.16 0 -68.78 12.26 -68.78 44.38 c 0 12.2 3.82 15.74 5 16.37 c 0.39 -1.3 2.77 -8.22 4.6 -11.28 a 18.94 18.94 0 0 0 3.62 12.56" stroke-linecap="round"/>
</g>
		<g transform="matrix(1 0 0 1 100.68 -282.115)" id="vector">
<path style="stroke: rgb(0,0,0); stroke-width: 2.5; stroke-dasharray: none; stroke-linecap: round; stroke-dashoffset: 0; stroke-linejoin: round; stroke-miterlimit: 4; is-custom-font: none; font-file-url: none; fill: none; fill-rule: nonzero; opacity: 1;" transform=" translate(-499.41, -125.18)" d="M 498.24 123.68 a 32.23 32.23 0 0 1 2.34 3" stroke-linecap="round"/>
</g>
		<g transform="matrix(1 0 0 1 104.1983 -273.31)" id="vector">
<path style="stroke: rgb(0,0,0); stroke-width: 2.5; stroke-dasharray: none; stroke-linecap: round; stroke-dashoffset: 0; stroke-linejoin: round; stroke-miterlimit: 4; is-custom-font: none; font-file-url: none; fill: none; fill-rule: nonzero; opacity: 1;" transform=" translate(-502.9283, -133.985)" d="M 497.05 128.09 a 7.43 7.43 0 0 1 4.21 -1.29 a 7.54 7.54 0 0 1 3.2 14.37" stroke-linecap="round"/>
</g>
		<g transform="matrix(1 0 0 1 37.18 -299.43)" id="vector">
<path style="stroke: none; stroke-width: 1; stroke-dasharray: none; stroke-linecap: butt; stroke-dashoffset: 0; stroke-linejoin: miter; stroke-miterlimit: 4; is-custom-font: none; font-file-url: none; fill: rgb(58,134,246); fill-rule: nonzero; opacity: 1;" transform=" translate(-435.91, -107.865)" d="M 428.35 105.32 A 49.32 49.32 0 0 1 425.64 122 c 8.51 1 14.67 1.73 14.67 1.73 L 446.18 100 S 437.5 96.39 426.69 92 A 51.94 51.94 0 0 1 428.35 105.32 Z" stroke-linecap="round"/>
</g>
		<g transform="matrix(1 0 0 1 -9.1162 -309.6989)" id="vector">
<path style="stroke: none; stroke-width: 1; stroke-dasharray: none; stroke-linecap: butt; stroke-dashoffset: 0; stroke-linejoin: miter; stroke-miterlimit: 4; is-custom-font: none; font-file-url: none; fill: rgb(58,134,246); fill-rule: nonzero; opacity: 1;" transform=" translate(-389.6137, -97.5962)" d="M 400 105.32 c 0 -8.83 2 -16.71 5.2 -21.9 c -9.33 -3.67 -17.18 -6.65 -19.41 -7.21 c -6.49 -1.6 -16 37.61 -9.69 39.18 c 2.55 0.63 13.52 2.1 25.69 3.64 A 51.61 51.61 0 0 1 400 105.32 Z" stroke-linecap="round"/>
</g>
		<g transform="matrix(1 0 0 1 -137.21 189.245)" id="vector">
<polyline style="stroke: rgb(0,0,0); stroke-width: 2.5; stroke-dasharray: none; stroke-linecap: round; stroke-dashoffset: 0; stroke-linejoin: round; stroke-miterlimit: 4; is-custom-font: none; font-file-url: none; fill: none; fill-rule: nonzero; opacity: 1;" points="28.78,-10.94 28.78,10.94 -28.78,10.94 10.29,-2.87 10.29,-10.94 "/>
</g>
		<g transform="matrix(1 0 0 1 129.57 367.915)" id="vector">
<polyline style="stroke: rgb(0,0,0); stroke-width: 2.5; stroke-dasharray: none; stroke-linecap: round; stroke-dashoffset: 0; stroke-linejoin: round; stroke-miterlimit: 4; is-custom-font: none; font-file-url: none; fill: none; fill-rule: nonzero; opacity: 1;" points="25.78,-10.94 25.78,10.94 -25.78,10.94 9.21,-2.87 9.21,-10.94 "/>
</g>
</g>
</g>
</svg>