<svg xmlns="http://www.w3.org/2000/svg" xmlns:xlink="http://www.w3.org/1999/xlink" version="1.1" width="386" height="636" viewBox="0 0 386 636" xml:space="preserve">
<desc>Created with Fabric.js 3.5.0</desc>
<defs>
</defs>
<rect x="0" y="0" width="100%" height="100%" fill="#ffffff"/>
<g transform="matrix(0.5502 0 0 0.5502 195.7513 156.6536)" id="69456">
<g style="" vector-effect="non-scaling-stroke">
		<g transform="matrix(1 0 0 1 0.0273 -0.3387)" id="Vector">
<path style="stroke: none; stroke-width: 1; stroke-dasharray: none; stroke-linecap: butt; stroke-dashoffset: 0; stroke-linejoin: miter; stroke-miterlimit: 4; is-custom-font: none; font-file-url: none; fill: rgb(243,243,243); fill-rule: nonzero; opacity: 1;" transform=" translate(-423.0273, -316.6612)" d="M 740.567 260.204 L 663.052 104.399 C 657.871 94.0434 647.031 87.7563 635.505 88.3903 L 238.361 111.214 C 229.53 111.743 221.388 116.233 216.312 123.524 L 107.601 279.066 C 104.005 284.243 102.155 290.425 102.419 296.712 L 112.042 544.976 H 729.992 L 743.634 274.522 C 743.845 269.556 742.788 264.642 740.567 260.204 Z" stroke-linecap="round"/>
</g>
		<g transform="matrix(1 0 0 1 -152.7825 156.73)" id="Vector_2">
<path style="stroke: none; stroke-width: 1; stroke-dasharray: none; stroke-linecap: butt; stroke-dashoffset: 0; stroke-linejoin: miter; stroke-miterlimit: 4; is-custom-font: none; font-file-url: none; fill: rgb(133,137,144); fill-rule: nonzero; opacity: 1;" transform=" translate(-270.2175, -473.73)" d="M 314.606 411.36 C 313.813 406.235 309.53 402.642 304.507 402.537 H 299.008 L 296.84 403.065 V 403.382 L 250.205 409.299 C 244.335 410.039 239.524 414.266 238.043 419.972 L 205.525 544.923 H 213.351 L 245.393 421.874 C 246.08 419.126 248.354 417.171 251.156 416.802 L 303.925 410.092 C 305.459 409.88 306.834 410.937 307.045 412.469 L 327.243 544.923 H 334.91 L 314.606 411.36 Z" stroke-linecap="round"/>
</g>
		<g transform="matrix(1 0 0 1 -157.673 156.764)" id="Vector_3">
<path style="stroke: none; stroke-width: 1; stroke-dasharray: none; stroke-linecap: butt; stroke-dashoffset: 0; stroke-linejoin: miter; stroke-miterlimit: 4; is-custom-font: none; font-file-url: none; fill: rgb(177,181,186); fill-rule: nonzero; opacity: 1;" transform=" translate(-265.327, -473.7641)" d="M 208.433 544.976 H 200.608 L 233.126 420.025 C 234.606 414.266 239.418 410.093 245.287 409.353 L 298.056 402.643 C 303.714 401.903 308.79 405.76 309.636 411.361 L 330.046 544.976 H 322.379 L 302.181 412.523 C 301.969 410.991 300.594 409.987 299.061 410.145 L 246.239 416.855 C 243.436 417.225 241.163 419.18 240.475 421.927 L 208.433 544.976 Z" stroke-linecap="round"/>
</g>
		<g transform="matrix(1 0 0 1 -241.9772 73.1215)" id="Vector_4">
<path style="stroke: none; stroke-width: 1; stroke-dasharray: none; stroke-linecap: butt; stroke-dashoffset: 0; stroke-linejoin: miter; stroke-miterlimit: 4; is-custom-font: none; font-file-url: none; fill: rgb(133,137,144); fill-rule: nonzero; opacity: 1;" transform=" translate(-181.0229, -390.1215)" d="M 158.519 448.449 L 132.029 338.133 C 131.236 334.805 133.774 331.635 137.158 331.635 H 129.967 C 126.53 331.635 124.045 334.805 124.838 338.133 L 151.328 448.449 L 237.356 448.608 L 158.519 448.449 Z" stroke-linecap="round"/>
</g>
		<g transform="matrix(1 0 0 1 -235.5527 73.0685)" id="Vector_5">
<path style="stroke: none; stroke-width: 1; stroke-dasharray: none; stroke-linecap: butt; stroke-dashoffset: 0; stroke-linejoin: miter; stroke-miterlimit: 4; is-custom-font: none; font-file-url: none; fill: rgb(97,101,109); fill-rule: nonzero; opacity: 1;" transform=" translate(-187.4474, -390.0685)" d="M 215.148 335.597 C 214.567 333.22 212.452 331.582 210.02 331.582 H 137.158 C 133.721 331.582 131.236 334.752 132.029 338.081 L 158.519 448.397 L 243.014 448.555 L 215.148 335.597 Z" stroke-linecap="round"/>
</g>
		<g transform="matrix(1 0 0 1 -150.4555 135.253)" id="Vector_6">
<path style="stroke: none; stroke-width: 1; stroke-dasharray: none; stroke-linecap: butt; stroke-dashoffset: 0; stroke-linejoin: miter; stroke-miterlimit: 4; is-custom-font: none; font-file-url: none; fill: rgb(97,101,109); fill-rule: nonzero; opacity: 1;" transform=" translate(-272.5445, -452.253)" d="M 329.729 456.057 H 215.36 C 213.245 456.057 211.553 454.367 211.553 452.253 C 211.553 450.14 213.245 448.449 215.36 448.449 H 329.729 C 331.844 448.449 333.536 450.14 333.536 452.253 C 333.536 454.367 331.791 456.057 329.729 456.057 Z" stroke-linecap="round"/>
</g>
		<g transform="matrix(1 0 0 1 -227.019 135.253)" id="Vector_7">
<path style="stroke: none; stroke-width: 1; stroke-dasharray: none; stroke-linecap: butt; stroke-dashoffset: 0; stroke-linejoin: miter; stroke-miterlimit: 4; is-custom-font: none; font-file-url: none; fill: rgb(133,137,144); fill-rule: nonzero; opacity: 1;" transform=" translate(-195.981, -452.253)" d="M 244.758 456.057 H 147.204 C 145.089 456.057 143.397 454.367 143.397 452.253 C 143.397 450.14 145.089 448.449 147.204 448.449 H 244.758 C 246.873 448.449 248.565 450.14 248.565 452.253 C 248.565 454.367 246.873 456.057 244.758 456.057 Z" stroke-linecap="round"/>
</g>
		<g transform="matrix(1 0 0 1 -220.2469 135.253)" id="Vector_8">
<path style="stroke: none; stroke-width: 1; stroke-dasharray: none; stroke-linecap: butt; stroke-dashoffset: 0; stroke-linejoin: miter; stroke-miterlimit: 4; is-custom-font: none; font-file-url: none; fill: rgb(133,137,144); fill-rule: nonzero; opacity: 1;" transform=" translate(-202.7531, -452.253)" d="M 259.458 450.932 C 259.986 452.465 259.511 453.944 258.559 454.948 C 257.871 455.635 256.92 456.057 255.862 456.057 H 147.204 C 146.728 456.057 146.252 455.952 145.829 455.793 L 147.733 448.449 H 255.862 C 257.448 448.449 258.982 449.4 259.458 450.932 Z" stroke-linecap="round"/>
</g>
		<g transform="matrix(1 0 0 1 -259.0875 121.2265)" id="Vector_9">
<path style="stroke: none; stroke-width: 1; stroke-dasharray: none; stroke-linecap: butt; stroke-dashoffset: 0; stroke-linejoin: miter; stroke-miterlimit: 4; is-custom-font: none; font-file-url: none; fill: rgb(133,137,144); fill-rule: nonzero; opacity: 1;" transform=" translate(-163.9125, -438.2265)" d="M 160.264 450.563 L 166.715 425.89 H 167.561 L 161.269 450.563 H 160.264 Z" stroke-linecap="round"/>
</g>
		<g transform="matrix(1 0 0 1 -230.4555 156.73)" id="Vector_10">
<path style="stroke: none; stroke-width: 1; stroke-dasharray: none; stroke-linecap: butt; stroke-dashoffset: 0; stroke-linejoin: miter; stroke-miterlimit: 4; is-custom-font: none; font-file-url: none; fill: rgb(133,137,144); fill-rule: nonzero; opacity: 1;" transform=" translate(-192.5445, -473.73)" d="M 236.933 411.36 C 236.14 406.235 231.857 402.642 226.834 402.537 H 221.335 L 219.167 403.065 V 403.382 L 172.531 409.299 C 166.662 410.039 161.85 414.266 160.37 419.972 L 127.852 544.923 H 135.677 L 167.72 421.874 C 168.407 419.126 170.681 417.171 173.483 416.802 L 226.252 410.092 C 227.786 409.88 229.16 410.937 229.372 412.469 L 249.57 544.923 H 257.237 L 236.933 411.36 Z" stroke-linecap="round"/>
</g>
		<g transform="matrix(1 0 0 1 -235.3735 156.764)" id="Vector_11">
<path style="stroke: none; stroke-width: 1; stroke-dasharray: none; stroke-linecap: butt; stroke-dashoffset: 0; stroke-linejoin: miter; stroke-miterlimit: 4; is-custom-font: none; font-file-url: none; fill: rgb(177,181,186); fill-rule: nonzero; opacity: 1;" transform=" translate(-187.6265, -473.7641)" d="M 130.76 544.976 H 122.934 L 155.4 420.025 C 156.88 414.266 161.692 410.093 167.561 409.353 L 220.33 402.643 C 225.988 401.903 231.064 405.76 231.91 411.361 L 252.319 544.976 H 244.653 L 224.454 412.523 C 224.243 410.991 222.868 409.987 221.335 410.145 L 168.565 416.855 C 165.763 417.225 163.489 419.18 162.802 421.927 L 130.76 544.976 Z" stroke-linecap="round"/>
</g>
		<g transform="matrix(1 0 0 1 73.602 -134.566)" id="Vector_12">
<path style="stroke: none; stroke-width: 1; stroke-dasharray: none; stroke-linecap: butt; stroke-dashoffset: 0; stroke-linejoin: miter; stroke-miterlimit: 4; is-custom-font: none; font-file-url: none; fill: rgb(0,0,0); fill-rule: nonzero; opacity: 0.01;" transform=" translate(-496.602, -182.434)" d="M 509.821 170.071 H 483.383 V 194.797 H 509.821 V 170.071 Z" stroke-linecap="round"/>
</g>
		<g transform="matrix(1 0 0 1 124.732 -116.3915)" id="Vector_13">
<path style="stroke: none; stroke-width: 1; stroke-dasharray: none; stroke-linecap: butt; stroke-dashoffset: 0; stroke-linejoin: miter; stroke-miterlimit: 4; is-custom-font: none; font-file-url: none; fill: rgb(255,255,255); fill-rule: nonzero; opacity: 1;" transform=" translate(-547.732, -200.6085)" d="M 650.415 132.559 H 445.049 V 268.658 H 650.415 V 132.559 Z" stroke-linecap="round"/>
</g>
		<g transform="matrix(1 0 0 1 228.949 -116.3915)" id="Vector_14">
<path style="stroke: none; stroke-width: 1; stroke-dasharray: none; stroke-linecap: butt; stroke-dashoffset: 0; stroke-linejoin: miter; stroke-miterlimit: 4; is-custom-font: none; font-file-url: none; fill: rgb(226,226,226); fill-rule: nonzero; opacity: 1;" transform=" translate(-651.949, -200.6085)" d="M 653.482 132.559 H 650.416 V 268.658 H 653.482 V 132.559 Z" stroke-linecap="round"/>
</g>
		<g transform="matrix(1 0 0 1 125.102 -116.1275)" id="Vector_15">
<path style="stroke: none; stroke-width: 1; stroke-dasharray: none; stroke-linecap: butt; stroke-dashoffset: 0; stroke-linejoin: miter; stroke-miterlimit: 4; is-custom-font: none; font-file-url: none; fill: rgb(236,236,236); fill-rule: nonzero; opacity: 1;" transform=" translate(-548.102, -200.8725)" d="M 645.286 137.948 H 450.918 V 263.797 H 645.286 V 137.948 Z" stroke-linecap="round"/>
</g>
		<g transform="matrix(1 0 0 1 29.795 -116.1275)" id="Vector_16">
<path style="stroke: none; stroke-width: 1; stroke-dasharray: none; stroke-linecap: butt; stroke-dashoffset: 0; stroke-linejoin: miter; stroke-miterlimit: 4; is-custom-font: none; font-file-url: none; fill: rgb(226,226,226); fill-rule: nonzero; opacity: 1;" transform=" translate(-452.795, -200.8725)" d="M 454.672 137.948 H 450.918 V 263.797 H 454.672 V 137.948 Z" stroke-linecap="round"/>
</g>
		<g transform="matrix(1 0 0 1 71.54 -137.842)" id="Vector_17">
<path style="stroke: none; stroke-width: 1; stroke-dasharray: none; stroke-linecap: butt; stroke-dashoffset: 0; stroke-linejoin: miter; stroke-miterlimit: 4; is-custom-font: none; font-file-url: none; fill: rgb(255,255,255); fill-rule: nonzero; opacity: 1;" transform=" translate(-494.54, -179.158)" d="M 507.759 166.795 H 481.321 V 191.521 H 507.759 V 166.795 Z" stroke-linecap="round"/>
</g>
		<g transform="matrix(1 0 0 1 71.2703 -141.963)" id="Vector_18">
<path style="stroke: none; stroke-width: 1; stroke-dasharray: none; stroke-linecap: butt; stroke-dashoffset: 0; stroke-linejoin: miter; stroke-miterlimit: 4; is-custom-font: none; font-file-url: none; fill: rgb(236,236,236); fill-rule: nonzero; opacity: 1;" transform=" translate(-494.2704, -175.037)" d="M 484.599 174.667 H 503.899 C 504.11 174.667 504.269 174.825 504.269 175.037 C 504.269 175.248 504.11 175.407 503.899 175.407 H 484.652 C 484.441 175.407 484.282 175.248 484.282 175.037 C 484.229 174.825 484.388 174.667 484.599 174.667 Z" stroke-linecap="round"/>
</g>
		<g transform="matrix(1 0 0 1 71.2703 -138.0535)" id="Vector_19">
<path style="stroke: none; stroke-width: 1; stroke-dasharray: none; stroke-linecap: butt; stroke-dashoffset: 0; stroke-linejoin: miter; stroke-miterlimit: 4; is-custom-font: none; font-file-url: none; fill: rgb(236,236,236); fill-rule: nonzero; opacity: 1;" transform=" translate(-494.2704, -178.9465)" d="M 484.599 178.577 H 503.899 C 504.11 178.577 504.269 178.735 504.269 178.947 C 504.269 179.158 504.11 179.316 503.899 179.316 H 484.652 C 484.441 179.316 484.282 179.158 484.282 178.947 C 484.229 178.735 484.388 178.577 484.599 178.577 Z" stroke-linecap="round"/>
</g>
		<g transform="matrix(1 0 0 1 71.2703 -134.1965)" id="Vector_20">
<path style="stroke: none; stroke-width: 1; stroke-dasharray: none; stroke-linecap: butt; stroke-dashoffset: 0; stroke-linejoin: miter; stroke-miterlimit: 4; is-custom-font: none; font-file-url: none; fill: rgb(236,236,236); fill-rule: nonzero; opacity: 1;" transform=" translate(-494.2704, -182.8035)" d="M 484.599 182.434 H 503.899 C 504.11 182.434 504.269 182.592 504.269 182.803 C 504.269 183.015 504.11 183.173 503.899 183.173 H 484.652 C 484.441 183.173 484.282 183.015 484.282 182.803 C 484.229 182.645 484.388 182.434 484.599 182.434 Z" stroke-linecap="round"/>
</g>
		<g transform="matrix(1 0 0 1 70.9585 -130.287)" id="Vector_21">
<path style="stroke: none; stroke-width: 1; stroke-dasharray: none; stroke-linecap: butt; stroke-dashoffset: 0; stroke-linejoin: miter; stroke-miterlimit: 4; is-custom-font: none; font-file-url: none; fill: rgb(236,236,236); fill-rule: nonzero; opacity: 1;" transform=" translate(-493.9585, -186.713)" d="M 486.609 186.343 H 501.308 C 501.519 186.343 501.678 186.502 501.678 186.713 C 501.678 186.924 501.519 187.083 501.308 187.083 H 486.609 C 486.397 187.083 486.239 186.924 486.239 186.713 C 486.239 186.502 486.397 186.343 486.609 186.343 Z" stroke-linecap="round"/>
</g>
		<g transform="matrix(1 0 0 1 92.214 -86.5681)" id="Vector_22">
<path style="stroke: none; stroke-width: 1; stroke-dasharray: none; stroke-linecap: butt; stroke-dashoffset: 0; stroke-linejoin: miter; stroke-miterlimit: 4; is-custom-font: none; font-file-url: none; fill: rgb(0,0,0); fill-rule: nonzero; opacity: 0.01;" transform=" translate(-515.214, -230.4319)" d="M 500.303 215.349 H 530.125 V 243.245 C 530.125 243.245 511.989 248.422 506.754 243.139 C 501.784 238.225 500.303 215.349 500.303 215.349 Z" stroke-linecap="round"/>
</g>
		<g transform="matrix(1 0 0 1 90.892 -89.447)" id="Vector_23">
<path style="stroke: none; stroke-width: 1; stroke-dasharray: none; stroke-linecap: butt; stroke-dashoffset: 0; stroke-linejoin: miter; stroke-miterlimit: 4; is-custom-font: none; font-file-url: none; fill: rgb(255,255,255); fill-rule: nonzero; opacity: 1;" transform=" translate(-513.892, -227.553)" d="M 498.981 213.605 H 528.803 V 241.501 C 528.803 241.501 510.032 241.501 504.956 236.535 C 500.145 231.886 498.981 213.605 498.981 213.605 Z" stroke-linecap="round"/>
</g>
		<g transform="matrix(1 0 0 1 90.5485 -94.0435)" id="Vector_24">
<path style="stroke: none; stroke-width: 1; stroke-dasharray: none; stroke-linecap: butt; stroke-dashoffset: 0; stroke-linejoin: miter; stroke-miterlimit: 4; is-custom-font: none; font-file-url: none; fill: rgb(236,236,236); fill-rule: nonzero; opacity: 1;" transform=" translate(-513.5485, -222.9565)" d="M 502.683 222.534 H 524.414 C 524.626 222.534 524.837 222.745 524.837 222.957 C 524.837 223.168 524.626 223.379 524.414 223.379 H 502.683 C 502.471 223.379 502.26 223.168 502.26 222.957 C 502.26 222.693 502.471 222.534 502.683 222.534 Z" stroke-linecap="round"/>
</g>
		<g transform="matrix(1 0 0 1 90.5485 -92.7225)" id="Vector_25">
<path style="stroke: none; stroke-width: 1; stroke-dasharray: none; stroke-linecap: butt; stroke-dashoffset: 0; stroke-linejoin: miter; stroke-miterlimit: 4; is-custom-font: none; font-file-url: none; fill: rgb(236,236,236); fill-rule: nonzero; opacity: 1;" transform=" translate(-513.5485, -224.2775)" d="M 502.683 223.855 H 524.414 C 524.626 223.855 524.837 224.066 524.837 224.277 C 524.837 224.489 524.626 224.7 524.414 224.7 H 502.683 C 502.471 224.7 502.26 224.489 502.26 224.277 C 502.26 224.013 502.471 223.855 502.683 223.855 Z" stroke-linecap="round"/>
</g>
		<g transform="matrix(1 0 0 1 90.5485 -85.273)" id="Vector_26">
<path style="stroke: none; stroke-width: 1; stroke-dasharray: none; stroke-linecap: butt; stroke-dashoffset: 0; stroke-linejoin: miter; stroke-miterlimit: 4; is-custom-font: none; font-file-url: none; fill: rgb(236,236,236); fill-rule: nonzero; opacity: 1;" transform=" translate(-513.5485, -231.727)" d="M 502.683 231.304 H 524.414 C 524.626 231.304 524.837 231.516 524.837 231.727 C 524.837 231.938 524.626 232.15 524.414 232.15 H 502.683 C 502.471 232.15 502.26 231.938 502.26 231.727 C 502.26 231.516 502.471 231.304 502.683 231.304 Z" stroke-linecap="round"/>
</g>
		<g transform="matrix(1 0 0 1 90.231 -80.888)" id="Vector_27">
<path style="stroke: none; stroke-width: 1; stroke-dasharray: none; stroke-linecap: butt; stroke-dashoffset: 0; stroke-linejoin: miter; stroke-miterlimit: 4; is-custom-font: none; font-file-url: none; fill: rgb(236,236,236); fill-rule: nonzero; opacity: 1;" transform=" translate(-513.231, -236.112)" d="M 504.956 235.689 H 521.506 C 521.718 235.689 521.929 235.901 521.929 236.112 C 521.929 236.323 521.718 236.535 521.506 236.535 H 504.956 C 504.745 236.535 504.533 236.323 504.533 236.112 C 504.533 235.901 504.692 235.689 504.956 235.689 Z" stroke-linecap="round"/>
</g>
		<g transform="matrix(1 0 0 1 167.006 -98.455)" id="Vector_28">
<path style="stroke: none; stroke-width: 1; stroke-dasharray: none; stroke-linecap: butt; stroke-dashoffset: 0; stroke-linejoin: miter; stroke-miterlimit: 4; is-custom-font: none; font-file-url: none; fill: rgb(0,0,0); fill-rule: nonzero; opacity: 0.1;" transform=" translate(-590.006, -218.545)" d="M 605.419 203.144 H 574.593 V 233.946 H 605.419 V 203.144 Z" stroke-linecap="round"/>
</g>
		<g transform="matrix(1 0 0 1 163.6215 -101.308)" id="Vector_29">
<path style="stroke: none; stroke-width: 1; stroke-dasharray: none; stroke-linecap: butt; stroke-dashoffset: 0; stroke-linejoin: miter; stroke-miterlimit: 4; is-custom-font: none; font-file-url: none; fill: rgb(255,255,255); fill-rule: nonzero; opacity: 1;" transform=" translate(-586.6215, -215.692)" d="M 602.035 200.291 H 571.208 V 231.093 H 602.035 V 200.291 Z" stroke-linecap="round"/>
</g>
		<g transform="matrix(1 0 0 1 163.648 -112.535)" id="Vector_30">
<path style="stroke: none; stroke-width: 1; stroke-dasharray: none; stroke-linecap: butt; stroke-dashoffset: 0; stroke-linejoin: miter; stroke-miterlimit: 4; is-custom-font: none; font-file-url: none; fill: rgb(0,0,0); fill-rule: nonzero; opacity: 0.15;" transform=" translate(-586.648, -204.465)" d="M 587.97 204.465 C 587.97 205.205 587.388 205.786 586.648 205.786 C 585.908 205.786 585.326 205.205 585.326 204.465 C 585.326 203.725 585.908 203.144 586.648 203.144 C 587.335 203.144 587.97 203.725 587.97 204.465 Z" stroke-linecap="round"/>
</g>
		<g transform="matrix(1 0 0 1 90.575 -100.279)" id="Vector_31">
<path style="stroke: none; stroke-width: 1; stroke-dasharray: none; stroke-linecap: butt; stroke-dashoffset: 0; stroke-linejoin: miter; stroke-miterlimit: 4; is-custom-font: none; font-file-url: none; fill: rgb(0,0,0); fill-rule: nonzero; opacity: 0.15;" transform=" translate(-513.575, -216.7209)" d="M 514.897 216.722 C 514.897 217.462 514.315 218.043 513.575 218.043 C 512.835 218.043 512.253 217.462 512.253 216.722 C 512.253 215.983 512.835 215.402 513.575 215.402 C 514.315 215.349 514.897 215.983 514.897 216.722 Z" stroke-linecap="round"/>
</g>
		<g transform="matrix(1 0 0 1 110.4014 -147.8899)" id="Vector_32">
<path style="stroke: none; stroke-width: 1; stroke-dasharray: none; stroke-linecap: butt; stroke-dashoffset: 0; stroke-linejoin: miter; stroke-miterlimit: 4; is-custom-font: none; font-file-url: none; fill: rgb(0,0,0); fill-rule: nonzero; opacity: 0.1;" transform=" translate(-533.4014, -169.1102)" d="M 518.281 154.855 C 518.281 154.855 539.484 150.945 544.771 156.228 C 550.059 161.512 548.208 184.758 548.208 184.758 H 518.281 V 154.855 Z" stroke-linecap="round"/>
</g>
		<g transform="matrix(1 0 0 1 106.8075 -151.7604)" id="Vector_33">
<path style="stroke: none; stroke-width: 1; stroke-dasharray: none; stroke-linecap: butt; stroke-dashoffset: 0; stroke-linejoin: miter; stroke-miterlimit: 4; is-custom-font: none; font-file-url: none; fill: rgb(226,226,226); fill-rule: nonzero; opacity: 1;" transform=" translate(-529.8075, -165.2395)" d="M 514.844 150.575 C 514.844 150.575 532.715 147.986 538.003 153.322 C 543.29 158.606 544.771 180.532 544.771 180.532 H 514.844 V 150.575 Z" stroke-linecap="round"/>
</g>
		<g transform="matrix(1 0 0 1 71.011 -147.194)" id="Vector_34">
<path style="stroke: none; stroke-width: 1; stroke-dasharray: none; stroke-linecap: butt; stroke-dashoffset: 0; stroke-linejoin: miter; stroke-miterlimit: 4; is-custom-font: none; font-file-url: none; fill: rgb(0,0,0); fill-rule: nonzero; opacity: 0.15;" transform=" translate(-494.011, -169.806)" d="M 494.963 169.806 C 494.963 170.335 494.54 170.757 494.011 170.757 C 493.482 170.757 493.059 170.335 493.059 169.806 C 493.059 169.278 493.482 168.855 494.011 168.855 C 494.487 168.855 494.963 169.278 494.963 169.806 Z" stroke-linecap="round"/>
</g>
		<g transform="matrix(1 0 0 1 106.8605 -163.6775)" id="Vector_35">
<path style="stroke: none; stroke-width: 1; stroke-dasharray: none; stroke-linecap: butt; stroke-dashoffset: 0; stroke-linejoin: miter; stroke-miterlimit: 4; is-custom-font: none; font-file-url: none; fill: rgb(0,0,0); fill-rule: nonzero; opacity: 0.15;" transform=" translate(-529.8605, -153.3225)" d="M 530.865 153.322 C 530.865 153.904 530.389 154.326 529.86 154.326 C 529.279 154.326 528.856 153.851 528.856 153.322 C 528.856 152.794 529.332 152.319 529.86 152.319 C 530.389 152.319 530.865 152.741 530.865 153.322 Z" stroke-linecap="round"/>
</g>
		<g transform="matrix(1 0 0 1 106.993 -157.3905)" id="Vector_36">
<path style="stroke: none; stroke-width: 1; stroke-dasharray: none; stroke-linecap: butt; stroke-dashoffset: 0; stroke-linejoin: miter; stroke-miterlimit: 4; is-custom-font: none; font-file-url: none; fill: rgb(177,181,186); fill-rule: nonzero; opacity: 1;" transform=" translate(-529.993, -159.6095)" d="M 538.691 160.825 H 521.295 C 520.607 160.825 520.079 160.296 520.079 159.609 C 520.079 158.923 520.607 158.394 521.295 158.394 H 538.691 C 539.378 158.394 539.907 158.923 539.907 159.609 C 539.907 160.243 539.378 160.825 538.691 160.825 Z" stroke-linecap="round"/>
</g>
		<g transform="matrix(1 0 0 1 106.9665 -152.213)" id="Vector_37">
<path style="stroke: none; stroke-width: 1; stroke-dasharray: none; stroke-linecap: butt; stroke-dashoffset: 0; stroke-linejoin: miter; stroke-miterlimit: 4; is-custom-font: none; font-file-url: none; fill: rgb(177,181,186); fill-rule: nonzero; opacity: 1;" transform=" translate(-529.9665, -164.787)" d="M 539.537 165.157 H 520.396 C 520.184 165.157 520.026 164.998 520.026 164.787 C 520.026 164.576 520.184 164.417 520.396 164.417 H 539.537 C 539.748 164.417 539.907 164.576 539.907 164.787 C 539.907 164.998 539.748 165.157 539.537 165.157 Z" stroke-linecap="round"/>
</g>
		<g transform="matrix(1 0 0 1 106.9665 -147.9335)" id="Vector_38">
<path style="stroke: none; stroke-width: 1; stroke-dasharray: none; stroke-linecap: butt; stroke-dashoffset: 0; stroke-linejoin: miter; stroke-miterlimit: 4; is-custom-font: none; font-file-url: none; fill: rgb(177,181,186); fill-rule: nonzero; opacity: 1;" transform=" translate(-529.9665, -169.0665)" d="M 539.537 169.436 H 520.396 C 520.184 169.436 520.026 169.278 520.026 169.067 C 520.026 168.855 520.184 168.697 520.396 168.697 H 539.537 C 539.748 168.697 539.907 168.855 539.907 169.067 C 539.907 169.278 539.748 169.436 539.537 169.436 Z" stroke-linecap="round"/>
</g>
		<g transform="matrix(1 0 0 1 106.9665 -143.601)" id="Vector_39">
<path style="stroke: none; stroke-width: 1; stroke-dasharray: none; stroke-linecap: butt; stroke-dashoffset: 0; stroke-linejoin: miter; stroke-miterlimit: 4; is-custom-font: none; font-file-url: none; fill: rgb(177,181,186); fill-rule: nonzero; opacity: 1;" transform=" translate(-529.9665, -173.399)" d="M 539.537 173.769 H 520.396 C 520.184 173.769 520.026 173.61 520.026 173.399 C 520.026 173.188 520.184 173.029 520.396 173.029 H 539.537 C 539.748 173.029 539.907 173.188 539.907 173.399 C 539.907 173.61 539.748 173.769 539.537 173.769 Z" stroke-linecap="round"/>
</g>
		<g transform="matrix(1 0 0 1 162.2735 -105.6665)" id="Vector_40">
<path style="stroke: none; stroke-width: 1; stroke-dasharray: none; stroke-linecap: butt; stroke-dashoffset: 0; stroke-linejoin: miter; stroke-miterlimit: 4; is-custom-font: none; font-file-url: none; fill: rgb(177,181,186); fill-rule: nonzero; opacity: 1;" transform=" translate(-585.2735, -211.3335)" d="M 594.844 211.703 H 575.703 C 575.491 211.703 575.333 211.545 575.333 211.333 C 575.333 211.122 575.491 210.964 575.703 210.964 H 594.844 C 595.055 210.964 595.214 211.122 595.214 211.333 C 595.214 211.545 595.055 211.703 594.844 211.703 Z" stroke-linecap="round"/>
</g>
		<g transform="matrix(1 0 0 1 162.2735 -101.334)" id="Vector_41">
<path style="stroke: none; stroke-width: 1; stroke-dasharray: none; stroke-linecap: butt; stroke-dashoffset: 0; stroke-linejoin: miter; stroke-miterlimit: 4; is-custom-font: none; font-file-url: none; fill: rgb(177,181,186); fill-rule: nonzero; opacity: 1;" transform=" translate(-585.2735, -215.666)" d="M 594.844 216.036 H 575.703 C 575.491 216.036 575.333 215.877 575.333 215.666 C 575.333 215.454 575.491 215.296 575.703 215.296 H 594.844 C 595.055 215.296 595.214 215.454 595.214 215.666 C 595.214 215.877 595.055 216.036 594.844 216.036 Z" stroke-linecap="round"/>
</g>
		<g transform="matrix(1 0 0 1 160.9515 -97.002)" id="Vector_42">
<path style="stroke: none; stroke-width: 1; stroke-dasharray: none; stroke-linecap: butt; stroke-dashoffset: 0; stroke-linejoin: miter; stroke-miterlimit: 4; is-custom-font: none; font-file-url: none; fill: rgb(177,181,186); fill-rule: nonzero; opacity: 1;" transform=" translate(-583.9515, -219.998)" d="M 592.2 220.368 H 575.703 C 575.491 220.368 575.333 220.209 575.333 219.998 C 575.333 219.787 575.491 219.628 575.703 219.628 H 592.2 C 592.411 219.628 592.57 219.787 592.57 219.998 C 592.517 220.209 592.359 220.368 592.2 220.368 Z" stroke-linecap="round"/>
</g>
		<g transform="matrix(1 0 0 1 181.0965 -145.5295)" id="Vector_43">
<path style="stroke: none; stroke-width: 1; stroke-dasharray: none; stroke-linecap: butt; stroke-dashoffset: 0; stroke-linejoin: miter; stroke-miterlimit: 4; is-custom-font: none; font-file-url: none; fill: rgb(0,0,0); fill-rule: nonzero; opacity: 0.1;" transform=" translate(-604.0965, -171.4705)" d="M 630.693 159.134 H 577.5 V 183.807 H 630.693 V 159.134 Z" stroke-linecap="round"/>
</g>
		<g transform="matrix(1 0 0 1 178.929 -147.6955)" id="Vector_44">
<path style="stroke: none; stroke-width: 1; stroke-dasharray: none; stroke-linecap: butt; stroke-dashoffset: 0; stroke-linejoin: miter; stroke-miterlimit: 4; is-custom-font: none; font-file-url: none; fill: rgb(226,226,226); fill-rule: nonzero; opacity: 1;" transform=" translate(-601.929, -169.3045)" d="M 628.525 156.968 H 575.333 V 181.641 H 628.525 V 156.968 Z" stroke-linecap="round"/>
</g>
		<g transform="matrix(1 0 0 1 -1.798 228.293)" id="Vector_45">
<path style="stroke: none; stroke-width: 1; stroke-dasharray: none; stroke-linecap: butt; stroke-dashoffset: 0; stroke-linejoin: miter; stroke-miterlimit: 4; is-custom-font: none; font-file-url: none; fill: rgb(178,182,187); fill-rule: nonzero; opacity: 1;" transform=" translate(-421.202, -545.293)" d="M 738.346 545.61 H 104.005 C 103.846 545.61 103.688 545.504 103.688 545.293 C 103.688 545.134 103.793 544.976 104.005 544.976 H 738.399 C 738.558 544.976 738.716 545.081 738.716 545.293 C 738.716 545.504 738.558 545.61 738.346 545.61 Z" stroke-linecap="round"/>
</g>
		<g transform="matrix(1 0 0 1 -190.413 -80.6185)" id="Vector_46">
<path style="stroke: none; stroke-width: 1; stroke-dasharray: none; stroke-linecap: butt; stroke-dashoffset: 0; stroke-linejoin: miter; stroke-miterlimit: 4; is-custom-font: none; font-file-url: none; fill: rgb(255,255,255); fill-rule: nonzero; opacity: 1;" transform=" translate(-232.587, -236.3815)" d="M 203.479 276.614 H 261.695 V 196.149 H 203.479 V 276.614 Z" stroke-linecap="round"/>
</g>
		<g transform="matrix(1 0 0 1 -190.413 -80.6195)" id="Vector_47">
<path style="stroke: none; stroke-width: 1; stroke-dasharray: none; stroke-linecap: butt; stroke-dashoffset: 0; stroke-linejoin: miter; stroke-miterlimit: 4; is-custom-font: none; font-file-url: none; fill: rgb(221,221,221); fill-rule: nonzero; opacity: 1;" transform=" translate(-232.587, -236.3805)" d="M 211.252 269.164 H 253.922 V 203.597 H 211.252 V 269.164 Z" stroke-linecap="round"/>
</g>
		<g transform="matrix(1 0 0 1 -160.423 -80.65)" id="Vector_48">
<path style="stroke: none; stroke-width: 1; stroke-dasharray: none; stroke-linecap: butt; stroke-dashoffset: 0; stroke-linejoin: miter; stroke-miterlimit: 4; is-custom-font: none; font-file-url: none; fill: rgb(218,221,223); fill-rule: nonzero; opacity: 1;" transform=" translate(-262.577, -236.35)" d="M 263.423 196.117 H 261.731 V 276.583 H 263.423 V 196.117 Z" stroke-linecap="round"/>
</g>
		<g transform="matrix(1 0 0 1 -190.3865 -74.3575)" id="Vector_49">
<path style="stroke: none; stroke-width: 1; stroke-dasharray: none; stroke-linecap: butt; stroke-dashoffset: 0; stroke-linejoin: miter; stroke-miterlimit: 4; is-custom-font: none; font-file-url: none; fill: rgb(177,181,186); fill-rule: nonzero; opacity: 1;" transform=" translate(-232.6135, -242.6425)" d="M 222.62 258.493 H 242.607 V 226.792 H 222.62 V 258.493 Z" stroke-linecap="round"/>
</g>
		<g transform="matrix(1 0 0 1 -190.4295 -99.0625)" id="Vector_50">
<path style="stroke: none; stroke-width: 1; stroke-dasharray: none; stroke-linecap: butt; stroke-dashoffset: 0; stroke-linejoin: miter; stroke-miterlimit: 4; is-custom-font: none; font-file-url: none; fill: rgb(22,115,253); fill-rule: nonzero; opacity: 1;" transform=" translate(-232.5705, -217.9375)" d="M 232.597 222.851 C 238.043 222.851 242.432 218.466 242.432 213.024 H 222.709 C 222.762 218.413 227.151 222.851 232.597 222.851 Z" stroke-linecap="round"/>
</g>
		<g transform="matrix(1 0 0 1 162.247 41.263)" id="Vector_51">
<path style="stroke: rgb(134,138,145); stroke-width: 0.4628; stroke-dasharray: none; stroke-linecap: butt; stroke-dashoffset: 0; stroke-linejoin: miter; stroke-miterlimit: 10; is-custom-font: none; font-file-url: none; fill: none; fill-rule: nonzero; opacity: 1;" transform=" translate(-585.247, -358.263)" d="M 589.451 378.868 L 581.043 337.658" stroke-linecap="round"/>
</g>
		<g transform="matrix(1 0 0 1 168.1955 33.5495)" id="Vector_52">
<path style="stroke: rgb(134,138,145); stroke-width: 0.4628; stroke-dasharray: none; stroke-linecap: butt; stroke-dashoffset: 0; stroke-linejoin: miter; stroke-miterlimit: 10; is-custom-font: none; font-file-url: none; fill: none; fill-rule: nonzero; opacity: 1;" transform=" translate(-591.1955, -350.5495)" d="M 591.777 323.763 L 590.614 377.336" stroke-linecap="round"/>
</g>
		<g transform="matrix(1 0 0 1 174.593 24.726)" id="Vector_53">
<path style="stroke: rgb(134,138,145); stroke-width: 0.4628; stroke-dasharray: none; stroke-linecap: butt; stroke-dashoffset: 0; stroke-linejoin: miter; stroke-miterlimit: 10; is-custom-font: none; font-file-url: none; fill: none; fill-rule: nonzero; opacity: 1;" transform=" translate(-597.593, -341.726)" d="M 603.991 333.695 L 591.195 349.757" stroke-linecap="round"/>
</g>
		<g transform="matrix(1 0 0 1 167.1023 75.314)" id="Vector_54">
<path style="stroke: none; stroke-width: 1; stroke-dasharray: none; stroke-linecap: butt; stroke-dashoffset: 0; stroke-linejoin: miter; stroke-miterlimit: 4; is-custom-font: none; font-file-url: none; fill: rgb(97,101,109); fill-rule: nonzero; opacity: 1;" transform=" translate(-590.1023, -392.314)" d="M 595.796 389.117 L 594.527 387.215 C 593.258 385.313 592.57 383.042 592.57 380.77 V 376.226 H 587.653 V 380.77 C 587.653 383.094 586.965 385.313 585.696 387.215 L 584.427 389.117 C 581.784 393.133 580.938 398.046 582.101 402.748 L 583.529 408.402 H 596.642 L 598.069 402.748 C 599.285 398.099 598.439 393.133 595.796 389.117 Z" stroke-linecap="round"/>
</g>
		<g transform="matrix(1 0 0 1 171.8254 75.314)" id="Vector_55">
<path style="stroke: none; stroke-width: 1; stroke-dasharray: none; stroke-linecap: butt; stroke-dashoffset: 0; stroke-linejoin: miter; stroke-miterlimit: 4; is-custom-font: none; font-file-url: none; fill: rgb(0,0,0); fill-rule: nonzero; opacity: 0.2;" transform=" translate(-594.8254, -392.314)" d="M 595.795 389.117 L 594.526 387.215 C 593.257 385.313 592.57 383.042 592.57 380.77 V 376.226 H 591.142 V 380.77 C 591.142 383.094 591.724 384.996 592.781 387.215 L 594.209 389.963 C 597.805 398.046 591.037 408.402 591.037 408.402 H 596.641 L 598.069 402.748 C 599.285 398.099 598.439 393.133 595.795 389.117 Z" stroke-linecap="round"/>
</g>
		<g transform="matrix(1 0 0 1 170.786 39.466)" id="Vector_56">
<path style="stroke: rgb(134,138,145); stroke-width: 0.4628; stroke-dasharray: none; stroke-linecap: butt; stroke-dashoffset: 0; stroke-linejoin: miter; stroke-miterlimit: 10; is-custom-font: none; font-file-url: none; fill: none; fill-rule: nonzero; opacity: 1;" transform=" translate(-593.786, -356.466)" d="M 586.172 362.753 L 601.4 350.179" stroke-linecap="round"/>
</g>
		<g transform="matrix(1 0 0 1 158.44 49.294)" id="Vector_57">
<path style="stroke: rgb(134,138,145); stroke-width: 0.4628; stroke-dasharray: none; stroke-linecap: butt; stroke-dashoffset: 0; stroke-linejoin: miter; stroke-miterlimit: 10; is-custom-font: none; font-file-url: none; fill: none; fill-rule: nonzero; opacity: 1;" transform=" translate(-581.44, -366.294)" d="M 574.698 359.954 L 588.182 372.634" stroke-linecap="round"/>
</g>
		<g transform="matrix(1 0 0 1 178.9708 19.8541)" id="Vector_58">
<path style="stroke: none; stroke-width: 1; stroke-dasharray: none; stroke-linecap: butt; stroke-dashoffset: 0; stroke-linejoin: miter; stroke-miterlimit: 4; is-custom-font: none; font-file-url: none; fill: rgb(22,115,253); fill-rule: nonzero; opacity: 1;" transform=" translate(-601.9708, -336.8542)" d="M 596.377 343.258 L 598.492 334.012 C 599.232 330.737 603.198 329.363 605.842 331.424 C 608.485 333.537 608.01 337.658 604.943 339.137 L 596.377 343.258 Z" stroke-linecap="round"/>
</g>
		<g transform="matrix(1 0 0 1 178.9708 19.8541)" id="Vector_59">
<path style="stroke: none; stroke-width: 1; stroke-dasharray: none; stroke-linecap: butt; stroke-dashoffset: 0; stroke-linejoin: miter; stroke-miterlimit: 4; is-custom-font: none; font-file-url: none; fill: rgb(255,255,255); fill-rule: nonzero; opacity: 0.3;" transform=" translate(-601.9708, -336.8542)" d="M 596.377 343.258 L 598.492 334.012 C 599.232 330.737 603.198 329.363 605.842 331.424 C 608.485 333.537 608.01 337.658 604.943 339.137 L 596.377 343.258 Z" stroke-linecap="round"/>
</g>
		<g transform="matrix(1 0 0 1 178.9555 20.42)" id="Vector_60">
<path style="stroke: none; stroke-width: 1; stroke-dasharray: none; stroke-linecap: butt; stroke-dashoffset: 0; stroke-linejoin: miter; stroke-miterlimit: 4; is-custom-font: none; font-file-url: none; fill: rgb(22,115,253); fill-rule: nonzero; opacity: 1;" transform=" translate(-601.9555, -337.42)" d="M 607.534 335.122 C 607.534 336.76 606.635 338.397 604.943 339.19 L 596.377 343.311 L 605.789 331.529 C 607.005 332.374 607.534 333.748 607.534 335.122 Z" stroke-linecap="round"/>
</g>
		<g transform="matrix(1 0 0 1 168.5156 11.0685)" id="Vector_61">
<path style="stroke: none; stroke-width: 1; stroke-dasharray: none; stroke-linecap: butt; stroke-dashoffset: 0; stroke-linejoin: miter; stroke-miterlimit: 4; is-custom-font: none; font-file-url: none; fill: rgb(22,115,253); fill-rule: nonzero; opacity: 1;" transform=" translate(-591.5157, -328.0685)" d="M 591.513 339.137 L 585.485 326.616 C 583.317 322.178 586.595 317 591.513 317 C 596.483 317 599.708 322.178 597.541 326.616 L 591.513 339.137 Z" stroke-linecap="round"/>
</g>
		<g transform="matrix(1 0 0 1 168.5156 11.0685)" id="Vector_62">
<path style="stroke: none; stroke-width: 1; stroke-dasharray: none; stroke-linecap: butt; stroke-dashoffset: 0; stroke-linejoin: miter; stroke-miterlimit: 4; is-custom-font: none; font-file-url: none; fill: rgb(255,255,255); fill-rule: nonzero; opacity: 0.3;" transform=" translate(-591.5157, -328.0685)" d="M 591.513 339.137 L 585.485 326.616 C 583.317 322.178 586.595 317 591.513 317 C 596.483 317 599.708 322.178 597.541 326.616 L 591.513 339.137 Z" stroke-linecap="round"/>
</g>
		<g transform="matrix(1 0 0 1 171.8661 11.095)" id="Vector_63">
<path style="stroke: none; stroke-width: 1; stroke-dasharray: none; stroke-linecap: butt; stroke-dashoffset: 0; stroke-linejoin: miter; stroke-miterlimit: 4; is-custom-font: none; font-file-url: none; fill: rgb(255,255,255); fill-rule: nonzero; opacity: 0.3;" transform=" translate(-594.8661, -328.095)" d="M 591.777 317.053 L 591.512 339.137 L 597.54 326.616 C 599.655 322.283 596.589 317.264 591.777 317.053 Z" stroke-linecap="round"/>
</g>
		<g transform="matrix(1 0 0 1 158.0326 28.1591)" id="Vector_64">
<path style="stroke: none; stroke-width: 1; stroke-dasharray: none; stroke-linecap: butt; stroke-dashoffset: 0; stroke-linejoin: miter; stroke-miterlimit: 4; is-custom-font: none; font-file-url: none; fill: rgb(22,115,253); fill-rule: nonzero; opacity: 1;" transform=" translate(-581.0326, -345.159)" d="M 584.798 355.832 L 575.968 345.371 C 572.848 341.62 574.699 335.914 579.404 334.699 C 584.11 333.484 588.499 337.658 587.494 342.413 L 584.798 355.832 Z" stroke-linecap="round"/>
</g>
		<g transform="matrix(1 0 0 1 160.5682 28.1331)" id="Vector_65">
<path style="stroke: none; stroke-width: 1; stroke-dasharray: none; stroke-linecap: butt; stroke-dashoffset: 0; stroke-linejoin: miter; stroke-miterlimit: 4; is-custom-font: none; font-file-url: none; fill: rgb(255,255,255); fill-rule: nonzero; opacity: 0.3;" transform=" translate(-583.5682, -345.133)" d="M 587.547 342.413 C 588.499 337.658 584.163 333.484 579.457 334.699 L 584.85 355.78 L 587.547 342.413 Z" stroke-linecap="round"/>
</g>
		<g transform="matrix(1 0 0 1 153.553 44.6345)" id="Vector_66">
<path style="stroke: none; stroke-width: 1; stroke-dasharray: none; stroke-linecap: butt; stroke-dashoffset: 0; stroke-linejoin: miter; stroke-miterlimit: 4; is-custom-font: none; font-file-url: none; fill: rgb(22,115,253); fill-rule: nonzero; opacity: 1;" transform=" translate(-576.5531, -361.6346)" d="M 583.581 368.301 L 579.563 358.263 C 578.135 354.67 573.482 353.825 570.891 356.678 C 568.301 359.531 569.57 364.074 573.218 365.184 L 583.581 368.301 Z" stroke-linecap="round"/>
</g>
		<g transform="matrix(1 0 0 1 153.553 44.6345)" id="Vector_67">
<path style="stroke: none; stroke-width: 1; stroke-dasharray: none; stroke-linecap: butt; stroke-dashoffset: 0; stroke-linejoin: miter; stroke-miterlimit: 4; is-custom-font: none; font-file-url: none; fill: rgb(255,255,255); fill-rule: nonzero; opacity: 0.3;" transform=" translate(-576.5531, -361.6346)" d="M 583.581 368.301 L 579.563 358.263 C 578.135 354.67 573.482 353.825 570.891 356.678 C 568.301 359.531 569.57 364.074 573.218 365.184 L 583.581 368.301 Z" stroke-linecap="round"/>
</g>
		<g transform="matrix(1 0 0 1 154.289 44.6442)" id="Vector_68">
<path style="stroke: none; stroke-width: 1; stroke-dasharray: none; stroke-linecap: butt; stroke-dashoffset: 0; stroke-linejoin: miter; stroke-miterlimit: 4; is-custom-font: none; font-file-url: none; fill: rgb(255,255,255); fill-rule: nonzero; opacity: 0.3;" transform=" translate(-577.289, -361.6442)" d="M 571.05 356.519 L 583.528 368.301 L 579.51 358.263 C 578.188 354.776 573.694 353.878 571.05 356.519 Z" stroke-linecap="round"/>
</g>
		<g transform="matrix(1 0 0 1 174.7389 35.5428)" id="Vector_69">
<path style="stroke: none; stroke-width: 1; stroke-dasharray: none; stroke-linecap: butt; stroke-dashoffset: 0; stroke-linejoin: miter; stroke-miterlimit: 4; is-custom-font: none; font-file-url: none; fill: rgb(22,115,253); fill-rule: nonzero; opacity: 1;" transform=" translate(-597.7389, -352.5428)" d="M 590.244 359.531 L 594.632 348.964 C 596.166 345.213 601.136 344.368 603.833 347.379 C 606.529 350.391 605.154 355.251 601.242 356.361 L 590.244 359.531 Z" stroke-linecap="round"/>
</g>
		<g transform="matrix(1 0 0 1 174.7389 35.5428)" id="Vector_70">
<path style="stroke: none; stroke-width: 1; stroke-dasharray: none; stroke-linecap: butt; stroke-dashoffset: 0; stroke-linejoin: miter; stroke-miterlimit: 4; is-custom-font: none; font-file-url: none; fill: rgb(255,255,255); fill-rule: nonzero; opacity: 0.3;" transform=" translate(-597.7389, -352.5428)" d="M 590.244 359.531 L 594.632 348.964 C 596.166 345.213 601.136 344.368 603.833 347.379 C 606.529 350.391 605.154 355.251 601.242 356.361 L 590.244 359.531 Z" stroke-linecap="round"/>
</g>
		<g transform="matrix(1 0 0 1 178.0565 49.663)" id="Vector_71">
<path style="stroke: rgb(134,138,145); stroke-width: 0.4628; stroke-dasharray: none; stroke-linecap: butt; stroke-dashoffset: 0; stroke-linejoin: miter; stroke-miterlimit: 10; is-custom-font: none; font-file-url: none; fill: none; fill-rule: nonzero; opacity: 1;" transform=" translate(-601.0565, -366.663)" d="M 590.667 372.369 L 611.446 360.957" stroke-linecap="round"/>
</g>
		<g transform="matrix(1 0 0 1 180.3755 47.0568)" id="Vector_72">
<path style="stroke: none; stroke-width: 1; stroke-dasharray: none; stroke-linecap: butt; stroke-dashoffset: 0; stroke-linejoin: miter; stroke-miterlimit: 4; is-custom-font: none; font-file-url: none; fill: rgb(22,115,253); fill-rule: nonzero; opacity: 1;" transform=" translate(-603.3755, -364.0568)" d="M 594.051 370.467 L 601.559 360.165 C 604.255 356.519 609.86 356.889 611.975 360.904 C 614.09 364.92 611.341 369.78 606.793 369.992 L 594.051 370.467 Z" stroke-linecap="round"/>
</g>
		<g transform="matrix(1 0 0 1 180.3755 47.0568)" id="Vector_73">
<path style="stroke: none; stroke-width: 1; stroke-dasharray: none; stroke-linecap: butt; stroke-dashoffset: 0; stroke-linejoin: miter; stroke-miterlimit: 4; is-custom-font: none; font-file-url: none; fill: rgb(255,255,255); fill-rule: nonzero; opacity: 0.3;" transform=" translate(-603.3755, -364.0568)" d="M 594.051 370.467 L 601.559 360.165 C 604.255 356.519 609.86 356.889 611.975 360.904 C 614.09 364.92 611.341 369.78 606.793 369.992 L 594.051 370.467 Z" stroke-linecap="round"/>
</g>
		<g transform="matrix(1 0 0 1 180.4403 48.7385)" id="Vector_74">
<path style="stroke: none; stroke-width: 1; stroke-dasharray: none; stroke-linecap: butt; stroke-dashoffset: 0; stroke-linejoin: miter; stroke-miterlimit: 4; is-custom-font: none; font-file-url: none; fill: rgb(22,115,253); fill-rule: nonzero; opacity: 1;" transform=" translate(-603.4403, -365.7385)" d="M 612.24 366.346 C 611.341 368.354 609.332 369.886 606.846 369.992 L 594.104 370.52 L 612.081 360.957 C 612.98 362.701 612.98 364.708 612.24 366.346 Z" stroke-linecap="round"/>
</g>
		<g transform="matrix(1 0 0 1 174.0385 35.5428)" id="Vector_75">
<path style="stroke: none; stroke-width: 1; stroke-dasharray: none; stroke-linecap: butt; stroke-dashoffset: 0; stroke-linejoin: miter; stroke-miterlimit: 4; is-custom-font: none; font-file-url: none; fill: rgb(255,255,255); fill-rule: nonzero; opacity: 0.3;" transform=" translate(-597.0385, -352.5428)" d="M 594.632 348.964 L 590.244 359.531 L 603.833 347.379 C 601.083 344.368 596.166 345.213 594.632 348.964 Z" stroke-linecap="round"/>
</g>
		<g transform="matrix(1 0 0 1 249.5705 162.0135)" id="Vector_76">
<path style="stroke: none; stroke-width: 1; stroke-dasharray: none; stroke-linecap: butt; stroke-dashoffset: 0; stroke-linejoin: miter; stroke-miterlimit: 4; is-custom-font: none; font-file-url: none; fill: rgb(177,181,186); fill-rule: nonzero; opacity: 1;" transform=" translate(-672.5705, -479.0135)" d="M 668.287 413.051 H 662.154 L 680.607 544.976 H 682.987 L 668.287 413.051 Z" stroke-linecap="round"/>
</g>
		<g transform="matrix(1 0 0 1 133.615 162.0135)" id="Vector_77">
<path style="stroke: none; stroke-width: 1; stroke-dasharray: none; stroke-linecap: butt; stroke-dashoffset: 0; stroke-linejoin: miter; stroke-miterlimit: 4; is-custom-font: none; font-file-url: none; fill: rgb(177,181,186); fill-rule: nonzero; opacity: 1;" transform=" translate(-556.615, -479.0135)" d="M 546.199 544.976 H 548.631 L 567.031 413.051 H 560.898 L 546.199 544.976 Z" stroke-linecap="round"/>
</g>
		<g transform="matrix(1 0 0 1 249.5435 161.987)" id="Vector_78">
<path style="stroke: none; stroke-width: 1; stroke-dasharray: none; stroke-linecap: butt; stroke-dashoffset: 0; stroke-linejoin: miter; stroke-miterlimit: 4; is-custom-font: none; font-file-url: none; fill: rgb(133,137,144); fill-rule: nonzero; opacity: 1;" transform=" translate(-672.5435, -478.987)" d="M 682.986 544.976 H 681.929 L 666.119 416.696 C 666.013 415.798 665.273 415.111 664.374 415.006 L 662.365 414.794 L 662.101 412.998 H 668.234 L 682.986 544.976 Z" stroke-linecap="round"/>
</g>
		<g transform="matrix(1 0 0 1 134.408 161.987)" id="Vector_79">
<path style="stroke: none; stroke-width: 1; stroke-dasharray: none; stroke-linecap: butt; stroke-dashoffset: 0; stroke-linejoin: miter; stroke-miterlimit: 4; is-custom-font: none; font-file-url: none; fill: rgb(133,137,144); fill-rule: nonzero; opacity: 1;" transform=" translate(-557.408, -478.987)" d="M 547.732 544.976 L 564.176 416.855 C 564.282 415.904 563.648 415.006 562.749 414.847 L 560.792 414.425 L 560.951 412.998 H 567.084 L 548.631 544.976 H 547.732 Z" stroke-linecap="round"/>
</g>
		<g transform="matrix(1 0 0 1 268.4465 162.0135)" id="Vector_80">
<path style="stroke: none; stroke-width: 1; stroke-dasharray: none; stroke-linecap: butt; stroke-dashoffset: 0; stroke-linejoin: miter; stroke-miterlimit: 4; is-custom-font: none; font-file-url: none; fill: rgb(177,181,186); fill-rule: nonzero; opacity: 1;" transform=" translate(-691.4465, -479.0135)" d="M 687.164 413.051 H 681.03 L 699.484 544.976 H 701.863 L 687.164 413.051 Z" stroke-linecap="round"/>
</g>
		<g transform="matrix(1 0 0 1 152.518 162.0135)" id="Vector_81">
<path style="stroke: none; stroke-width: 1; stroke-dasharray: none; stroke-linecap: butt; stroke-dashoffset: 0; stroke-linejoin: miter; stroke-miterlimit: 4; is-custom-font: none; font-file-url: none; fill: rgb(177,181,186); fill-rule: nonzero; opacity: 1;" transform=" translate(-575.518, -479.0135)" d="M 565.075 544.976 H 567.507 L 585.961 413.051 H 579.827 L 565.075 544.976 Z" stroke-linecap="round"/>
</g>
		<g transform="matrix(1 0 0 1 268.3935 161.987)" id="Vector_82">
<path style="stroke: none; stroke-width: 1; stroke-dasharray: none; stroke-linecap: butt; stroke-dashoffset: 0; stroke-linejoin: miter; stroke-miterlimit: 4; is-custom-font: none; font-file-url: none; fill: rgb(133,137,144); fill-rule: nonzero; opacity: 1;" transform=" translate(-691.3935, -478.987)" d="M 701.863 544.976 H 700.805 L 694.619 498.165 C 694.619 498.165 694.619 498.165 692.715 497.056 L 681.189 414.794 L 680.924 412.998 H 687.058 L 701.863 544.976 Z" stroke-linecap="round"/>
</g>
		<g transform="matrix(1 0 0 1 153.258 161.987)" id="Vector_83">
<path style="stroke: none; stroke-width: 1; stroke-dasharray: none; stroke-linecap: butt; stroke-dashoffset: 0; stroke-linejoin: miter; stroke-miterlimit: 4; is-custom-font: none; font-file-url: none; fill: rgb(133,137,144); fill-rule: nonzero; opacity: 1;" transform=" translate(-576.258, -478.987)" d="M 566.608 544.976 L 572.583 498.588 C 570.415 497.109 570.415 497.109 570.415 497.109 L 579.774 412.998 H 585.908 L 567.454 544.976 H 566.608 Z" stroke-linecap="round"/>
</g>
		<g transform="matrix(1 0 0 1 211.024 93.6735)" id="Vector_84">
<path style="stroke: none; stroke-width: 1; stroke-dasharray: none; stroke-linecap: butt; stroke-dashoffset: 0; stroke-linejoin: miter; stroke-miterlimit: 4; is-custom-font: none; font-file-url: none; fill: rgb(133,137,144); fill-rule: nonzero; opacity: 1;" transform=" translate(-634.024, -410.6735)" d="M 568.459 410.673 C 568.459 411.941 569.517 412.998 570.786 412.998 H 697.263 C 698.532 412.998 699.589 411.941 699.589 410.673 C 699.589 409.405 698.532 408.349 697.263 408.349 H 570.786 C 569.517 408.349 568.459 409.405 568.459 410.673 Z" stroke-linecap="round"/>
</g>
		<g transform="matrix(1 0 0 1 179.511 93.6735)" id="Vector_85">
<path style="stroke: none; stroke-width: 1; stroke-dasharray: none; stroke-linecap: butt; stroke-dashoffset: 0; stroke-linejoin: miter; stroke-miterlimit: 4; is-custom-font: none; font-file-url: none; fill: rgb(177,181,186); fill-rule: nonzero; opacity: 1;" transform=" translate(-602.511, -410.6735)" d="M 550.059 410.673 C 550.059 411.941 551.116 412.998 552.385 412.998 H 652.636 C 653.905 412.998 654.963 411.941 654.963 410.673 C 654.963 409.405 653.905 408.349 652.636 408.349 H 552.385 C 551.116 408.349 550.059 409.405 550.059 410.673 Z" stroke-linecap="round"/>
</g>
		<g transform="matrix(1 0 0 1 212.7955 86.541)" id="Vector_86">
<path style="stroke: none; stroke-width: 1; stroke-dasharray: none; stroke-linecap: butt; stroke-dashoffset: 0; stroke-linejoin: miter; stroke-miterlimit: 4; is-custom-font: none; font-file-url: none; fill: rgb(133,137,144); fill-rule: nonzero; opacity: 1;" transform=" translate(-635.7955, -403.541)" d="M 656.602 408.349 H 619.801 C 617.157 408.349 614.989 406.183 614.989 403.541 C 614.989 400.9 617.157 398.733 619.801 398.733 H 656.602 V 408.349 Z" stroke-linecap="round"/>
</g>
		<g transform="matrix(1 0 0 1 237.409 86.5145)" id="Vector_87">
<path style="stroke: none; stroke-width: 1; stroke-dasharray: none; stroke-linecap: butt; stroke-dashoffset: 0; stroke-linejoin: miter; stroke-miterlimit: 4; is-custom-font: none; font-file-url: none; fill: rgb(97,101,109); fill-rule: nonzero; opacity: 1;" transform=" translate(-660.409, -403.5145)" d="M 653.535 408.349 H 672.094 V 406.922 H 666.331 V 400.107 H 672.094 V 398.68 H 653.535 C 650.891 398.68 648.724 400.846 648.724 403.488 C 648.724 406.235 650.891 408.349 653.535 408.349 Z" stroke-linecap="round"/>
</g>
		<g transform="matrix(1 0 0 1 237.488 86.5145)" id="Vector_88">
<path style="stroke: none; stroke-width: 1; stroke-dasharray: none; stroke-linecap: butt; stroke-dashoffset: 0; stroke-linejoin: miter; stroke-miterlimit: 4; is-custom-font: none; font-file-url: none; fill: rgb(255,255,255); fill-rule: nonzero; opacity: 1;" transform=" translate(-660.488, -403.5145)" d="M 653.588 406.922 H 670.772 V 400.107 H 653.588 C 651.737 400.107 650.204 401.639 650.204 403.488 C 650.204 405.443 651.684 406.922 653.588 406.922 Z" stroke-linecap="round"/>
</g>
		<g transform="matrix(1 0 0 1 206.0275 78.0345)" id="Vector_89">
<path style="stroke: none; stroke-width: 1; stroke-dasharray: none; stroke-linecap: butt; stroke-dashoffset: 0; stroke-linejoin: miter; stroke-miterlimit: 4; is-custom-font: none; font-file-url: none; fill: rgb(177,181,186); fill-rule: nonzero; opacity: 1;" transform=" translate(-629.0275, -395.0345)" d="M 645.022 398.733 H 614.302 C 613.614 398.733 613.033 398.152 613.033 397.465 V 392.604 C 613.033 391.918 613.614 391.336 614.302 391.336 H 645.022 V 398.733 Z" stroke-linecap="round"/>
</g>
		<g transform="matrix(1 0 0 1 203.4365 78.1405)" id="Vector_90">
<path style="stroke: none; stroke-width: 1; stroke-dasharray: none; stroke-linecap: butt; stroke-dashoffset: 0; stroke-linejoin: miter; stroke-miterlimit: 4; is-custom-font: none; font-file-url: none; fill: rgb(133,137,144); fill-rule: nonzero; opacity: 1;" transform=" translate(-626.4365, -395.1405)" d="M 631.75 396.514 H 621.122 C 620.858 396.514 620.594 396.303 620.594 395.986 V 394.295 C 620.594 394.031 620.805 393.767 621.122 393.767 H 631.75 C 632.015 393.767 632.279 393.978 632.279 394.295 V 395.986 C 632.279 396.25 632.015 396.514 631.75 396.514 Z" stroke-linecap="round"/>
</g>
		<g transform="matrix(1 0 0 1 224.93 78.0345)" id="Vector_91">
<path style="stroke: none; stroke-width: 1; stroke-dasharray: none; stroke-linecap: butt; stroke-dashoffset: 0; stroke-linejoin: miter; stroke-miterlimit: 4; is-custom-font: none; font-file-url: none; fill: rgb(133,137,144); fill-rule: nonzero; opacity: 1;" transform=" translate(-647.93, -395.0345)" d="M 640.21 398.733 H 656.919 V 391.336 H 640.21 C 639.523 391.336 638.941 391.918 638.941 392.604 V 397.465 C 638.941 398.152 639.523 398.733 640.21 398.733 Z" stroke-linecap="round"/>
</g>
		<g transform="matrix(1 0 0 1 225.4855 78.0085)" id="Vector_92">
<path style="stroke: none; stroke-width: 1; stroke-dasharray: none; stroke-linecap: butt; stroke-dashoffset: 0; stroke-linejoin: miter; stroke-miterlimit: 4; is-custom-font: none; font-file-url: none; fill: rgb(255,255,255); fill-rule: nonzero; opacity: 1;" transform=" translate(-648.4855, -395.0085)" d="M 640.686 397.624 H 656.919 V 392.393 H 640.686 C 640.369 392.393 640.052 392.657 640.052 393.027 V 396.99 C 640.052 397.359 640.316 397.624 640.686 397.624 Z" stroke-linecap="round"/>
</g>
		<g transform="matrix(1 0 0 1 226.094 70.6115)" id="Vector_93">
<path style="stroke: none; stroke-width: 1; stroke-dasharray: none; stroke-linecap: butt; stroke-dashoffset: 0; stroke-linejoin: miter; stroke-miterlimit: 4; is-custom-font: none; font-file-url: none; fill: rgb(97,101,109); fill-rule: nonzero; opacity: 1;" transform=" translate(-649.094, -387.6115)" d="M 630.059 391.336 H 666.384 C 667.335 391.336 668.129 390.544 668.129 389.593 V 385.63 C 668.129 384.679 667.335 383.887 666.384 383.887 H 630.059 V 391.336 Z" stroke-linecap="round"/>
</g>
		<g transform="matrix(1 0 0 1 203.3045 70.612)" id="Vector_94">
<path style="stroke: none; stroke-width: 1; stroke-dasharray: none; stroke-linecap: butt; stroke-dashoffset: 0; stroke-linejoin: miter; stroke-miterlimit: 4; is-custom-font: none; font-file-url: none; fill: rgb(255,255,255); fill-rule: nonzero; opacity: 1;" transform=" translate(-626.3045, -387.612)" d="M 634.341 390.227 H 617.633 V 384.997 H 634.341 C 634.658 384.997 634.976 385.261 634.976 385.631 V 389.593 C 634.976 389.963 634.711 390.227 634.341 390.227 Z" stroke-linecap="round"/>
</g>
		<g transform="matrix(1 0 0 1 203.2515 70.6645)" id="Vector_95">
<path style="stroke: none; stroke-width: 1; stroke-dasharray: none; stroke-linecap: butt; stroke-dashoffset: 0; stroke-linejoin: miter; stroke-miterlimit: 4; is-custom-font: none; font-file-url: none; fill: rgb(133,137,144); fill-rule: nonzero; opacity: 1;" transform=" translate(-626.2515, -387.6645)" d="M 634.817 383.94 H 616.417 V 385.049 H 634.394 C 634.712 385.049 635.029 385.313 635.029 385.683 V 389.646 C 635.029 389.963 634.764 390.28 634.394 390.28 H 616.417 V 391.389 H 634.817 C 635.505 391.389 636.086 390.808 636.086 390.121 V 385.261 C 636.086 384.521 635.505 383.94 634.817 383.94 Z" stroke-linecap="round"/>
</g>
		<g transform="matrix(1 0 0 1 -103.9772 213.129)" id="Vector_96">
<path style="stroke: none; stroke-width: 1; stroke-dasharray: none; stroke-linecap: butt; stroke-dashoffset: 0; stroke-linejoin: miter; stroke-miterlimit: 4; is-custom-font: none; font-file-url: none; fill: rgb(22,115,253); fill-rule: nonzero; opacity: 1;" transform=" translate(-319.0229, -530.129)" d="M 325.71 515.23 C 326.292 517.449 326.45 518.295 326.345 520.461 L 326.397 535.149 C 326.292 537.685 325.604 540.221 324.335 542.387 L 324.018 542.915 C 323.278 544.236 321.85 545.028 320.37 545.028 H 316.193 C 314.236 545.028 312.597 543.708 312.121 541.858 C 311.592 539.692 311.487 537.42 311.91 535.201 L 315.505 519.51 C 315.77 518.189 316.087 516.657 316.774 515.23 H 325.71 Z" stroke-linecap="round"/>
</g>
		<g transform="matrix(1 0 0 1 -40.37 191.8115)" id="Vector_97">
<path style="stroke: none; stroke-width: 1; stroke-dasharray: none; stroke-linecap: butt; stroke-dashoffset: 0; stroke-linejoin: miter; stroke-miterlimit: 4; is-custom-font: none; font-file-url: none; fill: rgb(252,157,157); fill-rule: nonzero; opacity: 1;" transform=" translate(-382.63, -508.8115)" d="M 382.656 480.783 L 385.247 508.785 C 385.406 512.061 386.252 514.068 387.204 515.495 L 397.356 536.205 L 394.5 540.062 L 383.397 534.515 L 373.615 516.71 C 373.668 513.698 373.35 511.849 372.769 507.781 L 367.904 477.561 L 382.656 480.783 Z" stroke-linecap="round"/>
</g>
		<g transform="matrix(1 0 0 1 -38.7575 200.8195)" id="Vector_98">
<path style="stroke: none; stroke-width: 1; stroke-dasharray: none; stroke-linecap: butt; stroke-dashoffset: 0; stroke-linejoin: miter; stroke-miterlimit: 4; is-custom-font: none; font-file-url: none; fill: rgb(0,0,0); fill-rule: nonzero; opacity: 0.15;" transform=" translate(-384.2425, -517.8195)" d="M 385.565 518.189 C 384.454 516.499 382.974 512.589 382.709 510.793 L 379.325 500.385 C 379.22 499.645 378.638 499.064 377.898 498.958 L 371.13 498.007 L 371.024 496.528 H 384.19 L 385.353 508.785 C 385.617 510.898 386.093 513.646 387.309 515.495 L 397.461 536.206 L 395.717 539.111 L 385.565 518.189 Z" stroke-linecap="round"/>
</g>
		<g transform="matrix(1 0 0 1 -34.1323 213.8695)" id="Vector_99">
<path style="stroke: none; stroke-width: 1; stroke-dasharray: none; stroke-linecap: butt; stroke-dashoffset: 0; stroke-linejoin: miter; stroke-miterlimit: 4; is-custom-font: none; font-file-url: none; fill: rgb(22,115,253); fill-rule: nonzero; opacity: 1;" transform=" translate(-388.8676, -530.8695)" d="M 403.278 539.693 L 397.461 536.153 C 393.231 536.84 389.001 535.255 386.252 531.926 L 373.615 516.71 C 371.341 521.571 370.548 527.012 371.288 532.349 L 373.139 545.029 H 374.567 L 374.99 532.032 C 375.042 531.081 376.206 530.658 376.787 531.398 L 384.454 540.802 C 386.622 543.497 389.9 545.029 393.39 545.029 H 405.393 C 406.344 545.029 406.979 544.078 406.609 543.18 C 405.974 541.647 404.758 540.432 403.278 539.693 Z" stroke-linecap="round"/>
</g>
		<g transform="matrix(1 0 0 1 -101.5439 193.5815)" id="Vector_100">
<path style="stroke: none; stroke-width: 1; stroke-dasharray: none; stroke-linecap: butt; stroke-dashoffset: 0; stroke-linejoin: miter; stroke-miterlimit: 4; is-custom-font: none; font-file-url: none; fill: rgb(252,157,157); fill-rule: nonzero; opacity: 1;" transform=" translate(-321.456, -510.5815)" d="M 326.292 508.627 C 325.657 513.91 325.393 519.193 325.498 524.529 L 325.604 530.869 C 325.498 533.67 323.225 535.836 320.422 535.836 H 319.576 C 316.457 535.836 314.025 533.036 314.448 529.971 L 315.928 522.469 C 316.668 518.665 316.933 514.755 316.721 510.898 L 315.294 485.327 L 328.512 485.538 L 326.292 508.627 Z" stroke-linecap="round"/>
</g>
		<g transform="matrix(1 0 0 1 -76.386 82.4205)" id="Vector_101">
<path style="stroke: none; stroke-width: 1; stroke-dasharray: none; stroke-linecap: butt; stroke-dashoffset: 0; stroke-linejoin: miter; stroke-miterlimit: 4; is-custom-font: none; font-file-url: none; fill: rgb(63,66,73); fill-rule: nonzero; opacity: 1;" transform=" translate(-346.614, -399.4205)" d="M 375.201 302.26 L 377.052 324.819 L 378.744 343.681 C 379.642 353.772 380.224 363.81 380.488 373.954 L 384.93 496.581 H 370.495 L 345.75 334.805 C 345.591 333.695 344.639 332.903 343.529 332.903 C 342.366 332.903 341.414 333.801 341.308 334.963 L 328.354 496.581 L 315.241 496.475 L 308.737 379.872 C 307.362 354.987 309.213 330.05 314.342 305.694 L 315.188 302.26 H 375.201 Z" stroke-linecap="round"/>
</g>
		<g transform="matrix(1 0 0 1 -101.282 199.2085)" id="Vector_102">
<path style="stroke: none; stroke-width: 1; stroke-dasharray: none; stroke-linecap: butt; stroke-dashoffset: 0; stroke-linejoin: miter; stroke-miterlimit: 4; is-custom-font: none; font-file-url: none; fill: rgb(0,0,0); fill-rule: nonzero; opacity: 0.15;" transform=" translate(-321.718, -516.2085)" d="M 327.455 496.581 C 327.455 496.581 325.869 513.012 325.763 515.178 V 515.231 C 325.551 518.295 325.498 521.412 325.551 524.529 L 325.657 530.869 C 325.551 533.564 323.436 535.73 320.74 535.836 C 323.172 533.987 322.96 530.922 323.013 528.65 L 323.436 500.86 C 323.436 499.962 322.802 499.169 321.903 499.011 L 316.034 497.954 L 315.981 496.633 L 327.455 496.581 Z" stroke-linecap="round"/>
</g>
		<g transform="matrix(1 0 0 1 -89.438 97.742)" id="Vector_103">
<path style="stroke: none; stroke-width: 1; stroke-dasharray: none; stroke-linecap: butt; stroke-dashoffset: 0; stroke-linejoin: miter; stroke-miterlimit: 4; is-custom-font: none; font-file-url: none; fill: rgb(0,0,0); fill-rule: nonzero; opacity: 0.2;" transform=" translate(-333.562, -414.742)" d="M 343.476 332.903 C 342.894 332.903 342.365 333.114 341.942 333.484 C 341.519 333.854 341.255 334.382 341.255 334.963 L 328.354 496.581 L 323.648 496.528 L 331.579 344.156 C 331.949 337.869 337.131 332.903 343.476 332.903 Z" stroke-linecap="round"/>
</g>
		<g transform="matrix(1 0 0 1 -46.2125 84.692)" id="Vector_104">
<path style="stroke: none; stroke-width: 1; stroke-dasharray: none; stroke-linecap: butt; stroke-dashoffset: 0; stroke-linejoin: miter; stroke-miterlimit: 4; is-custom-font: none; font-file-url: none; fill: rgb(0,0,0); fill-rule: nonzero; opacity: 0.2;" transform=" translate(-376.7875, -401.692)" d="M 375.677 307.754 L 377.052 324.766 L 378.109 336.495 C 379.431 351.289 380.277 366.188 380.7 381.034 L 384.93 496.528 H 378.479 L 370.178 335.756 L 368.645 306.856 H 375.624 L 375.677 307.754 Z" stroke-linecap="round"/>
</g>
		<g transform="matrix(1 0 0 1 -78.1755 -13.1025)" id="Vector_105">
<path style="stroke: none; stroke-width: 1; stroke-dasharray: none; stroke-linecap: butt; stroke-dashoffset: 0; stroke-linejoin: miter; stroke-miterlimit: 4; is-custom-font: none; font-file-url: none; fill: rgb(33,37,43); fill-rule: nonzero; opacity: 1;" transform=" translate(-344.8245, -303.8975)" d="M 375.571 306.856 L 375.148 301.097 L 315.558 300.939 L 314.078 306.856 H 375.571 Z" stroke-linecap="round"/>
</g>
		<g transform="matrix(1 0 0 1 -79.2456 -123.498)" id="Vector_106">
<path style="stroke: none; stroke-width: 1; stroke-dasharray: none; stroke-linecap: butt; stroke-dashoffset: 0; stroke-linejoin: miter; stroke-miterlimit: 4; is-custom-font: none; font-file-url: none; fill: rgb(33,37,43); fill-rule: nonzero; opacity: 1;" transform=" translate(-343.7544, -193.502)" d="M 331.526 166.636 C 331.526 166.636 321.374 170.546 323.437 184.018 C 324.177 189.09 319.312 189.672 316.616 191.785 C 309.583 197.333 312.862 209.696 316.563 209.96 L 361.929 234.369 C 361.929 234.369 379.748 210.065 373.826 198.284 C 371.183 193.053 371.87 192.366 373.721 187.347 C 376.523 179.633 371.235 175.988 371.235 175.988 L 368.433 175.407 L 358.334 152.635 L 338.77 165.791 L 335.862 165.897 L 331.526 166.636 Z" stroke-linecap="round"/>
</g>
		<g transform="matrix(1 0 0 1 -75.3477 -123.9198)" id="Vector_107">
<path style="stroke: none; stroke-width: 1; stroke-dasharray: none; stroke-linecap: butt; stroke-dashoffset: 0; stroke-linejoin: miter; stroke-miterlimit: 4; is-custom-font: none; font-file-url: none; fill: rgb(252,157,157); fill-rule: nonzero; opacity: 1;" transform=" translate(-347.6523, -193.0802)" d="M 338.136 181.377 L 335.386 203.039 C 335.333 204.835 336.814 205.205 336.814 205.205 C 342.63 208.797 346.913 212.179 353.152 209.801 C 354.315 209.379 355.373 208.85 356.483 208.163 L 359.55 205.416 L 359.92 203.62 C 358.545 203.25 357.752 202.457 357.329 201.242 C 357.224 200.872 356.853 200.45 356.853 200.08 L 356.536 175.565 L 338.136 181.377 Z" stroke-linecap="round"/>
</g>
		<g transform="matrix(1 0 0 1 -70.9703 -139.4441)" id="Vector_108">
<path style="stroke: none; stroke-width: 1; stroke-dasharray: none; stroke-linecap: butt; stroke-dashoffset: 0; stroke-linejoin: miter; stroke-miterlimit: 4; is-custom-font: none; font-file-url: none; fill: rgb(252,157,157); fill-rule: nonzero; opacity: 1;" transform=" translate(-352.0298, -177.5559)" d="M 350.826 195.113 L 349.874 195.061 C 342.894 194.479 337.713 188.404 338.294 181.482 L 339.722 163.836 C 339.933 161.511 341.943 159.768 344.269 159.979 L 360.766 161.3 C 363.78 161.564 366.054 164.153 365.789 167.165 L 364.467 183.596 C 363.886 190.464 357.752 195.642 350.826 195.113 Z" stroke-linecap="round"/>
</g>
		<g transform="matrix(1 0 0 1 -70.958 -139.0045)" id="Vector_109">
<path style="stroke: none; stroke-width: 1; stroke-dasharray: none; stroke-linecap: butt; stroke-dashoffset: 0; stroke-linejoin: miter; stroke-miterlimit: 4; is-custom-font: none; font-file-url: none; fill: rgb(33,37,43); fill-rule: nonzero; opacity: 1;" transform=" translate(-352.042, -177.9955)" d="M 352.042 179.369 C 352.801 179.369 353.417 178.754 353.417 177.996 C 353.417 177.237 352.801 176.622 352.042 176.622 C 351.282 176.622 350.667 177.237 350.667 177.996 C 350.667 178.754 351.282 179.369 352.042 179.369 Z" stroke-linecap="round"/>
</g>
		<g transform="matrix(1 0 0 1 -70.218 -138.635)" id="Vector_110">
<path style="stroke: none; stroke-width: 1; stroke-dasharray: none; stroke-linecap: butt; stroke-dashoffset: 0; stroke-linejoin: miter; stroke-miterlimit: 4; is-custom-font: none; font-file-url: none; fill: rgb(255,255,255); fill-rule: nonzero; opacity: 1;" transform=" translate(-352.782, -178.365)" d="M 352.782 178.682 C 352.957 178.682 353.099 178.54 353.099 178.365 C 353.099 178.19 352.957 178.048 352.782 178.048 C 352.607 178.048 352.465 178.19 352.465 178.365 C 352.465 178.54 352.607 178.682 352.782 178.682 Z" stroke-linecap="round"/>
</g>
		<g transform="matrix(1 0 0 1 -60.436 -138.0005)" id="Vector_111">
<path style="stroke: none; stroke-width: 1; stroke-dasharray: none; stroke-linecap: butt; stroke-dashoffset: 0; stroke-linejoin: miter; stroke-miterlimit: 4; is-custom-font: none; font-file-url: none; fill: rgb(33,37,43); fill-rule: nonzero; opacity: 1;" transform=" translate(-362.564, -178.9995)" d="M 362.564 180.373 C 363.323 180.373 363.939 179.758 363.939 178.999 C 363.939 178.241 363.323 177.626 362.564 177.626 C 361.805 177.626 361.189 178.241 361.189 178.999 C 361.189 179.758 361.805 180.373 362.564 180.373 Z" stroke-linecap="round"/>
</g>
		<g transform="matrix(1 0 0 1 -59.8015 -137.578)" id="Vector_112">
<path style="stroke: none; stroke-width: 1; stroke-dasharray: none; stroke-linecap: butt; stroke-dashoffset: 0; stroke-linejoin: miter; stroke-miterlimit: 4; is-custom-font: none; font-file-url: none; fill: rgb(255,255,255); fill-rule: nonzero; opacity: 1;" transform=" translate(-363.1985, -179.422)" d="M 363.198 179.739 C 363.373 179.739 363.516 179.597 363.516 179.422 C 363.516 179.247 363.373 179.105 363.198 179.105 C 363.023 179.105 362.881 179.247 362.881 179.422 C 362.881 179.597 363.023 179.739 363.198 179.739 Z" stroke-linecap="round"/>
</g>
		<g transform="matrix(1 0 0 1 -66.7271 -134.3012)" id="Vector_113">
<path style="stroke: none; stroke-width: 1; stroke-dasharray: none; stroke-linecap: butt; stroke-dashoffset: 0; stroke-linejoin: miter; stroke-miterlimit: 4; is-custom-font: none; font-file-url: none; fill: rgb(0,0,0); fill-rule: nonzero; opacity: 0.09;" transform=" translate(-356.2729, -182.6988)" d="M 356.536 184.335 L 354.686 184.23 C 354.474 184.23 354.315 184.018 354.315 183.807 C 354.315 183.596 354.527 183.437 354.738 183.437 L 356.589 183.543 C 357.065 183.543 357.435 183.226 357.435 182.75 C 357.435 182.275 357.118 181.905 356.642 181.852 C 356.43 181.852 356.272 181.641 356.272 181.43 C 356.272 181.218 356.483 181.06 356.695 181.06 C 357.594 181.113 358.281 181.852 358.228 182.75 C 358.175 183.649 357.435 184.388 356.536 184.335 Z" stroke-linecap="round"/>
</g>
		<g transform="matrix(1 0 0 1 -71.6132 -155.055)" id="Vector_114">
<path style="stroke: none; stroke-width: 1; stroke-dasharray: none; stroke-linecap: butt; stroke-dashoffset: 0; stroke-linejoin: miter; stroke-miterlimit: 4; is-custom-font: none; font-file-url: none; fill: rgb(33,37,43); fill-rule: nonzero; opacity: 1;" transform=" translate(-351.3868, -161.945)" d="M 371.235 175.935 C 369.385 174.297 370.495 171.708 370.495 171.708 V 171.761 C 373.932 157.707 364.943 148.673 356.8 146.982 C 352.147 146.031 339.828 146.612 335.862 160.666 C 335.28 162.674 335.122 164.893 331.526 166.583 C 331.526 166.583 333.641 173.98 334.223 176.675 C 334.487 177.837 337.078 173.505 338.083 173.082 C 338.188 173.029 338.929 174.403 339.405 175.248 C 339.722 175.776 340.515 175.829 340.779 175.248 L 340.885 175.037 C 341.784 173.082 342.313 170.969 342.471 168.802 C 348.446 167.429 348.446 161.353 348.446 161.353 C 353.734 173.663 365.525 170.599 365.525 170.599 L 364.89 177.203 C 364.89 177.203 366.212 176.199 367.534 174.456 L 369.438 176.199 L 371.235 175.935 Z" stroke-linecap="round"/>
</g>
		<g transform="matrix(1 0 0 1 -87.1627 -140.0973)" id="Vector_115">
<path style="stroke: none; stroke-width: 1; stroke-dasharray: none; stroke-linecap: butt; stroke-dashoffset: 0; stroke-linejoin: miter; stroke-miterlimit: 4; is-custom-font: none; font-file-url: none; fill: rgb(252,157,157); fill-rule: nonzero; opacity: 1;" transform=" translate(-335.8373, -176.9026)" d="M 339.087 182.222 C 339.087 182.222 333.06 182.486 332.002 176.463 C 330.945 170.44 338.4 169.648 339.193 175.671 L 339.775 182.275 L 339.087 182.222 Z" stroke-linecap="round"/>
</g>
		<g transform="matrix(1 0 0 1 -87.1491 -141.7644)" id="Vector_116">
<path style="stroke: none; stroke-width: 1; stroke-dasharray: none; stroke-linecap: butt; stroke-dashoffset: 0; stroke-linejoin: miter; stroke-miterlimit: 4; is-custom-font: none; font-file-url: none; fill: rgb(0,0,0); fill-rule: nonzero; opacity: 0.3;" transform=" translate(-335.8509, -175.2356)" d="M 334.012 173.399 C 334.646 172.976 335.281 172.818 335.862 172.976 C 336.444 173.135 336.92 173.505 337.29 174.191 C 337.66 174.878 337.924 175.671 337.871 176.516 V 177.15 C 337.871 177.626 337.078 177.731 337.078 177.203 C 337.078 176.516 337.078 176.516 337.078 176.516 C 337.078 176.305 336.972 175.195 336.602 174.561 C 336.338 174.086 336.021 173.822 335.704 173.716 C 335.333 173.61 334.963 173.716 334.487 174.033 C 334.329 174.139 334.064 174.086 333.959 173.927 C 333.747 173.716 333.8 173.505 334.012 173.399 Z" stroke-linecap="round"/>
</g>
		<g transform="matrix(1 0 0 1 -66.3844 -138.7665)" id="Vector_117">
<path style="stroke: none; stroke-width: 1; stroke-dasharray: none; stroke-linecap: butt; stroke-dashoffset: 0; stroke-linejoin: miter; stroke-miterlimit: 4; is-custom-font: none; font-file-url: none; fill: rgb(255,255,255); fill-rule: nonzero; opacity: 1;" transform=" translate(-356.6156, -178.2335)" d="M 363.146 173.663 C 361.401 173.61 359.867 174.297 358.757 175.512 C 357.329 174.773 355.955 174.984 355.373 175.143 C 354.527 173.293 352.782 171.973 350.614 171.867 C 347.6 171.708 345.009 174.086 344.904 177.097 C 344.745 180.109 347.124 182.698 350.138 182.803 C 353.152 182.909 355.743 180.584 355.849 177.573 C 355.902 176.939 355.796 176.305 355.637 175.777 C 356.166 175.671 357.224 175.565 358.334 176.094 C 357.805 176.886 357.435 177.837 357.382 178.894 C 357.224 181.905 359.603 184.494 362.617 184.6 C 365.631 184.758 368.222 182.381 368.327 179.369 C 368.486 176.358 366.159 173.822 363.146 173.663 Z M 350.191 182.169 C 347.547 182.064 345.485 179.792 345.644 177.15 C 345.75 174.509 348.023 172.448 350.667 172.607 C 353.311 172.712 355.373 174.984 355.214 177.626 C 355.056 180.215 352.782 182.275 350.191 182.169 Z M 362.67 183.913 C 360.026 183.807 357.964 181.535 358.122 178.894 C 358.228 176.252 360.502 174.192 363.146 174.35 C 365.789 174.456 367.851 176.728 367.693 179.369 C 367.534 182.011 365.313 184.071 362.67 183.913 Z" stroke-linecap="round"/>
</g>
		<g transform="matrix(1 0 0 1 -85.446 -136.944)" id="Vector_118">
<path style="stroke: none; stroke-width: 1; stroke-dasharray: none; stroke-linecap: butt; stroke-dashoffset: 0; stroke-linejoin: miter; stroke-miterlimit: 4; is-custom-font: none; font-file-url: none; fill: rgb(22,115,253); fill-rule: nonzero; opacity: 1;" transform=" translate(-337.554, -180.056)" d="M 337.554 181.271 C 338.226 181.271 338.77 180.727 338.77 180.056 C 338.77 179.385 338.226 178.841 337.554 178.841 C 336.883 178.841 336.338 179.385 336.338 180.056 C 336.338 180.727 336.883 181.271 337.554 181.271 Z" stroke-linecap="round"/>
</g>
		<g transform="matrix(1 0 0 1 -85.7389 -136.8915)" id="Vector_119">
<path style="stroke: none; stroke-width: 1; stroke-dasharray: none; stroke-linecap: butt; stroke-dashoffset: 0; stroke-linejoin: miter; stroke-miterlimit: 4; is-custom-font: none; font-file-url: none; fill: rgb(0,0,0); fill-rule: nonzero; opacity: 0.15;" transform=" translate(-337.2612, -180.1085)" d="M 337.924 181.06 C 337.184 181.007 336.655 180.426 336.708 179.686 C 336.708 179.422 336.814 179.211 336.92 178.999 C 336.602 179.211 336.391 179.528 336.338 179.95 C 336.285 180.637 336.814 181.165 337.501 181.218 C 337.765 181.218 337.977 181.165 338.188 181.007 C 338.136 181.06 338.03 181.113 337.924 181.06 Z" stroke-linecap="round"/>
</g>
		<g transform="matrix(1 0 0 1 -84.203 -133.5365)" id="Vector_120">
<path style="stroke: none; stroke-width: 1; stroke-dasharray: none; stroke-linecap: butt; stroke-dashoffset: 0; stroke-linejoin: miter; stroke-miterlimit: 4; is-custom-font: none; font-file-url: none; fill: rgb(0,0,0); fill-rule: nonzero; opacity: 0.15;" transform=" translate(-338.797, -183.4635)" d="M 338.03 182.169 L 339.881 182.381 L 337.713 184.758 L 338.03 182.169 Z" stroke-linecap="round"/>
</g>
		<g transform="matrix(1 0 0 1 -73.3857 -121.8852)" id="Vector_121">
<path style="stroke: none; stroke-width: 1; stroke-dasharray: none; stroke-linecap: butt; stroke-dashoffset: 0; stroke-linejoin: miter; stroke-miterlimit: 4; is-custom-font: none; font-file-url: none; fill: rgb(0,0,0); fill-rule: nonzero; opacity: 0.15;" transform=" translate(-349.6144, -195.1148)" d="M 356.853 198.389 C 356.113 198.442 351.566 198.917 348.076 195.061 C 345.485 194.427 343.687 193.37 342.524 192.472 C 342.366 192.366 342.313 192.102 342.471 191.943 C 342.577 191.785 342.841 191.732 343 191.891 C 343.899 192.577 345.327 193.423 347.23 194.057 C 347.336 194.11 347.442 194.11 347.547 194.162 C 347.812 194.215 348.129 194.321 348.393 194.374 C 348.446 194.374 348.499 194.374 348.499 194.374 C 348.658 194.427 348.869 194.427 349.081 194.479 C 349.557 194.585 350.085 194.638 350.614 194.691 C 352.835 194.849 354.897 194.744 356.8 194.057 L 356.853 198.389 Z" stroke-linecap="round"/>
</g>
		<g transform="matrix(1 0 0 1 -69.04 -129.6991)" id="Vector_122">
<path style="stroke: none; stroke-width: 1; stroke-dasharray: none; stroke-linecap: butt; stroke-dashoffset: 0; stroke-linejoin: miter; stroke-miterlimit: 4; is-custom-font: none; font-file-url: none; fill: rgb(255,255,255); fill-rule: nonzero; opacity: 1;" transform=" translate(-353.96, -187.3009)" d="M 357.276 186.607 C 357.435 186.607 357.541 186.819 357.435 186.977 C 356.589 188.192 355.161 188.932 353.681 188.774 C 352.201 188.562 350.984 187.558 350.456 186.132 C 350.403 185.973 350.508 185.762 350.72 185.815 L 357.276 186.607 Z" stroke-linecap="round"/>
</g>
		<g transform="matrix(1 0 0 1 -65.9561 -149.2483)" id="Vector_123">
<path style="stroke: none; stroke-width: 1; stroke-dasharray: none; stroke-linecap: butt; stroke-dashoffset: 0; stroke-linejoin: miter; stroke-miterlimit: 4; is-custom-font: none; font-file-url: none; fill: rgb(33,37,43); fill-rule: nonzero; opacity: 1;" transform=" translate(-357.0439, -167.7517)" d="M 364.15 172.871 C 353.734 172.712 349.662 163.361 349.609 163.255 C 349.504 163.044 349.609 162.779 349.821 162.674 C 350.032 162.568 350.297 162.674 350.402 162.885 C 350.455 162.991 354.315 171.814 364.097 171.972 C 364.309 171.972 364.52 172.184 364.52 172.395 C 364.52 172.712 364.362 172.871 364.15 172.871 Z" stroke-linecap="round"/>
</g>
		<g transform="matrix(1 0 0 1 -16.735 -88.813)" id="Vector_124">
<path style="stroke: none; stroke-width: 1; stroke-dasharray: none; stroke-linecap: butt; stroke-dashoffset: 0; stroke-linejoin: miter; stroke-miterlimit: 4; is-custom-font: none; font-file-url: none; fill: rgb(252,157,157); fill-rule: nonzero; opacity: 1;" transform=" translate(-406.265, -228.187)" d="M 395.928 217.99 L 426.331 231.199 L 405.604 238.384 L 386.199 234.316 L 395.928 217.99 Z" stroke-linecap="round"/>
</g>
		<g transform="matrix(1 0 0 1 -35.1615 -94.6505)" id="Vector_125">
<path style="stroke: none; stroke-width: 1; stroke-dasharray: none; stroke-linecap: butt; stroke-dashoffset: 0; stroke-linejoin: miter; stroke-miterlimit: 4; is-custom-font: none; font-file-url: none; fill: rgb(22,115,253); fill-rule: nonzero; opacity: 1;" transform=" translate(-387.8385, -222.3495)" d="M 394.13 236.958 L 369.385 229.35 L 374.514 207.741 L 406.292 222.376 L 394.13 236.958 Z" stroke-linecap="round"/>
</g>
		<g transform="matrix(1 0 0 1 -80.7667 -64.615)" id="Vector_126">
<path style="stroke: none; stroke-width: 1; stroke-dasharray: none; stroke-linecap: butt; stroke-dashoffset: 0; stroke-linejoin: miter; stroke-miterlimit: 4; is-custom-font: none; font-file-url: none; fill: rgb(22,115,253); fill-rule: nonzero; opacity: 1;" transform=" translate(-342.2333, -252.385)" d="M 312.809 208.005 L 333.8 203.461 L 360.185 203.831 L 372.769 207.107 C 376.364 208.058 379.061 211.122 379.431 214.82 C 380.013 221.108 379.008 226.919 379.008 226.919 L 379.643 232.467 C 382.392 237.909 384.613 246.098 376.946 254.023 C 375.677 255.344 374.99 257.034 374.99 258.883 C 374.99 273.043 375.201 301.044 375.201 301.044 L 316.245 301.309 C 314.659 301.309 313.496 299.882 313.76 298.35 C 314.871 292.01 316.51 283.451 317.726 276.899 C 318.942 270.507 318.731 263.955 317.091 257.668 L 311.381 235.531 L 302.286 222.323 C 301.916 215.507 306.252 209.537 312.809 208.005 Z" stroke-linecap="round"/>
</g>
		<g transform="matrix(1 0 0 1 -74.8445 -109.3915)" id="Vector_127">
<path style="stroke: none; stroke-width: 1; stroke-dasharray: none; stroke-linecap: butt; stroke-dashoffset: 0; stroke-linejoin: miter; stroke-miterlimit: 4; is-custom-font: none; font-file-url: none; fill: rgb(252,157,157); fill-rule: nonzero; opacity: 1;" transform=" translate(-348.1555, -207.6085)" d="M 335.439 203.937 L 352.623 219.628 L 359.55 211.545 L 360.872 203.831 L 359.497 203.461 L 340.462 195.589 L 335.439 203.937 Z" stroke-linecap="round"/>
</g>
		<g transform="matrix(1 0 0 1 -90.4795 -59.1038)" id="Vector_128">
<path style="stroke: none; stroke-width: 1; stroke-dasharray: none; stroke-linecap: butt; stroke-dashoffset: 0; stroke-linejoin: miter; stroke-miterlimit: 4; is-custom-font: none; font-file-url: none; fill: rgb(252,157,157); fill-rule: nonzero; opacity: 1;" transform=" translate(-332.5205, -257.8962)" d="M 351.513 237.908 L 363.04 238.331 C 363.727 238.331 364.203 238.067 364.362 237.433 C 364.467 237.01 364.203 236.271 363.41 236.165 L 352.782 234.791 C 351.672 234.686 350.561 234.686 349.239 234.897 L 338.929 236.535 C 337.237 236.799 335.65 237.539 334.329 238.701 L 303.608 265.857 C 299.537 269.45 299.695 275.843 303.978 279.171 C 307.785 282.236 313.39 281.496 316.351 277.639 L 340.938 245.2 L 348.711 247.313 C 349.715 247.366 350.614 246.837 351.09 245.992 L 352.888 242.558 C 353.469 241.501 354.738 240.55 355.954 240.339 L 359.233 239.81 L 351.513 237.908 Z" stroke-linecap="round"/>
</g>
		<g transform="matrix(1 0 0 1 -69.5363 -74.363)" id="Vector_129">
<path style="stroke: none; stroke-width: 1; stroke-dasharray: none; stroke-linecap: butt; stroke-dashoffset: 0; stroke-linejoin: miter; stroke-miterlimit: 4; is-custom-font: none; font-file-url: none; fill: rgb(0,0,0); fill-rule: nonzero; opacity: 0.15;" transform=" translate(-353.4637, -242.637)" d="M 359.286 239.811 L 356.378 240.233 C 354.95 240.497 353.681 241.396 352.941 242.664 L 351.09 245.992 C 350.667 246.785 349.821 247.313 348.869 247.313 H 348.764 L 350.561 244.883 C 350.561 244.883 348.023 243.984 347.706 243.773 C 347.547 243.667 347.706 243.298 347.918 243.298 C 348.235 243.298 350.931 244.354 350.931 244.354 L 352.888 241.713 C 352.888 241.713 350.085 240.973 349.662 240.867 C 349.504 240.814 349.61 240.18 350.033 240.286 C 351.09 240.497 353.311 241.184 353.311 241.184 L 354.58 239.494 L 351.566 238.384 L 351.513 237.961 L 359.286 239.811 Z" stroke-linecap="round"/>
</g>
		<g transform="matrix(1 0 0 1 -64.111 -111.1085)" id="Vector_130">
<path style="stroke: none; stroke-width: 1; stroke-dasharray: none; stroke-linecap: butt; stroke-dashoffset: 0; stroke-linejoin: miter; stroke-miterlimit: 4; is-custom-font: none; font-file-url: none; fill: rgb(255,255,255); fill-rule: nonzero; opacity: 1;" transform=" translate(-358.889, -205.8915)" d="M 359.55 211.545 L 356.906 200.238 L 360.872 203.831 L 359.55 211.545 Z" stroke-linecap="round"/>
</g>
		<g transform="matrix(1 0 0 1 -83.701 -106.776)" id="Vector_131">
<path style="stroke: none; stroke-width: 1; stroke-dasharray: none; stroke-linecap: butt; stroke-dashoffset: 0; stroke-linejoin: miter; stroke-miterlimit: 4; is-custom-font: none; font-file-url: none; fill: rgb(22,115,253); fill-rule: nonzero; opacity: 1;" transform=" translate(-339.299, -210.224)" d="M 341.15 206.473 L 336.338 213.975 L 342.26 210.224 L 341.15 206.473 Z" stroke-linecap="round"/>
</g>
		<g transform="matrix(1 0 0 1 -83.701 -106.327)" id="Vector_132">
<path style="stroke: none; stroke-width: 1; stroke-dasharray: none; stroke-linecap: butt; stroke-dashoffset: 0; stroke-linejoin: miter; stroke-miterlimit: 4; is-custom-font: none; font-file-url: none; fill: rgb(0,0,0); fill-rule: nonzero; opacity: 0.15;" transform=" translate(-339.299, -210.673)" d="M 341.15 206.473 L 336.338 214.873 L 342.26 210.224 L 341.15 206.473 Z" stroke-linecap="round"/>
</g>
		<g transform="matrix(1 0 0 1 -60.1985 -108.9425)" id="Vector_133">
<path style="stroke: none; stroke-width: 1; stroke-dasharray: none; stroke-linecap: butt; stroke-dashoffset: 0; stroke-linejoin: miter; stroke-miterlimit: 4; is-custom-font: none; font-file-url: none; fill: rgb(0,0,0); fill-rule: nonzero; opacity: 0.15;" transform=" translate(-362.8015, -208.0575)" d="M 360.872 203.831 L 365.736 212.284 L 359.867 209.643 L 360.872 203.831 Z" stroke-linecap="round"/>
</g>
		<g transform="matrix(1 0 0 1 -85.9215 -110.3425)" id="Vector_134">
<path style="stroke: none; stroke-width: 1; stroke-dasharray: none; stroke-linecap: butt; stroke-dashoffset: 0; stroke-linejoin: miter; stroke-miterlimit: 4; is-custom-font: none; font-file-url: none; fill: rgb(255,255,255); fill-rule: nonzero; opacity: 1;" transform=" translate(-337.0785, -206.6575)" d="M 341.15 206.473 L 335.809 198.442 L 333.007 204.835 L 336.338 214.873 L 341.15 206.473 Z" stroke-linecap="round"/>
</g>
		<g transform="matrix(1 0 0 1 -111.7775 -63.136)" id="Vector_135">
<path style="stroke: none; stroke-width: 1; stroke-dasharray: none; stroke-linecap: butt; stroke-dashoffset: 0; stroke-linejoin: miter; stroke-miterlimit: 4; is-custom-font: none; font-file-url: none; fill: rgb(252,157,157); fill-rule: nonzero; opacity: 1;" transform=" translate(-311.2225, -253.864)" d="M 301.758 235.267 L 321.692 234.21 L 320.105 260.574 L 300.753 273.518 L 301.758 235.267 Z" stroke-linecap="round"/>
</g>
		<g transform="matrix(1 0 0 1 -110.509 -91.296)" id="Vector_136">
<path style="stroke: none; stroke-width: 1; stroke-dasharray: none; stroke-linecap: butt; stroke-dashoffset: 0; stroke-linejoin: miter; stroke-miterlimit: 4; is-custom-font: none; font-file-url: none; fill: rgb(22,115,253); fill-rule: nonzero; opacity: 1;" transform=" translate(-312.491, -225.704)" d="M 323.965 205.522 L 312.385 207.952 C 306.463 209.167 302.128 214.292 301.916 220.368 L 301.017 245.358 L 321.692 245.886 L 323.965 205.522 Z" stroke-linecap="round"/>
</g>
		<g transform="matrix(1 0 0 1 -24.2965 -87.6505)" id="Vector_137">
<path style="stroke: none; stroke-width: 1; stroke-dasharray: none; stroke-linecap: butt; stroke-dashoffset: 0; stroke-linejoin: miter; stroke-miterlimit: 4; is-custom-font: none; font-file-url: none; fill: rgb(255,255,255); fill-rule: nonzero; opacity: 1;" transform=" translate(-398.7035, -229.3495)" d="M 393.601 237.644 L 391.116 236.007 L 403.436 221.055 L 406.291 222.376 L 393.601 237.644 Z" stroke-linecap="round"/>
</g>
		<g transform="matrix(1 0 0 1 -66.5177 -69.0795)" id="Vector_138">
<path style="stroke: none; stroke-width: 1; stroke-dasharray: none; stroke-linecap: butt; stroke-dashoffset: 0; stroke-linejoin: miter; stroke-miterlimit: 4; is-custom-font: none; font-file-url: none; fill: rgb(252,157,157); fill-rule: nonzero; opacity: 1;" transform=" translate(-356.4823, -247.9205)" d="M 356.854 249.109 C 356.854 249.109 357.382 249.321 358.017 249.268 C 358.493 249.215 358.81 249.056 359.127 248.845 C 359.127 248.845 359.392 248.475 359.074 248.317 C 358.387 247.947 357.171 247.524 356.959 247.419 L 354.368 246.151 L 353.734 248.475 L 356.589 249.69 L 356.854 249.109 Z" stroke-linecap="round"/>
</g>
		<g transform="matrix(1 0 0 1 -66.2515 -67.6005)" id="Vector_139">
<path style="stroke: none; stroke-width: 1; stroke-dasharray: none; stroke-linecap: butt; stroke-dashoffset: 0; stroke-linejoin: miter; stroke-miterlimit: 4; is-custom-font: none; font-file-url: none; fill: rgb(252,157,157); fill-rule: nonzero; opacity: 1;" transform=" translate(-356.7485, -249.3995)" d="M 360.449 249.796 C 360.343 249.162 359.709 248.739 359.074 248.845 L 357.329 249.109 C 357.012 249.162 356.695 249.109 356.43 248.898 L 355.637 248.369 C 355.32 248.158 355.109 247.788 355.056 247.418 L 353.046 248.792 L 356.378 251.381 C 356.378 251.381 360.555 250.219 360.449 249.796 Z" stroke-linecap="round"/>
</g>
		<g transform="matrix(1 0 0 1 -66.2522 -68.234)" id="Vector_140">
<path style="stroke: none; stroke-width: 1; stroke-dasharray: none; stroke-linecap: butt; stroke-dashoffset: 0; stroke-linejoin: miter; stroke-miterlimit: 4; is-custom-font: none; font-file-url: none; fill: rgb(0,0,0); fill-rule: nonzero; opacity: 0.15;" transform=" translate(-356.7478, -248.766)" d="M 359.074 248.845 C 359.074 248.845 359.286 248.581 359.127 248.37 L 354.315 246.151 L 353.681 248.37 L 353.046 248.792 L 356.378 251.381 C 356.378 251.381 360.502 250.219 360.449 249.796 C 360.343 249.162 359.709 248.739 359.074 248.845 Z" stroke-linecap="round"/>
</g>
		<g transform="matrix(1 0 0 1 -32.8636 -75.0201)" id="Vector_141">
<path style="stroke: none; stroke-width: 1; stroke-dasharray: none; stroke-linecap: butt; stroke-dashoffset: 0; stroke-linejoin: miter; stroke-miterlimit: 4; is-custom-font: none; font-file-url: none; fill: rgb(252,157,157); fill-rule: nonzero; opacity: 1;" transform=" translate(-390.1364, -241.9799)" d="M 430.826 238.648 C 430.826 240.286 430.455 241.871 429.715 243.139 C 428.288 245.675 425.644 247.366 421.995 247.313 L 371.87 247.894 H 370.548 L 370.495 248 L 370.072 248.898 C 370.019 249.003 369.966 249.056 369.966 249.162 C 369.914 249.215 369.914 249.268 369.861 249.32 C 369.068 250.641 367.587 251.328 366.054 251.17 C 365.948 251.17 365.842 251.17 365.736 251.117 C 365.472 251.064 365.261 251.011 364.996 250.905 L 356.378 247.26 C 355.743 246.996 355.003 247.26 354.738 247.894 C 354.686 248.052 354.633 248.211 354.633 248.422 C 354.633 248.845 354.844 249.215 355.214 249.479 L 356.007 250.007 C 356.272 250.166 356.589 250.271 356.906 250.219 L 358.651 249.954 C 359.286 249.849 359.867 250.271 360.026 250.905 C 360.026 250.958 360.026 251.064 360.026 251.117 C 360.026 251.645 359.709 252.068 359.233 252.226 L 355.161 253.547 C 354.791 253.653 354.368 253.6 354.051 253.389 L 349.98 250.483 C 349.451 250.113 349.292 249.426 349.61 248.898 L 352.782 242.928 C 353.469 241.66 354.686 240.761 356.113 240.497 L 396.51 234.157 L 420.251 230.459 C 424.533 229.931 427.547 231.568 429.239 233.999 C 430.35 235.267 430.826 236.957 430.826 238.648 Z" stroke-linecap="round"/>
</g>
		<g transform="matrix(1 0 0 1 -65.8295 -68.8155)" id="Vector_142">
<path style="stroke: none; stroke-width: 1; stroke-dasharray: none; stroke-linecap: butt; stroke-dashoffset: 0; stroke-linejoin: miter; stroke-miterlimit: 4; is-custom-font: none; font-file-url: none; fill: rgb(0,0,0); fill-rule: nonzero; opacity: 0.15;" transform=" translate(-357.1705, -248.1845)" d="M 356.853 249.109 C 356.853 249.109 355.531 248.528 355.108 247.471 C 355.108 247.471 355.32 247.313 355.373 247.26 C 355.373 247.26 355.849 248.264 356.959 248.739 C 356.959 248.739 358.44 248.739 359.233 248.475 C 359.233 248.687 359.127 248.792 359.127 248.792 C 358.81 248.898 358.492 249.109 356.853 249.109 Z" stroke-linecap="round"/>
</g>
		<g transform="matrix(1 0 0 1 -49.8085 -74.363)" id="Vector_143">
<path style="stroke: none; stroke-width: 1; stroke-dasharray: none; stroke-linecap: butt; stroke-dashoffset: 0; stroke-linejoin: miter; stroke-miterlimit: 4; is-custom-font: none; font-file-url: none; fill: rgb(63,66,73); fill-rule: nonzero; opacity: 1;" transform=" translate(-373.1915, -242.637)" d="M 373.35 247.894 L 370.178 237.961 L 372.927 237.38 L 376.205 247.894 H 373.35 Z" stroke-linecap="round"/>
</g>
		<g transform="matrix(1 0 0 1 -51.7924 -80.0229)" id="Vector_144">
<path style="stroke: none; stroke-width: 1; stroke-dasharray: none; stroke-linecap: butt; stroke-dashoffset: 0; stroke-linejoin: miter; stroke-miterlimit: 4; is-custom-font: none; font-file-url: none; fill: rgb(33,37,43); fill-rule: nonzero; opacity: 1;" transform=" translate(-371.2076, -236.9771)" d="M 367.428 237.75 C 367.323 237.275 367.587 236.799 368.063 236.693 L 374.038 235.637 C 374.461 235.531 374.884 235.848 374.99 236.271 V 236.324 C 375.095 236.799 374.778 237.275 374.302 237.327 L 368.327 238.331 C 367.957 238.384 367.534 238.12 367.428 237.75 Z" stroke-linecap="round"/>
</g>
		<g transform="matrix(1 0 0 1 -27.3931 -87.1242)" id="Vector_145">
<path style="stroke: none; stroke-width: 1; stroke-dasharray: none; stroke-linecap: butt; stroke-dashoffset: 0; stroke-linejoin: miter; stroke-miterlimit: 4; is-custom-font: none; font-file-url: none; fill: rgb(0,0,0); fill-rule: nonzero; opacity: 0.15;" transform=" translate(-395.6069, -229.8757)" d="M 412.002 230.617 L 403.648 231.938 L 380.33 224.542 C 379.484 224.277 378.585 224.964 378.744 225.862 L 379.643 232.467 L 388.631 235.267 L 396.615 233.999 H 396.668 L 412.108 231.516 C 412.372 231.463 412.531 231.251 412.478 230.987 C 412.478 230.776 412.214 230.565 412.002 230.617 Z" stroke-linecap="round"/>
</g>
		<g transform="matrix(1 0 0 1 -106.829 -64.9548)" id="Vector_146">
<path style="stroke: none; stroke-width: 1; stroke-dasharray: none; stroke-linecap: butt; stroke-dashoffset: 0; stroke-linejoin: miter; stroke-miterlimit: 4; is-custom-font: none; font-file-url: none; fill: rgb(0,0,0); fill-rule: nonzero; opacity: 0.15;" transform=" translate(-316.171, -252.0452)" d="M 321.004 245.834 L 314.659 245.675 L 314.236 255.238 L 311.487 257.615 C 311.328 257.774 311.275 258.038 311.434 258.249 C 311.592 258.461 311.857 258.461 312.068 258.302 L 320.687 250.8 L 321.004 245.834 Z" stroke-linecap="round"/>
</g>
		<g transform="matrix(1 0 0 1 -111.9365 -73.1475)" id="Vector_147">
<path style="stroke: none; stroke-width: 1; stroke-dasharray: none; stroke-linecap: butt; stroke-dashoffset: 0; stroke-linejoin: miter; stroke-miterlimit: 4; is-custom-font: none; font-file-url: none; fill: rgb(255,255,255); fill-rule: nonzero; opacity: 1;" transform=" translate(-311.0635, -243.8525)" d="M 301.017 245.358 V 241.871 L 321.11 242.399 L 320.951 245.834 L 301.017 245.358 Z" stroke-linecap="round"/>
</g>
		<g transform="matrix(1 0 0 1 -99.5105 -77.0017)" id="Vector_148">
<path style="stroke: none; stroke-width: 1; stroke-dasharray: none; stroke-linecap: butt; stroke-dashoffset: 0; stroke-linejoin: miter; stroke-miterlimit: 4; is-custom-font: none; font-file-url: none; fill: rgb(0,0,0); fill-rule: nonzero; opacity: 0.15;" transform=" translate(-323.4895, -239.9982)" d="M 323.172 229.667 L 326.292 245.886 L 320.687 250.853 L 321.903 229.772 C 321.956 228.98 323.066 228.927 323.172 229.667 Z" stroke-linecap="round"/>
</g>
		<g transform="matrix(1 0 0 1 42.5645 74.548)" id="Vector_149">
<path style="stroke: none; stroke-width: 1; stroke-dasharray: none; stroke-linecap: butt; stroke-dashoffset: 0; stroke-linejoin: miter; stroke-miterlimit: 4; is-custom-font: none; font-file-url: none; fill: rgb(22,115,253); fill-rule: nonzero; opacity: 1;" transform=" translate(-465.5645, -391.548)" d="M 477.461 384.785 L 525.842 347.009 C 531.975 342.254 535.571 334.646 535.571 326.616 V 252.807 L 465.617 252.755 L 465.512 254.709 V 252.755 L 395.558 252.807 V 326.616 C 395.558 334.646 399.153 342.201 405.287 347.009 L 453.667 384.785 C 455.677 386.37 456.893 388.853 456.893 391.548 C 456.893 394.189 455.677 396.726 453.667 398.311 L 405.287 436.086 C 399.153 440.841 395.558 448.449 395.558 456.48 V 530.288 L 465.512 530.341 V 528.386 L 465.617 530.341 L 535.571 530.288 V 456.427 C 535.571 448.397 531.975 440.841 525.842 436.034 L 477.461 398.258 C 475.452 396.673 474.236 394.19 474.236 391.495 C 474.236 388.853 475.399 386.37 477.461 384.785 Z" stroke-linecap="round"/>
</g>
		<g transform="matrix(1 0 0 1 42.5645 74.548)" id="Vector_150">
<path style="stroke: none; stroke-width: 1; stroke-dasharray: none; stroke-linecap: butt; stroke-dashoffset: 0; stroke-linejoin: miter; stroke-miterlimit: 4; is-custom-font: none; font-file-url: none; fill: rgb(255,255,255); fill-rule: nonzero; opacity: 0.6;" transform=" translate(-465.5645, -391.548)" d="M 477.461 384.785 L 525.842 347.009 C 531.975 342.254 535.571 334.646 535.571 326.616 V 252.807 L 465.617 252.755 L 465.512 254.709 V 252.755 L 395.558 252.807 V 326.616 C 395.558 334.646 399.153 342.201 405.287 347.009 L 453.667 384.785 C 455.677 386.37 456.893 388.853 456.893 391.548 C 456.893 394.189 455.677 396.726 453.667 398.311 L 405.287 436.086 C 399.153 440.841 395.558 448.449 395.558 456.48 V 530.288 L 465.512 530.341 V 528.386 L 465.617 530.341 L 535.571 530.288 V 456.427 C 535.571 448.397 531.975 440.841 525.842 436.034 L 477.461 398.258 C 475.452 396.673 474.236 394.19 474.236 391.495 C 474.236 388.853 475.399 386.37 477.461 384.785 Z" stroke-linecap="round"/>
</g>
		<g transform="matrix(1 0 0 1 31.6985 74.548)" id="Vector_151">
<path style="stroke: none; stroke-width: 1; stroke-dasharray: none; stroke-linecap: butt; stroke-dashoffset: 0; stroke-linejoin: miter; stroke-miterlimit: 4; is-custom-font: none; font-file-url: none; fill: rgb(255,255,255); fill-rule: nonzero; opacity: 0.4;" transform=" translate(-454.6985, -391.548)" d="M 475.082 387.744 C 475.611 386.582 476.457 385.578 477.461 384.785 L 509.504 359.795 C 512.306 355.568 513.839 350.496 513.839 345.266 V 252.807 L 465.617 252.755 L 465.512 254.709 V 252.755 L 395.558 252.807 V 326.616 C 395.558 334.646 399.153 342.201 405.287 347.009 L 453.668 384.785 C 455.677 386.37 456.893 388.853 456.893 391.548 C 456.893 392.869 456.576 394.19 456.047 395.352 C 455.518 396.514 454.672 397.518 453.668 398.311 L 405.287 436.086 C 403.172 437.724 401.374 439.732 399.894 441.951 C 397.091 446.178 395.558 451.25 395.558 456.48 V 530.288 L 465.512 530.341 V 528.386 L 465.617 530.341 L 513.839 530.288 L 513.734 448.714 C 513.734 435.241 512.623 425.784 504.692 419.602 L 477.461 398.258 C 472.544 394.19 474.765 388.484 474.765 388.484 C 474.818 388.272 474.923 388.008 475.082 387.744 Z" stroke-linecap="round"/>
</g>
		<g transform="matrix(1 0 0 1 43.1725 215.5865)" id="Vector_152">
<path style="stroke: none; stroke-width: 1; stroke-dasharray: none; stroke-linecap: butt; stroke-dashoffset: 0; stroke-linejoin: miter; stroke-miterlimit: 4; is-custom-font: none; font-file-url: none; fill: rgb(0,0,0); fill-rule: nonzero; opacity: 0.5;" transform=" translate(-466.1725, -532.5865)" d="M 535.571 530.288 H 396.774 V 534.885 H 535.571 V 530.288 Z" stroke-linecap="round"/>
</g>
		<g transform="matrix(1 0 0 1 42.4594 89.949)" id="Vector_153">
<path style="stroke: none; stroke-width: 1; stroke-dasharray: none; stroke-linecap: butt; stroke-dashoffset: 0; stroke-linejoin: miter; stroke-miterlimit: 4; is-custom-font: none; font-file-url: none; fill: rgb(22,115,253); fill-rule: nonzero; opacity: 1;" transform=" translate(-465.4594, -406.949)" d="M 516.747 283.768 C 503.899 283.768 492.108 297.98 465.459 304.162 C 451.552 307.86 434.157 307.384 413.059 303.211 C 407.983 302.207 403.278 306.116 403.278 311.294 V 326.034 C 403.278 332.005 406.027 337.658 410.733 341.303 C 445.155 368.354 447.64 368.935 459.166 378.445 C 461.017 379.977 462.127 382.355 462.127 384.838 V 486.648 C 462.127 493.411 459.537 499.803 454.884 504.453 L 440.079 523.367 C 434.791 530.13 434.791 530.13 434.791 530.13 H 496.39 L 475.029 503.502 C 471.381 499.751 469.318 494.573 469.318 489.184 V 385.683 C 469.318 383.2 470.376 380.876 472.227 379.291 C 483.753 369.516 471.169 380.876 520.343 341.515 C 524.943 337.816 527.64 332.216 527.64 326.352 V 295.972 C 527.693 290.108 525.313 283.768 516.747 283.768 Z" stroke-linecap="round"/>
</g>
		<g transform="matrix(1 0 0 1 52.373 220.632)" id="Vector_154">
<path style="stroke: none; stroke-width: 1; stroke-dasharray: none; stroke-linecap: butt; stroke-dashoffset: 0; stroke-linejoin: miter; stroke-miterlimit: 4; is-custom-font: none; font-file-url: none; fill: rgb(33,37,43); fill-rule: nonzero; opacity: 1;" transform=" translate(-475.373, -537.632)" d="M 549.318 545.029 H 401.427 C 397.567 545.029 394.395 541.7 394.395 537.632 C 394.395 533.564 397.514 530.235 401.427 530.235 H 549.318 C 553.178 530.235 556.351 533.564 556.351 537.632 C 556.351 541.753 553.178 545.029 549.318 545.029 Z" stroke-linecap="round"/>
</g>
		<g transform="matrix(1 0 0 1 43.014 220.632)" id="Vector_155">
<path style="stroke: none; stroke-width: 1; stroke-dasharray: none; stroke-linecap: butt; stroke-dashoffset: 0; stroke-linejoin: miter; stroke-miterlimit: 4; is-custom-font: none; font-file-url: none; fill: rgb(63,66,73); fill-rule: nonzero; opacity: 1;" transform=" translate(-466.014, -537.632)" d="M 539.959 545.029 H 392.068 C 388.208 545.029 385.036 541.7 385.036 537.632 C 385.036 533.564 388.155 530.235 392.068 530.235 H 539.959 C 543.819 530.235 546.992 533.564 546.992 537.632 C 546.939 541.753 543.819 545.029 539.959 545.029 Z" stroke-linecap="round"/>
</g>
		<g transform="matrix(1 0 0 1 52.373 -62.185)" id="Vector_156">
<path style="stroke: none; stroke-width: 1; stroke-dasharray: none; stroke-linecap: butt; stroke-dashoffset: 0; stroke-linejoin: miter; stroke-miterlimit: 4; is-custom-font: none; font-file-url: none; fill: rgb(33,37,43); fill-rule: nonzero; opacity: 1;" transform=" translate(-475.373, -254.815)" d="M 549.318 262.212 H 401.427 C 397.567 262.212 394.395 258.883 394.395 254.815 C 394.395 250.747 397.514 247.418 401.427 247.418 H 549.318 C 553.178 247.418 556.351 250.747 556.351 254.815 C 556.351 258.883 553.178 262.212 549.318 262.212 Z" stroke-linecap="round"/>
</g>
		<g transform="matrix(1 0 0 1 43.014 -62.185)" id="Vector_157">
<path style="stroke: none; stroke-width: 1; stroke-dasharray: none; stroke-linecap: butt; stroke-dashoffset: 0; stroke-linejoin: miter; stroke-miterlimit: 4; is-custom-font: none; font-file-url: none; fill: rgb(63,66,73); fill-rule: nonzero; opacity: 1;" transform=" translate(-466.014, -254.815)" d="M 539.959 262.212 H 392.068 C 388.208 262.212 385.036 258.883 385.036 254.815 C 385.036 250.747 388.155 247.418 392.068 247.418 H 539.959 C 543.819 247.418 546.992 250.747 546.992 254.815 C 546.939 258.883 543.819 262.212 539.959 262.212 Z" stroke-linecap="round"/>
</g>
</g>
</g>
</svg>