<svg xmlns="http://www.w3.org/2000/svg" xmlns:xlink="http://www.w3.org/1999/xlink" version="1.1" width="386" height="636" viewBox="0 0 386 636" xml:space="preserve">
<desc>Created with Fabric.js 3.5.0</desc>
<defs>
</defs>
<rect x="0" y="0" width="100%" height="100%" fill="#ffffff"/>
<g transform="matrix(0.2512 0 0 0.2512 200.4109 145.6129)" id="148327">
<g style="" vector-effect="non-scaling-stroke">
		<g transform="matrix(1 0 0 1 -541.95 184.45)" id="website-maintenance">
<path style="stroke: none; stroke-width: 1; stroke-dasharray: none; stroke-linecap: butt; stroke-dashoffset: 0; stroke-linejoin: miter; stroke-miterlimit: 4; is-custom-font: none; font-file-url: none; fill: rgb(42,148,244); fill-rule: nonzero; opacity: 0.1;" transform=" translate(-418.05, -724.45)" d="M 466.3 715.7 c -0.7 -3.7 -1.8 -7.3 -3.3 -10.7 c -0.9 -2.1 -0.6 -4.5 0.9 -6.3 l 6.1 -7.5 l -9.2 -11.2 l -8.5 4.5 c -2 1.1 -4.5 0.9 -6.4 -0.4 c -3.1 -2.1 -6.4 -3.9 -9.9 -5.3 c -2.1 -0.8 -3.6 -2.8 -3.8 -5.1 l -0.9 -9.6 l -14.4 -1.4 l -2.8 9.3 c -0.7 2.2 -2.5 3.8 -4.8 4.2 c -3.7 0.7 -7.3 1.8 -10.7 3.3 c -2.1 0.9 -4.5 0.6 -6.3 -0.9 l -7.5 -6.1 l -11.2 9.2 l 4.5 8.5 c 1.1 2 0.9 4.5 -0.4 6.4 c -2.1 3.1 -3.9 6.4 -5.3 9.9 c -0.8 2.1 -2.8 3.6 -5.1 3.8 l -9.6 0.9 l -1.4 14.4 l 9.3 2.8 c 2.2 0.7 3.8 2.5 4.2 4.8 c 0.7 3.7 1.8 7.3 3.3 10.7 c 0.9 2.1 0.6 4.6 -0.9 6.3 l -6.1 7.5 l 9.2 11.2 l 8.5 -4.5 c 2 -1.1 4.5 -0.9 6.4 0.4 c 3.1 2.1 6.4 3.9 9.9 5.3 c 2.1 0.8 3.6 2.8 3.8 5.1 l 0.9 9.6 l 14.4 1.4 l 2.8 -9.3 c 0.7 -2.2 2.5 -3.8 4.8 -4.2 c 3.7 -0.7 7.3 -1.8 10.7 -3.3 c 2.1 -0.9 4.5 -0.6 6.3 0.9 l 7.5 6.1 l 11.2 -9.2 l -4.5 -8.5 c -1.1 -2 -0.9 -4.5 0.4 -6.4 c 2.1 -3.1 3.9 -6.4 5.3 -9.9 c 0.8 -2.1 2.8 -3.6 5.1 -3.8 l 9.6 -0.9 l 1.4 -14.4 l -9.3 -2.8 c -2.1 -0.7 -3.8 -2.6 -4.2 -4.8 z m -51.8 45.4 c -20.2 -2 -35 -20 -33 -40.2 c 2 -20.2 20 -35 40.2 -33 c 20.2 2 35 20 33 40.2 c -2 20.2 -20 34.9 -40.2 33 z" stroke-linecap="round"/>
</g>
		<g transform="matrix(1 0 0 1 -541.9 184.4)" id="website-maintenance">
<path style="stroke: none; stroke-width: 1; stroke-dasharray: none; stroke-linecap: butt; stroke-dashoffset: 0; stroke-linejoin: miter; stroke-miterlimit: 4; is-custom-font: none; font-file-url: none; fill: rgb(42,148,244); fill-rule: nonzero; opacity: 0.1;" transform=" translate(-418.1, -724.4)" d="M 393.7 722 c 1.3 -13.5 13.3 -23.3 26.8 -22 c 13.5 1.3 23.3 13.3 22 26.8 c -1.3 13.5 -13.3 23.3 -26.8 22 c -13.5 -1.3 -23.3 -13.3 -22 -26.8 z" stroke-linecap="round"/>
</g>
		<g transform="matrix(1 0 0 1 -46 465.2)" id="website-maintenance">
<ellipse style="stroke: none; stroke-width: 1; stroke-dasharray: none; stroke-linecap: butt; stroke-dashoffset: 0; stroke-linejoin: miter; stroke-miterlimit: 4; is-custom-font: none; font-file-url: none; fill: rgb(42,148,244); fill-rule: nonzero; opacity: 0.1;" cx="0" cy="0" rx="452.5" ry="36.6"/>
</g>
		<g transform="matrix(1 0 0 1 108.85 118)" id="website-maintenance">
<path style="stroke: none; stroke-width: 1; stroke-dasharray: none; stroke-linecap: butt; stroke-dashoffset: 0; stroke-linejoin: miter; stroke-miterlimit: 4; is-custom-font: none; font-file-url: none; fill: rgb(255,190,85); fill-rule: nonzero; opacity: 0.19;" transform=" translate(-1068.85, -658)" d="M 776.8 888.5 c 0 8.5 6.9 15.4 15.4 15.4 h 553.3 c 8.5 0 15.4 -6.9 15.4 -15.4 V 412.1 h -584 v 476.4 z" stroke-linecap="round"/>
</g>
		<g transform="matrix(1 0 0 1 108.8 25.85)" id="website-maintenance">
<path style="stroke: none; stroke-width: 1; stroke-dasharray: none; stroke-linecap: butt; stroke-dashoffset: 0; stroke-linejoin: miter; stroke-miterlimit: 4; is-custom-font: none; font-file-url: none; fill: rgb(255,190,85); fill-rule: nonzero; opacity: 1;" transform=" translate(-1068.8, -565.85)" d="M 950.6 691.8 c 2.6 9 6.2 17.7 10.8 26 c 2.8 5 2.6 11.2 -0.6 16 l -13.4 20.1 l 25.7 25.7 l 20.1 -13.4 c 4.8 -3.2 11 -3.4 16 -0.6 c 8.2 4.6 16.9 8.2 26 10.8 c 5.5 1.6 9.7 6.1 10.9 11.8 l 4.7 23.7 h 36.3 l 4.8 -23.8 c 1.1 -5.6 5.3 -10.2 10.9 -11.8 c 9 -2.6 17.7 -6.2 26 -10.8 c 5 -2.8 11.2 -2.6 16 0.6 l 20.1 13.4 l 25.7 -25.7 l -13.4 -20.1 c -3.2 -4.8 -3.4 -11 -0.6 -16 c 4.6 -8.2 8.2 -16.9 10.8 -26 c 1.6 -5.5 6.1 -9.7 11.8 -10.9 l 23.7 -4.7 v -36.3 l -23.8 -4.8 c -5.6 -1.1 -10.2 -5.3 -11.8 -10.9 c -2.6 -9 -6.2 -17.7 -10.8 -26 c -2.8 -5 -2.6 -11.2 0.6 -16 l 13.4 -20.1 l -25.7 -25.7 l -20.1 13.4 c -4.8 3.2 -11 3.4 -16 0.6 c -8.2 -4.6 -16.9 -8.2 -26 -10.8 c -5.5 -1.6 -9.7 -6.1 -10.9 -11.8 l -4.7 -23.7 h -36.3 l -4.8 23.8 c -1.1 5.6 -5.3 10.2 -10.9 11.8 c -9 2.6 -17.7 6.2 -26 10.8 c -5 2.8 -11.2 2.6 -16 -0.6 L 973 536.4 l -25.7 25.7 l 13.4 20.1 c 3.2 4.8 3.4 11 0.6 16 c -4.6 8.2 -8.2 16.9 -10.8 26 c -1.6 5.5 -6.1 9.7 -11.8 10.9 l -23.7 4.7 v 36.3 l 23.8 4.8 c 5.7 1.1 10.3 5.3 11.8 10.9 z m 118.2 -126.1 c 50.9 0 92.2 41.3 92.2 92.2 c 0 50.9 -41.3 92.2 -92.2 92.2 c -50.9 0 -92.2 -41.3 -92.2 -92.2 c 0 -50.8 41.3 -92.1 92.2 -92.2 z M 776.8 335.2 v 46.1 h 584 v -46.1 c 0 -8.5 -6.9 -15.4 -15.4 -15.4 H 792.1 c -8.5 0 -15.3 6.9 -15.3 15.4 z m 153.7 0 h 30.7 V 366 h -30.7 v -30.8 z m -61.5 0 h 30.7 V 366 H 869 v -30.8 z m -61.5 0 h 30.7 V 366 h -30.7 v -30.8 z" stroke-linecap="round"/>
</g>
		<g transform="matrix(1 0 0 1 -144.8 -158.65)" id="website-maintenance">
<path style="stroke: none; stroke-width: 1; stroke-dasharray: none; stroke-linecap: butt; stroke-dashoffset: 0; stroke-linejoin: miter; stroke-miterlimit: 4; is-custom-font: none; font-file-url: none; fill: rgb(255,190,85); fill-rule: nonzero; opacity: 1;" transform=" translate(-815.2, -381.35)" d="M 1130.3 658 c 0 33.9 -27.5 61.5 -61.5 61.5 s -61.5 -27.5 -61.5 -61.5 c 0 -33.9 27.5 -61.5 61.5 -61.5 c 33.9 0 61.5 27.5 61.5 61.5 z M 1084.2 58.6 c 0 -8.5 -6.9 -15.4 -15.4 -15.4 H 515.5 c -8.5 0 -15.4 6.9 -15.4 15.4 v 46.1 h 584 V 58.6 z M 561.6 89.3 h -30.7 V 58.6 h 30.7 v 30.7 z m 61.5 0 h -30.7 V 58.6 h 30.7 v 30.7 z m 61.5 0 h -30.7 V 58.6 h 30.7 v 30.7 z" stroke-linecap="round"/>
</g>
		<g transform="matrix(1 0 0 1 -167.9 -158.7)" id="website-maintenance">
<path style="stroke: none; stroke-width: 1; stroke-dasharray: none; stroke-linecap: butt; stroke-dashoffset: 0; stroke-linejoin: miter; stroke-miterlimit: 4; is-custom-font: none; font-file-url: none; fill: rgb(255,190,85); fill-rule: nonzero; opacity: 0.19;" transform=" translate(-792.1, -381.3)" d="M 746 335.2 c 0 -25.5 20.6 -46.1 46.1 -46.1 h 292 V 135.4 h -584 v 476.4 c 0 8.5 6.9 15.4 15.4 15.4 H 746 v -292 z m 123 -122.9 h 30.7 V 243 H 869 v -30.7 z m -61.5 0 h 30.7 V 243 h -30.7 v -30.7 z m -61.5 0 h 30.7 V 243 H 746 v -30.7 z m -61.4 368.8 h -123 v -30.7 h 123 v 30.7 z m 0 -61.5 h -123 v -30.7 h 123 v 30.7 z m 0 -61.4 h -123 v -30.7 h 123 v 30.7 z m 0 -61.5 h -123 V 366 h 123 v 30.7 z m 0 -61.5 h -123 v -30.7 h 123 v 30.7 z m 0 -92.2 v -30.7 h 30.7 V 243 h -30.7 z" stroke-linecap="round"/>
</g>
		<g transform="matrix(1 0 0 1 -86.55 222.7574)" id="website-maintenance">
<path style="stroke: none; stroke-width: 1; stroke-dasharray: none; stroke-linecap: butt; stroke-dashoffset: 0; stroke-linejoin: miter; stroke-miterlimit: 4; is-custom-font: none; font-file-url: none; fill: rgb(252,210,177); fill-rule: nonzero; opacity: 1;" transform=" translate(-873.45, -762.7574)" d="m 866.3 767.1 l 0.6 -16.2 l 11.5 3.5 l 2.2 20.2 s -11 0.7 -14.3 -7.5 z" stroke-linecap="round"/>
</g>
		<g transform="matrix(1 0 0 1 -85.1274 234.75)" id="website-maintenance">
<path style="stroke: none; stroke-width: 1; stroke-dasharray: none; stroke-linecap: butt; stroke-dashoffset: 0; stroke-linejoin: miter; stroke-miterlimit: 4; is-custom-font: none; font-file-url: none; fill: rgb(14,83,140); fill-rule: nonzero; opacity: 1;" transform=" translate(-874.8727, -774.75)" d="M 867.3 767.2 c 2.7 1.1 7.2 2.1 12.8 0.8 l -0.7 -4.6 s 3.2 1.9 4 6.1 c 0.8 4.1 1 3 6.2 6.2 c 5.3 3.2 4.9 10.4 4.9 10.4 l -39.2 -1 s -1.1 -7.9 6 -16.3 c 1.4 -1.8 3.9 -2.5 6 -1.6 z" stroke-linecap="round"/>
</g>
		<g transform="matrix(1 0 0 1 -145.7263 5.8143)" id="website-maintenance">
<path style="stroke: none; stroke-width: 1; stroke-dasharray: none; stroke-linecap: butt; stroke-dashoffset: 0; stroke-linejoin: miter; stroke-miterlimit: 4; is-custom-font: none; font-file-url: none; fill: rgb(255,190,85); fill-rule: nonzero; opacity: 1;" transform=" translate(-814.2737, -545.8143)" d="M 804 529 s -5.1 19.9 2.1 32.4 s 20.2 -15.2 20.2 -15.2 S 824 519.6 804 529 z" stroke-linecap="round"/>
</g>
		<g transform="matrix(1 0 0 1 -167.6626 -42.05)" id="website-maintenance">
<path style="stroke: none; stroke-width: 1; stroke-dasharray: none; stroke-linecap: butt; stroke-dashoffset: 0; stroke-linejoin: miter; stroke-miterlimit: 4; is-custom-font: none; font-file-url: none; fill: rgb(255,227,202); fill-rule: nonzero; opacity: 1;" transform=" translate(-792.3375, -497.95)" d="M 800.4 434.6 s -26.4 35.9 -30.8 57.6 c -4.5 21.7 0.3 69.1 0.3 69.1 h 10.8 s 5.7 -60.5 9.3 -69.1 c 3.6 -8.8 27 -49.4 27 -49.4 l -16.6 -8.2 z" stroke-linecap="round"/>
</g>
		<g transform="matrix(1 0 0 1 -129.55 328.15)" id="website-maintenance">
<path style="stroke: none; stroke-width: 1; stroke-dasharray: none; stroke-linecap: butt; stroke-dashoffset: 0; stroke-linejoin: miter; stroke-miterlimit: 4; is-custom-font: none; font-file-url: none; fill: rgb(211,211,211); fill-rule: nonzero; opacity: 1;" transform=" translate(-830.45, -868.15)" d="M 795.9 784.3 h 100.2 v 11.5 H 795.9 z M 774.5 863.7 h 107.7 v 11.5 H 774.5 z M 764.8 940.5 h 107.7 V 952 H 764.8 z" stroke-linecap="round"/>
</g>
		<g transform="matrix(1 0 0 1 -117.35 263.15)" id="website-maintenance">
<path style="stroke: none; stroke-width: 1; stroke-dasharray: none; stroke-linecap: butt; stroke-dashoffset: 0; stroke-linejoin: miter; stroke-miterlimit: 4; is-custom-font: none; font-file-url: none; fill: rgb(211,211,211); fill-rule: nonzero; opacity: 1;" transform=" translate(-842.65, -803.15)" d="M 754 1016.9 h -12 l 88.4 -415.8 h 6.7 z M 879.3 1016.9 h -12 l 70.1 -427.5 l 5.9 2.8 z" stroke-linecap="round"/>
</g>
		<g transform="matrix(1 0 0 1 -127.2 263.15)" id="website-maintenance">
<path style="stroke: none; stroke-width: 1; stroke-dasharray: none; stroke-linecap: butt; stroke-dashoffset: 0; stroke-linejoin: miter; stroke-miterlimit: 4; is-custom-font: none; font-file-url: none; fill: rgb(247,247,247); fill-rule: nonzero; opacity: 1;" transform=" translate(-832.8, -803.15)" d="m 855 1016.9 l 64.5 -415.1 l -89.1 -0.7 l -88.4 415.8 h -13.8 L 818 589.4 h 119.4 l -66.3 427.5 H 853" stroke-linecap="round"/>
</g>
		<g transform="matrix(1 0 0 1 -138.35 222.7574)" id="website-maintenance">
<path style="stroke: none; stroke-width: 1; stroke-dasharray: none; stroke-linecap: butt; stroke-dashoffset: 0; stroke-linejoin: miter; stroke-miterlimit: 4; is-custom-font: none; font-file-url: none; fill: rgb(252,210,177); fill-rule: nonzero; opacity: 1;" transform=" translate(-821.65, -762.7574)" d="m 814.5 767.1 l 0.6 -16.2 l 11.5 3.5 l 2.2 20.2 c -0.1 0 -11 0.7 -14.3 -7.5 z" stroke-linecap="round"/>
</g>
		<g transform="matrix(1 0 0 1 -13.4693 -157.6614)" id="website-maintenance">
<path style="stroke: none; stroke-width: 1; stroke-dasharray: none; stroke-linecap: butt; stroke-dashoffset: 0; stroke-linejoin: miter; stroke-miterlimit: 4; is-custom-font: none; font-file-url: none; fill: rgb(255,227,202); fill-rule: nonzero; opacity: 1;" transform=" translate(-946.5307, -382.3386)" d="M 928 401.6 s 28.5 -2.1 31.9 -15.3 c 3.4 -13.2 2.8 -48.8 2.8 -48.8 h 9.9 s 6.8 33.1 6.4 48.8 c -0.4 15.7 -19.5 42.5 -51 40.8 c -31.4 -1.7 0 -25.5 0 -25.5 z" stroke-linecap="round"/>
</g>
		<g transform="matrix(1 0 0 1 -147.4614 -110.95)" id="website-maintenance">
<path style="stroke: none; stroke-width: 1; stroke-dasharray: none; stroke-linecap: butt; stroke-dashoffset: 0; stroke-linejoin: miter; stroke-miterlimit: 4; is-custom-font: none; font-file-url: none; fill: rgb(42,148,244); fill-rule: nonzero; opacity: 1;" transform=" translate(-812.5386, -429.05)" d="M 835.7 399.9 s -16.5 1.7 -23.3 8.9 c -3.3 3.5 -23.8 28.9 -23 34.4 l 24.1 15 l 19.7 -27.3 l 2.5 -31 z" stroke-linecap="round"/>
</g>
		<g transform="matrix(1 0 0 1 -107.6898 92.9799)" id="website-maintenance">
<path style="stroke: none; stroke-width: 1; stroke-dasharray: none; stroke-linecap: butt; stroke-dashoffset: 0; stroke-linejoin: miter; stroke-miterlimit: 4; is-custom-font: none; font-file-url: none; fill: rgb(11,72,112); fill-rule: nonzero; opacity: 1;" transform=" translate(-852.3102, -632.9798)" d="M 809.9 522.2 s -7.1 21 -0.4 44 s 6.7 69.4 6.1 81.5 s -11.9 47.1 -2.3 108.9 h 14.8 s 9 -64.8 14.2 -92.4 c 4.9 -25.9 11.1 -90.5 11.1 -90.5 s 18.6 61.3 15.5 77.1 c -3.4 17.4 -3.8 105.7 -3.8 105.7 H 880 s 16.7 -76 17.7 -96.4 c 1.1 -20.4 -1.2 -134.8 -1.2 -134.8 s -49.6 -33.7 -86.6 -3.1 z" stroke-linecap="round"/>
</g>
		<g transform="matrix(1 0 0 1 -97.75 -154.2)" id="website-maintenance">
<path style="stroke: none; stroke-width: 1; stroke-dasharray: none; stroke-linecap: butt; stroke-dashoffset: 0; stroke-linejoin: miter; stroke-miterlimit: 4; is-custom-font: none; font-file-url: none; fill: rgb(252,210,177); fill-rule: nonzero; opacity: 1;" transform=" translate(-862.25, -385.8)" d="m 860.7 360 l -15.1 46.2 l 27.3 5.4 l 6 -47.9 z" stroke-linecap="round"/>
</g>
		<g transform="matrix(1 0 0 1 -106.3653 -57.5745)" id="website-maintenance">
<path style="stroke: none; stroke-width: 1; stroke-dasharray: none; stroke-linecap: butt; stroke-dashoffset: 0; stroke-linejoin: miter; stroke-miterlimit: 4; is-custom-font: none; font-file-url: none; fill: rgb(42,148,244); fill-rule: nonzero; opacity: 1;" transform=" translate(-853.6347, -482.4254)" d="M 876.2 397.3 s 18.5 3.8 20.4 28 c 1.9 24.2 4.5 127.4 4.5 136.3 c -0.6 4.1 -72.5 17.8 -93.9 -3 c -5.4 -5.3 12.3 -95.1 9.8 -118.7 c -2.6 -23.5 11.4 -53.4 59.2 -42.6 z" stroke-linecap="round"/>
</g>
		<g transform="matrix(1 0 0 1 -61.1783 -119.3601)" id="website-maintenance">
<path style="stroke: none; stroke-width: 1; stroke-dasharray: none; stroke-linecap: butt; stroke-dashoffset: 0; stroke-linejoin: miter; stroke-miterlimit: 4; is-custom-font: none; font-file-url: none; fill: rgb(42,148,244); fill-rule: nonzero; opacity: 1;" transform=" translate(-898.8217, -420.6399)" d="M 897.7 445.7 s 7.4 -16.9 30.3 -18.6 c 0 0 5.5 -15.7 0 -25.5 c 0 0 -41.5 -8.5 -57.3 -5.3 s 27 49.4 27 49.4 z" stroke-linecap="round"/>
</g>
		<g transform="matrix(1 0 0 1 3.3169 -208.7715)" id="website-maintenance">
<path style="stroke: none; stroke-width: 1; stroke-dasharray: none; stroke-linecap: butt; stroke-dashoffset: 0; stroke-linejoin: miter; stroke-miterlimit: 4; is-custom-font: none; font-file-url: none; fill: rgb(255,227,202); fill-rule: nonzero; opacity: 1;" transform=" translate(-963.317, -331.2286)" d="M 972.5 346.4 s 3.1 -16.6 -2.4 -26 c -3.3 -5.6 -6.9 -8.2 -10.5 -7.2 c -2.4 0.7 -3.4 4.9 -2.8 7.3 c 0.8 3.1 3.4 11.6 4.8 14 c 0 0 -2.5 0 -5.1 -5.6 c -2.5 -5.5 -4.4 2.6 -2.4 6.4 c 3 5.5 12.9 20.6 18.4 11.1 z" stroke-linecap="round"/>
</g>
		<g transform="matrix(1 0 0 1 -137.0274 234.75)" id="website-maintenance">
<path style="stroke: none; stroke-width: 1; stroke-dasharray: none; stroke-linecap: butt; stroke-dashoffset: 0; stroke-linejoin: miter; stroke-miterlimit: 4; is-custom-font: none; font-file-url: none; fill: rgb(14,83,140); fill-rule: nonzero; opacity: 1;" transform=" translate(-822.9727, -774.75)" d="M 815.4 767.2 c 2.7 1.1 7.2 2.1 12.8 0.8 l -0.7 -4.6 s 3.2 1.9 4 6.1 c 0.8 4.1 1 3 6.2 6.2 c 5.3 3.2 4.9 10.4 4.9 10.4 l -39.2 -1 s -1.1 -7.9 6 -16.3 c 1.5 -1.8 3.9 -2.5 6 -1.6 z" stroke-linecap="round"/>
</g>
		<g transform="matrix(1 0 0 1 -90.4551 -183.856)" id="website-maintenance">
<path style="stroke: none; stroke-width: 1; stroke-dasharray: none; stroke-linecap: butt; stroke-dashoffset: 0; stroke-linejoin: miter; stroke-miterlimit: 4; is-custom-font: none; font-file-url: none; fill: rgb(11,72,112); fill-rule: nonzero; opacity: 1;" transform=" translate(-869.5449, -356.144)" d="M 899.4 353.1 c -0.7 -5.8 11.9 -9.7 -12.2 -26.7 c -12.3 -8.6 -33.7 -4.8 -40.3 8.2 s -3.1 14.3 -8.2 15.2 c -5.1 1 0.3 41.2 31.1 40.7 c 30.9 -0.5 29.6 -37.4 29.6 -37.4 z" stroke-linecap="round"/>
</g>
		<g transform="matrix(1 0 0 1 -104.4029 2.5831)" id="website-maintenance">
<path style="stroke: none; stroke-width: 1; stroke-dasharray: none; stroke-linecap: butt; stroke-dashoffset: 0; stroke-linejoin: miter; stroke-miterlimit: 4; is-custom-font: none; font-file-url: none; fill: rgb(255,190,85); fill-rule: nonzero; opacity: 1;" transform=" translate(-855.5971, -542.5831)" d="M 805.7 515 h 93.8 c 3.8 0 6.9 2.8 7.3 6.5 c 1.6 14.1 3.3 46.1 -13.2 48.4 c -21.2 3 -28 -19.9 -28 -41.2 l -61.6 0.3 s -2.1 -10.2 1.7 -14 z" stroke-linecap="round"/>
</g>
		<g transform="matrix(1 0 0 1 -183.4688 31.8065)" id="website-maintenance">
<path style="stroke: none; stroke-width: 1; stroke-dasharray: none; stroke-linecap: butt; stroke-dashoffset: 0; stroke-linejoin: miter; stroke-miterlimit: 4; is-custom-font: none; font-file-url: none; fill: rgb(255,227,202); fill-rule: nonzero; opacity: 1;" transform=" translate(-776.5312, -571.8065)" d="M 780 555.7 s -1.8 21.3 5.1 27.1 c 6.9 5.9 -12.2 8.5 -16.9 -2.3 s 1.7 -24.8 1.7 -24.8 H 780 z" stroke-linecap="round"/>
</g>
		<g transform="matrix(1 0 0 1 -177.5808 29.2313)" id="website-maintenance">
<path style="stroke: none; stroke-width: 1; stroke-dasharray: none; stroke-linecap: butt; stroke-dashoffset: 0; stroke-linejoin: miter; stroke-miterlimit: 4; is-custom-font: none; font-file-url: none; fill: rgb(255,227,202); fill-rule: nonzero; opacity: 1;" transform=" translate(-782.4193, -569.2313)" d="M 778.2 558.5 s 6.4 1.1 8.8 8 c 1.4 3.9 2.2 8.1 2.6 11 c 0.3 1.9 -1.9 3.2 -3.5 2 c -1.6 -1.2 -3.1 -3 -2.9 -6.1 c 0.5 -6.5 -7.3 -4.6 -7.3 -4.6 s -2.6 -7.7 2.3 -10.3 z" stroke-linecap="round"/>
</g>
		<g transform="matrix(1 0 0 1 -71.25 -21.75)" id="website-maintenance">
<path style="stroke: none; stroke-width: 1; stroke-dasharray: none; stroke-linecap: butt; stroke-dashoffset: 0; stroke-linejoin: miter; stroke-miterlimit: 4; is-custom-font: none; font-file-url: none; fill: rgb(247,247,247); fill-rule: nonzero; opacity: 1;" transform=" translate(-888.75, -518.25)" d="M 882.9 529.7 H 878 v -14.5 c 0 -0.8 0.7 -1.5 1.5 -1.5 h 2 c 0.8 0 1.5 0.7 1.5 1.5 v 14.5 z M 890.2 529.7 h -4.9 v -9.6 c 0 -0.8 0.7 -1.5 1.5 -1.5 h 2 c 0.8 0 1.5 0.7 1.5 1.5 v 9.6 z M 899.5 529.7 h -6.8 v -20.9 c 0 -1.1 0.9 -2 2 -2 h 2.8 c 1.1 0 2 0.9 2 2 v 20.9 z" stroke-linecap="round"/>
</g>
		<g transform="matrix(1 0 0 1 -73.9 -8.7)" id="website-maintenance">
<path style="stroke: none; stroke-width: 1; stroke-dasharray: none; stroke-linecap: butt; stroke-dashoffset: 0; stroke-linejoin: miter; stroke-miterlimit: 4; is-custom-font: none; font-file-url: none; fill: rgb(22,22,22); fill-rule: nonzero; opacity: 0.32;" transform=" translate(-886.1, -531.3)" d="M 867.2 529.7 H 905 v 3.2 h -37.8 z" stroke-linecap="round"/>
</g>
		<g transform="matrix(1 0 0 1 -463.25 302.55)" id="website-maintenance">
<path style="stroke: none; stroke-width: 1; stroke-dasharray: none; stroke-linecap: butt; stroke-dashoffset: 0; stroke-linejoin: miter; stroke-miterlimit: 4; is-custom-font: none; font-file-url: none; fill: rgb(255,190,85); fill-rule: nonzero; opacity: 1;" transform=" translate(-496.75, -842.55)" d="M 557.4 819.5 c -1.8 -4.6 -4 -9.1 -6.8 -13.2 c -1.7 -2.5 -1.8 -5.8 -0.4 -8.4 l 6.2 -11.2 l -14.6 -12.4 l -10 8 c -2.4 1.9 -5.6 2.3 -8.4 1 c -4.5 -2 -9.3 -3.6 -14.1 -4.5 c -3 -0.6 -5.4 -2.8 -6.2 -5.7 l -3.5 -12.2 l -19.1 1.6 l -1.5 12.7 c -0.3 3 -2.4 5.6 -5.2 6.7 c -4.6 1.8 -9.1 4 -13.2 6.8 c -2.5 1.7 -5.8 1.8 -8.4 0.4 l -11.2 -6.2 l -12.4 14.6 l 8 10 c 1.9 2.4 2.3 5.6 1 8.4 c -2 4.5 -3.6 9.3 -4.5 14.1 c -0.6 3 -2.8 5.4 -5.7 6.2 l -12.3 3.5 l 1.6 19.1 l 12.7 1.5 c 3 0.3 5.6 2.4 6.7 5.2 c 1.8 4.6 4 9.1 6.8 13.2 c 1.7 2.5 1.8 5.8 0.4 8.4 l -6.2 11.2 l 14.6 12.4 l 10 -8 c 2.4 -1.9 5.6 -2.3 8.4 -1 c 4.5 2 9.3 3.6 14.1 4.5 c 3 0.6 5.4 2.8 6.2 5.7 l 3.5 12.3 l 19.1 -1.6 l 1.5 -12.7 c 0.3 -3 2.4 -5.6 5.2 -6.7 c 4.6 -1.8 9.1 -4 13.2 -6.8 c 2.5 -1.7 5.8 -1.8 8.4 -0.4 l 11.2 6.2 l 12.4 -14.6 l -8 -10 c -1.9 -2.4 -2.3 -5.6 -1 -8.4 c 2 -4.5 3.6 -9.3 4.5 -14.1 c 0.6 -3 2.8 -5.4 5.7 -6.2 l 12.3 -3.5 l -1.6 -19.1 l -12.7 -1.5 c -3 -0.4 -5.6 -2.5 -6.7 -5.3 z M 500.8 891 c -26.8 2.2 -50.3 -17.7 -52.6 -44.5 c -2.2 -26.8 17.7 -50.3 44.5 -52.6 c 26.8 -2.2 50.3 17.7 52.6 44.5 c 2.2 26.8 -17.7 50.3 -44.5 52.6 z" stroke-linecap="round"/>
</g>
		<g transform="matrix(1 0 0 1 -463.25 302.4504)" id="website-maintenance">
<path style="stroke: none; stroke-width: 1; stroke-dasharray: none; stroke-linecap: butt; stroke-dashoffset: 0; stroke-linejoin: miter; stroke-miterlimit: 4; is-custom-font: none; font-file-url: none; fill: rgb(255,190,85); fill-rule: nonzero; opacity: 1;" transform=" translate(-496.75, -842.4504)" d="M 464.4 845.2 c -1.5 -17.9 11.8 -33.6 29.6 -35.1 c 17.9 -1.5 33.6 11.8 35.1 29.6 c 1.5 17.9 -11.8 33.6 -29.6 35.1 c -17.9 1.5 -33.6 -11.7 -35.1 -29.6 z" stroke-linecap="round"/>
</g>
		<g transform="matrix(1 0 0 1 -303.4 210.4)" id="website-maintenance">
<path style="stroke: none; stroke-width: 1; stroke-dasharray: none; stroke-linecap: butt; stroke-dashoffset: 0; stroke-linejoin: miter; stroke-miterlimit: 4; is-custom-font: none; font-file-url: none; fill: rgb(204,233,255); fill-rule: nonzero; opacity: 1;" transform=" translate(-656.6, -750.4)" d="M 713.1 687.9 c -4.8 -4.3 -10 -8.1 -15.7 -11.2 c -3.5 -1.9 -5.5 -5.6 -5.4 -9.5 l 0.5 -16.6 l -24.2 -5.6 l -6.8 15.1 c -1.6 3.6 -5.1 6 -9.1 6.2 c -6.4 0.3 -12.8 1.4 -19 3.2 c -3.8 1.1 -7.9 0 -10.6 -2.9 l -11.3 -12.1 l -21.1 13.1 l 5.8 15.6 c 1.4 3.7 0.6 7.9 -2.1 10.8 c -4.3 4.8 -8.1 10 -11.2 15.7 c -1.9 3.5 -5.6 5.5 -9.5 5.4 l -16.6 -0.5 l -5.6 24.2 l 15.1 6.8 c 3.6 1.6 6 5.1 6.2 9.1 c 0.3 6.4 1.4 12.8 3.1 19 c 1.1 3.8 0 7.9 -2.9 10.6 l -12.1 11.3 l 13.1 21.1 l 15.6 -5.9 c 3.7 -1.4 7.8 -0.6 10.8 2.1 c 4.8 4.3 10 8.1 15.7 11.2 c 3.5 1.9 5.6 5.6 5.4 9.5 l -0.5 16.6 l 24.2 5.6 l 6.8 -15.1 c 1.6 -3.6 5.1 -6 9.1 -6.2 c 6.4 -0.3 12.8 -1.4 19 -3.1 c 3.8 -1.1 7.9 0 10.6 2.9 l 11.3 12.1 l 21.1 -13.1 l -5.8 -15.6 c -1.4 -3.7 -0.6 -7.9 2.1 -10.8 c 4.3 -4.8 8.1 -10 11.2 -15.7 c 1.9 -3.5 5.6 -5.5 9.5 -5.4 l 16.6 0.5 l 5.6 -24.2 l -15.1 -6.8 c -3.6 -1.6 -6 -5.1 -6.2 -9.1 c -0.3 -6.4 -1.4 -12.8 -3.1 -19 c -1.1 -3.8 0 -7.9 2.9 -10.6 l 12.1 -11.3 l -13.1 -21.1 l -15.6 5.8 c -3.7 1.3 -7.8 0.5 -10.8 -2.1 z m -23 116.1 c -29.6 18.5 -68.6 9.4 -87.1 -20.2 s -9.4 -68.6 20.2 -87.1 s 68.6 -9.4 87.1 20.2 c 18.4 29.7 9.4 68.6 -20.2 87.1 z" stroke-linecap="round"/>
</g>
		<g transform="matrix(1 0 0 1 -303.35 210.35)" id="website-maintenance">
<path style="stroke: none; stroke-width: 1; stroke-dasharray: none; stroke-linecap: butt; stroke-dashoffset: 0; stroke-linejoin: miter; stroke-miterlimit: 4; is-custom-font: none; font-file-url: none; fill: rgb(204,233,255); fill-rule: nonzero; opacity: 1;" transform=" translate(-656.65, -750.35)" d="M 620.9 772.6 c -12.3 -19.7 -6.3 -45.7 13.5 -58 c 19.8 -12.3 45.7 -6.3 58 13.5 c 12.3 19.7 6.3 45.7 -13.5 58 c -19.7 12.3 -45.7 6.3 -58 -13.5 z" stroke-linecap="round"/>
</g>
		<g transform="matrix(1 0 0 1 518.35 -267.2)" id="website-maintenance">
<path style="stroke: none; stroke-width: 1; stroke-dasharray: none; stroke-linecap: butt; stroke-dashoffset: 0; stroke-linejoin: miter; stroke-miterlimit: 4; is-custom-font: none; font-file-url: none; fill: rgb(255,190,85); fill-rule: nonzero; opacity: 1;" transform=" translate(-1478.35, -272.8)" d="M 1412.8 222.4 c -3.9 5 -7.1 10.4 -9.7 16.2 c -1.6 3.5 -5 5.9 -8.9 6.1 l -16.3 0.8 l -3.6 24.1 l 15.3 5.5 c 3.6 1.3 6.2 4.6 6.7 8.4 c 0.8 6.3 2.3 12.4 4.6 18.3 c 1.4 3.6 0.6 7.7 -2 10.6 l -10.9 12 l 14.5 19.6 l 14.8 -6.9 c 3.5 -1.6 7.6 -1.2 10.7 1.2 c 5 3.9 10.4 7.1 16.2 9.7 c 3.5 1.6 5.9 5 6.1 8.9 l 0.8 16.3 l 24.1 3.6 l 5.5 -15.3 c 1.3 -3.6 4.6 -6.2 8.4 -6.7 c 6.3 -0.8 12.4 -2.3 18.3 -4.6 c 3.6 -1.4 7.7 -0.6 10.6 2 l 12 11 l 19.6 -14.5 l -6.9 -14.8 c -1.6 -3.5 -1.2 -7.6 1.2 -10.7 c 3.9 -5 7.1 -10.4 9.7 -16.2 c 1.6 -3.5 5 -5.9 8.9 -6.1 l 16.3 -0.8 l 3.6 -24.1 l -15.3 -5.5 c -3.6 -1.3 -6.2 -4.6 -6.7 -8.4 c -0.8 -6.3 -2.3 -12.4 -4.6 -18.3 c -1.4 -3.6 -0.6 -7.7 2 -10.6 l 11 -12 l -14.5 -19.6 l -14.8 6.9 c -3.5 1.6 -7.6 1.2 -10.7 -1.2 c -5 -3.9 -10.4 -7.1 -16.2 -9.7 c -3.5 -1.6 -5.9 -5 -6.1 -8.9 l -0.8 -16.3 l -24.1 -3.6 l -5.5 15.3 c -1.3 3.6 -4.6 6.2 -8.4 6.7 c -6.3 0.8 -12.4 2.3 -18.3 4.6 c -3.6 1.4 -7.7 0.6 -10.6 -2 l -12 -11 l -19.6 14.5 l 6.9 14.8 c 1.5 3.5 1.1 7.6 -1.3 10.7 z m 115.3 13.5 c 20.3 27.5 14.5 66.4 -13 86.7 c -27.5 20.3 -66.4 14.5 -86.7 -13 c -20.3 -27.5 -14.5 -66.4 13 -86.7 c 27.6 -20.3 66.4 -14.5 86.7 13 z" stroke-linecap="round"/>
</g>
		<g transform="matrix(1 0 0 1 518.25 -267.25)" id="website-maintenance">
<path style="stroke: none; stroke-width: 1; stroke-dasharray: none; stroke-linecap: butt; stroke-dashoffset: 0; stroke-linejoin: miter; stroke-miterlimit: 4; is-custom-font: none; font-file-url: none; fill: rgb(255,190,85); fill-rule: nonzero; opacity: 1;" transform=" translate(-1478.25, -272.75)" d="M 1502.8 306 c -18.4 13.6 -44.2 9.7 -57.8 -8.7 c -13.6 -18.4 -9.7 -44.2 8.7 -57.8 c 18.4 -13.6 44.2 -9.7 57.8 8.7 c 13.6 18.3 9.7 44.2 -8.7 57.8 z" stroke-linecap="round"/>
</g>
		<g transform="matrix(1 0 0 1 311.4 -379)" id="website-maintenance">
<path style="stroke: none; stroke-width: 1; stroke-dasharray: none; stroke-linecap: butt; stroke-dashoffset: 0; stroke-linejoin: miter; stroke-miterlimit: 4; is-custom-font: none; font-file-url: none; fill: rgb(204,233,255); fill-rule: nonzero; opacity: 1;" transform=" translate(-1271.4, -161)" d="M 1166 141.6 c -1.5 8.1 -2 16.3 -1.7 24.5 c 0.2 5 -2.3 9.8 -6.7 12.3 l -18.3 10.5 l 10.1 30 l 21 -2.7 c 5 -0.6 9.9 1.6 12.7 5.7 c 4.7 6.8 10.1 13 16.1 18.5 c 3.7 3.4 5.2 8.6 3.9 13.4 l -5.5 20.3 l 28.3 14.1 l 13 -16.7 c 3.1 -4 8.1 -5.9 13 -5 c 8.1 1.5 16.3 2.1 24.5 1.7 c 5 -0.2 9.8 2.3 12.3 6.7 l 10.5 18.3 l 30 -10.1 l -2.7 -21 c -0.6 -5 1.6 -9.9 5.7 -12.7 c 6.8 -4.6 13 -10.1 18.5 -16.1 c 3.4 -3.7 8.6 -5.2 13.4 -3.9 l 20.4 5.5 l 14.1 -28.4 l -16.8 -13 c -4 -3.1 -5.9 -8.1 -5 -13 c 1.5 -8.1 2.1 -16.3 1.7 -24.5 c -0.2 -5 2.4 -9.8 6.7 -12.3 l 18.3 -10.5 l -10.1 -30 l -21 2.7 c -5 0.6 -9.9 -1.6 -12.7 -5.7 c -4.6 -6.8 -10.1 -13 -16.1 -18.5 c -3.7 -3.4 -5.2 -8.6 -3.9 -13.4 l 5.5 -20.4 l -28.2 -14.1 l -13 16.7 c -3.1 4 -8.1 5.9 -13 5 c -8.1 -1.5 -16.3 -2.1 -24.5 -1.7 c -5 0.2 -9.8 -2.3 -12.3 -6.7 l -10.5 -18.3 l -30 10.1 l 2.7 21 c 0.6 5 -1.6 9.9 -5.7 12.7 c -6.8 4.6 -13 10.1 -18.5 16.1 c -3.4 3.7 -8.6 5.2 -13.4 3.9 l -20.4 -5.5 l -14.1 28.4 l 16.7 13 c 4.1 3.1 6 8.1 5 13.1 z m 141.3 -52.7 c 39.8 19.8 56 68.1 36.3 107.9 c -19.8 39.8 -68.1 56 -107.9 36.3 c -39.8 -19.8 -56 -68.1 -36.3 -107.9 c 19.8 -39.8 68.1 -56 107.9 -36.3 z" stroke-linecap="round"/>
</g>
		<g transform="matrix(1 0 0 1 311.4589 -378.95)" id="website-maintenance">
<path style="stroke: none; stroke-width: 1; stroke-dasharray: none; stroke-linecap: butt; stroke-dashoffset: 0; stroke-linejoin: miter; stroke-miterlimit: 4; is-custom-font: none; font-file-url: none; fill: rgb(204,233,255); fill-rule: nonzero; opacity: 1;" transform=" translate(-1271.4589, -161.05)" d="M 1319.5 184.9 c -13.2 26.5 -45.4 37.4 -71.9 24.2 c -26.5 -13.2 -37.4 -45.4 -24.2 -71.9 c 13.2 -26.5 45.4 -37.4 71.9 -24.2 c 26.6 13.1 37.4 45.3 24.2 71.9 z" stroke-linecap="round"/>
</g>
</g>
</g>
</svg>