<svg xmlns="http://www.w3.org/2000/svg" viewBox="0 0 512 512" id="workflow"><path fill="#9bc9ff" fill-rule="evenodd" d="M147.563 101.295c0-22.773-18.514-41.265-41.284-41.265-22.751 0-41.237 18.521-41.237 41.265 0 22.747 18.483 41.27 41.237 41.27 22.773 0 41.284-18.495 41.284-41.27zm201.562 0c0-2.219-1.805-4-4.019-4h-67.077c-2.196 0-3.972 1.811-3.972 4 0 2.191 1.773 4.005 3.972 4.005h67.077a4.008 4.008 0 0 0 4.019-4.005zm67.917 4.005c2.193 0 4.019-1.807 4.019-4.005 0-2.196-1.829-4-4.019-4h-44.718c-2.221 0-3.972 1.787-3.972 4 0 2.214 1.748 4.005 3.972 4.005h44.718zM196.291 443.04c0-2.221-1.803-4-4.019-4h-75.379a4.004 4.004 0 0 0-4.019 4c0 2.221 1.803 4 4.019 4h75.379a4.003 4.003 0 0 0 4.019-4zm26.595-4a4.004 4.004 0 0 0-4.019 4c0 2.221 1.802 4 4.019 4h50.237a4.004 4.004 0 0 0 4.019-4c0-2.221-1.803-4-4.019-4h-50.237zM44.055 117.27a4.02 4.02 0 0 0-3.268-2.964l-23.793-3.808V92.097l23.793-3.808a4.024 4.024 0 0 0 3.269-2.969 64.506 64.506 0 0 1 6.94-16.746c.813-1.374.709-3.099-.223-4.389l-14.124-19.53 13.037-13 19.505 14.131a3.997 3.997 0 0 0 4.385.201 63.82 63.82 0 0 1 16.758-6.945c1.513-.388 2.7-1.651 2.933-3.204l3.852-23.837h18.375l3.792 23.8a3.994 3.994 0 0 0 2.981 3.239 63.533 63.533 0 0 1 16.763 6.947 3.997 3.997 0 0 0 4.384-.196l19.505-14.137 13.038 13-14.123 19.531c-.934 1.292-1.057 2.999-.233 4.377 3.12 5.217 5.433 10.873 6.95 16.757a4.024 4.024 0 0 0 3.269 2.969l23.793 3.808v18.402l-23.793 3.808a4.025 4.025 0 0 0-3.269 2.965c-1.518 5.886-3.828 11.542-6.95 16.762-.824 1.378-.702 3.085.232 4.377l14.124 19.525-13.037 13.007-19.505-14.137a3.997 3.997 0 0 0-4.384-.2 63.68 63.68 0 0 1-16.761 6.951c-1.553.396-2.73 1.652-2.983 3.239l-3.792 23.801H97.119l-3.852-23.837c-.233-1.554-1.421-2.816-2.935-3.204a63.94 63.94 0 0 1-16.756-6.949 4 4 0 0 0-4.384.2l-19.506 14.137-13.037-13.007 14.123-19.525c.933-1.29 1.038-3.017.224-4.391a64.417 64.417 0 0 1-6.941-16.75zm204.738-45.31c0-7.224 5.875-13.132 13.104-13.132h171.278c7.248 0 13.151 5.88 13.151 13.132v58.676c0 7.25-5.905 13.132-13.151 13.132H261.896c-7.227 0-13.104-5.911-13.104-13.132V71.96h.001zm44.614 328.613c7.248 0 13.151 5.88 13.151 13.132v58.676c0 7.25-5.905 13.132-13.151 13.132H96.609c-7.246 0-13.151-5.882-13.151-13.132v-58.676c0-7.252 5.903-13.132 13.151-13.132h196.798z" clip-rule="evenodd"></path><path fill="#57a4ff" fill-rule="evenodd" d="M106.279 130.565c-16.132 0-29.246-13.128-29.246-29.27 0-16.137 13.114-29.265 29.246-29.265 16.18 0 29.293 13.128 29.293 29.265 0 16.142-13.113 29.27-29.293 29.27zm0-74.535c-24.954 0-45.237 20.307-45.237 45.265 0 24.963 20.284 45.27 45.237 45.27 25.001 0 45.284-20.307 45.284-45.27 0-24.958-20.283-45.265-45.284-45.265zm318.782 45.265c0 4.42-3.632 8.005-8.019 8.005h-44.718c-4.434 0-7.972-3.585-7.972-8.005 0-4.415 3.538-8 7.972-8h44.718c4.387 0 8.019 3.585 8.019 8zm-71.936 0c0 4.42-3.585 8.005-8.019 8.005h-67.077c-4.387 0-7.972-3.585-7.972-8.005 0-4.415 3.585-8 7.972-8h67.077c4.434 0 8.019 3.585 8.019 8zM200.291 443.04c0 4.42-3.585 8-8.019 8h-75.379c-4.434 0-8.019-3.58-8.019-8s3.585-8 8.019-8h75.379c4.434 0 8.019 3.581 8.019 8zm80.851 0c0 4.42-3.585 8-8.019 8h-50.237c-4.434 0-8.019-3.58-8.019-8s3.585-8 8.019-8h50.237c4.434 0 8.019 3.581 8.019 8zM167.979 280.871c0-4.42 3.538-8 7.972-8h50.284c4.387 0 7.972 3.581 7.972 8 0 4.42-3.585 8-7.972 8h-50.284c-4.434 0-7.972-3.58-7.972-8zm80.851 0c0-4.42 3.585-8 7.972-8h75.427c4.387 0 8.019 3.581 8.019 8 0 4.42-3.632 8-8.019 8h-75.427c-4.387 0-7.972-3.58-7.972-8zM469.968 429.38l-30.237 37.383a7.98 7.98 0 0 1-5.802 2.958c-.142.01-.283.014-.425.014a8.01 8.01 0 0 1-5.661-2.344l-21.18-21.194c-3.113-3.123-3.113-8.189 0-11.312 3.113-3.123 8.208-3.123 11.321 0l14.906 14.906 24.623-30.472c2.783-3.434 7.831-3.967 11.274-1.189 3.445 2.778 3.964 7.816 1.181 11.25zm21.039 62.001V394.7c0-2.5-2.123-4.618-4.623-4.618h-96.701c-2.5 0-4.623 2.118-4.623 4.618v96.682c0 2.505 2.122 4.618 4.623 4.618h96.701c2.5 0 4.623-2.114 4.623-4.619zm-188.449-19v-58.676c0-5.038-4.104-9.132-9.151-9.132H96.609c-5.047 0-9.151 4.094-9.151 9.132v58.676c0 5.033 4.104 9.132 9.151 9.132h196.798c5.047 0 9.151-4.099 9.151-9.132zM158.12 242.403l-18.727 76.941h210.666l18.727-76.941H158.12zm284.206-111.767V71.96c0-5.038-4.104-9.132-9.151-9.132H261.896c-5 0-9.104 4.094-9.104 9.132v58.676c0 5.033 4.104 9.132 9.104 9.132h171.278c5.048 0 9.152-4.099 9.152-9.132zm-250.714-23.548v-11.58l-20.425-3.269a8.031 8.031 0 0 1-6.51-5.92c-1.415-5.509-3.585-10.798-6.51-15.703-1.651-2.745-1.462-6.189.424-8.774l12.123-16.765-8.208-8.184-16.745 12.137a8.005 8.005 0 0 1-8.774.396 59.61 59.61 0 0 0-15.708-6.51 8.02 8.02 0 0 1-5.944-6.486L112.081 16h-11.557l-3.302 20.43c-.472 3.146-2.83 5.694-5.896 6.486a59.61 59.61 0 0 0-15.708 6.51 7.998 7.998 0 0 1-8.774-.401L50.098 36.893l-8.208 8.184 12.123 16.765c1.887 2.58 2.028 6.028.425 8.769a59.705 59.705 0 0 0-6.509 15.708 8.031 8.031 0 0 1-6.51 5.92l-20.425 3.269v11.58l20.425 3.269a8.027 8.027 0 0 1 6.51 5.915c1.415 5.514 3.585 10.802 6.509 15.708 1.604 2.741 1.462 6.189-.425 8.774l-12.123 16.76 8.208 8.189 16.746-12.137a8.015 8.015 0 0 1 8.774-.401 59.622 59.622 0 0 0 15.708 6.514c3.066.793 5.425 3.34 5.896 6.486l3.302 20.43h11.557l3.255-20.43a8.022 8.022 0 0 1 5.944-6.486 59.79 59.79 0 0 0 15.708-6.514 8.007 8.007 0 0 1 8.774.401l16.746 12.137 8.208-8.189-12.123-16.76c-1.887-2.585-2.076-6.033-.424-8.774a59.705 59.705 0 0 0 6.51-15.708 8.032 8.032 0 0 1 6.51-5.915l20.423-3.269zm294.772 266.993h-96.701c-11.368 0-20.614 9.25-20.614 20.618v40.341h-50.52v-21.336c0-13.859-11.274-25.133-25.142-25.133H96.609c-13.868 0-25.142 11.274-25.142 25.133v21.336H43.589c-12.453 0-22.595-10.132-22.595-22.59v-80.597c0-23.703 19.293-42.982 42.973-42.982h66.37l-8.915 36.577a8.084 8.084 0 0 0 1.509 6.835 7.963 7.963 0 0 0 6.274 3.057h227.129c3.679 0 6.887-2.519 7.783-6.104l9.812-40.365h70.285c32.501 0 58.964-26.458 58.964-58.983v-98.002c0-21.279-17.312-38.591-38.586-38.591h-6.274V71.96c0-13.859-11.274-25.133-25.142-25.133h-171.28c-13.821 0-25.095 11.274-25.095 25.133v21.336h-29.199v-4.609c0-3.929-2.878-7.278-6.746-7.901l-22.17-3.547c-1.179-3.463-2.547-6.84-4.198-10.104l13.161-18.199c2.312-3.184 1.981-7.571-.802-10.349l-17.831-17.835c-2.783-2.778-7.17-3.123-10.378-.821l-18.161 13.175c-3.302-1.637-6.651-3.038-10.142-4.189l-3.538-22.18A7.98 7.98 0 0 0 118.921 0H93.684a7.986 7.986 0 0 0-7.877 6.736l-3.585 22.18a76.478 76.478 0 0 0-10.095 4.189L53.919 19.93c-3.161-2.302-7.548-1.953-10.331.821l-17.83 17.835c-2.783 2.778-3.113 7.165-.849 10.349l13.208 18.199a71.972 71.972 0 0 0-4.198 10.104l-22.17 3.547c-3.868.622-6.746 3.972-6.746 7.901v25.222c0 3.929 2.877 7.278 6.746 7.901l22.17 3.547a72.221 72.221 0 0 0 4.198 10.104l-13.208 18.2c-2.264 3.179-1.934 7.566.849 10.345l17.831 17.835c2.783 2.783 7.17 3.127 10.331.825l18.208-13.175a76.478 76.478 0 0 0 10.095 4.189l3.585 22.18a7.98 7.98 0 0 0 7.877 6.731h25.237a7.983 7.983 0 0 0 7.878-6.731l3.538-22.185a76.408 76.408 0 0 0 10.142-4.189l18.161 13.18c3.208 2.302 7.594 1.958 10.378-.825l17.831-17.835c2.783-2.779 3.113-7.165.802-10.345l-13.161-18.199c1.651-3.269 3.019-6.642 4.198-10.104l22.17-3.547c3.868-.623 6.746-3.972 6.746-7.901V109.3h29.199v21.336c0 13.859 11.274 25.133 25.095 25.133h171.278c13.868 0 25.142-11.274 25.142-25.133V109.3h6.274c12.453 0 22.595 10.132 22.595 22.586v98.002c0 23.704-19.293 42.982-42.973 42.982h-66.37l8.916-36.576c.566-2.382.047-4.906-1.51-6.835a7.964 7.964 0 0 0-6.274-3.057H151.846c-3.679 0-6.887 2.524-7.783 6.104l-9.811 40.364H63.967c-32.501 0-58.964 26.458-58.964 58.983v80.597c0 21.279 17.312 38.591 38.586 38.591h27.878v21.34c0 13.859 11.274 25.133 25.142 25.133h196.798c13.868 0 25.142-11.274 25.142-25.133v-21.34h50.52v40.341c0 11.368 9.245 20.619 20.614 20.619h96.701c11.368 0 20.614-9.25 20.614-20.619V394.7c-.001-11.369-9.246-20.619-20.614-20.619z" clip-rule="evenodd"></path></svg>