<svg xmlns="http://www.w3.org/2000/svg" width="332.313" height="154.608" viewBox="0 0 332.313 154.608">
  <g id="_1" data-name="1" transform="translate(-50.787 -39.273)">
    <g id="Layer_1">
      <g id="Layer_1-2" data-name="Layer_1">
        <path id="Path_4" data-name="Path 4" d="M165.2,41.3c12.4,10,26.8,16.7,40.7,24a45.977,45.977,0,0,1,5.3,3.1c14.1,9.3,22.2,21.9,20.5,39.3a105.765,105.765,0,0,1-3.1,17.7c-.9,3.7-.7,5.5,3.4,6.9,8.4,2.7,14.2,8.1,14.4,17.9,0,1.1,1.2,2.4,2.1,3.2,2,1.5,4.3,2.7,7.4,4.6a63.39,63.39,0,0,0-6.9.8c-5.9,1.3-11.7,2.5-17.5,4.1-6.8,1.9-13.5,4.1-20.2,6.3a30.582,30.582,0,0,0-5.5,2.6c-12.4,7.3-25.3,13.7-39.1,18-21.9,6.8-42.5,3.9-61.2-9.2-10.4-7.3-20.1-15.8-29.9-24a164.672,164.672,0,0,1-15.5-14.8c1.4.4,2.7.8,4.1,1.2,12.7,4.1,25.3,8.7,38.1,12.4,8.7,2.5,17.7,3.1,26.6.5a30.581,30.581,0,0,0,15.8-10.4c-2.4-2.5-4.6-5.3-7.1-7.5-9.7-8.5-19.1-17.7-29.5-25-16-11.4-34.2-14.6-53.6-10.4a15.694,15.694,0,0,1-2.4.3c4.4-4.6,18.2-7.8,29.8-7.1,10.7.6,20.5,4.3,30,8.9C105,95.2,96.1,87.9,86.4,81.6A112.248,112.248,0,0,0,54.9,67.8c9.2.2,18,2.7,26.6,5.7,18.9,6.5,34.9,17.7,50.8,29.2,9.2,6.6,18.7,12.6,28.1,18.9,2.9,2,4.6,1.3,6.4-1.6,7.7-13,8.9-27.1,7.5-41.7-1.2-12.7-4.8-24.8-9.2-37.1h0Z" stroke="#fff" stroke-miterlimit="10" stroke-width="1"/>
        <g id="Group_3" data-name="Group 3">
          <path id="Path_5" data-name="Path 5" d="M309.4,141.4c10.1-1.3,20.5-2.7,29.9,1.1,4.1,1.6,8.3,3.3,12.6,5.2,2,.8,4.2,1.7,6.4,2.7l.5.2-.5.3c-1.1.7-2.5,1.5-3.6,2.2h0c5.6-1,10.5,2.3,12.4,3.9,8.2,6.6,11.8,15.5,15.2,27.6l.3,1.1-.8-.8c-8.4-8.4-18.8-10.9-28.8-13.3-2.6-.6-5.3-1.3-7.9-2-2.3-.7-4.6-1.4-6.9-2a13.793,13.793,0,0,1-8.9-7.3c0,.8.2,1.5.2,2v.4h-.3c-5.5-1.1-14.7-9.6-18.3-16.8l-.3-.6s2.2.8,3.6,1.3c-4.2-1.6-10.7-4.2-10.7-4.2s4.3-.5,5.9-.8v-.2h0Z"/>
          <path id="Path_6" data-name="Path 6" d="M381.9,184.7c-10.7-10.7-24.2-12-36.8-15.6-2.3-.7-4.6-1.4-6.9-2-4.4-1.3-8.7-4.7-9.6-10.2v0c.2,1.3.5,4,.6,5.2-5.3-1.1-14.5-9.4-18-16.6,4.5,1.7,45.6,17,45.7,16.8-6-2.7-44-16.5-52.3-20,11.7-1.4,23.8-3.9,34.6.5,6.1,2.4,12.1,5,19,7.9-1.8,1.1-4.5,2.7-5.4,3.3,5.3-2,10.5.4,14.1,3.3,8.5,6.9,12.1,16.4,15.1,27.5h-.1Zm1.2,1.9-.5-2c-3.3-12.2-7.1-21.2-15.3-27.8-1.8-1.5-6.1-4.4-11.2-4.1.8-.5,1.7-1.1,2.5-1.5l.9-.6-1-.4c-2.2-.9-4.3-1.8-6.4-2.7-4.3-1.8-8.4-3.6-12.6-5.2-9.6-3.8-20-2.5-30.2-1.1-1.5.2-7,.8-7,.8s5.5,2.1,8,3.1l.3.6c3.6,7.3,12.9,15.8,18.4,16.9l.8.2-.2-.8v-.5a14.3,14.3,0,0,0,8.3,6.1c2.2.7,4.5,1.3,6.9,2,2.6.8,5.3,1.4,7.9,2,10,2.4,20.3,4.9,28.7,13.3l1.7,1.7h0Z" fill="#fff"/>
        </g>
      </g>
    </g>
  </g>
</svg>
